millimetreA Extrablack 01.ufo
<glyph name="quotedbl" format="1">
  <advance width="300"/>
  <unicode hex="0022"/>
  <outline>
    <contour>
      <point x="0" y="530" type="line"/>
      <point x="20" y="400" type="line"/>
      <point x="130" y="400" type="line"/>
      <point x="130" y="700" type="line"/>
      <point x="0" y="700" type="line"/>
    </contour>
    <contour>
      <point x="170" y="400" type="line"/>
      <point x="280" y="400" type="line"/>
      <point x="300" y="530" type="line"/>
      <point x="300" y="700" type="line"/>
      <point x="170" y="700" type="line"/>
    </contour>
  </outline>
</glyph>
<glyph name="numbersign" format="1">
  <advance width="500"/>
  <unicode hex="0023"/>
  <outline>
    <contour>
      <point x="280" y="265" type="line"/>
      <point x="365" y="310" type="line"/>
      <point x="170" y="310" type="line"/>
      <point x="195" y="265" type="line"/>
      <point x="220" y="435" type="line"/>
      <point x="185" y="390" type="line"/>
      <point x="380" y="390" type="line"/>
      <point x="305" y="435" type="line"/>
    </contour>
    <contour>
      <point x="240" y="0" type="line"/>
      <point x="410" y="0" type="line"/>
      <point x="440" y="210" type="line"/>
      <point x="405" y="170" type="line"/>
      <point x="500" y="170" type="line"/>
      <point x="500" y="315" type="line"/>
      <point x="415" y="315" type="line"/>
      <point x="440" y="270" type="line"/>
      <point x="460" y="430" type="line"/>
      <point x="425" y="385" type="line"/>
      <point x="500" y="385" type="line"/>
      <point x="500" y="530" type="line"/>
      <point x="440" y="530" type="line"/>
      <point x="465" y="490" type="line"/>
      <point x="485" y="600" type="line"/>
      <point x="500" y="700" type="line"/>
      <point x="330" y="700" type="line"/>
      <point x="300" y="490" type="line"/>
      <point x="385" y="530" type="line"/>
      <point x="200" y="530" type="line"/>
      <point x="225" y="490" type="line"/>
      <point x="245" y="600" type="line"/>
      <point x="260" y="700" type="line"/>
      <point x="90" y="700" type="line"/>
      <point x="60" y="490" type="line"/>
      <point x="145" y="530" type="line"/>
      <point x="0" y="530" type="line"/>
      <point x="0" y="385" type="line"/>
      <point x="135" y="385" type="line"/>
      <point x="60" y="430" type="line"/>
      <point x="40" y="270" type="line"/>
      <point x="125" y="315" type="line"/>
      <point x="0" y="315" type="line"/>
      <point x="0" y="170" type="line"/>
      <point x="110" y="170" type="line"/>
      <point x="35" y="210" type="line"/>
      <point x="15" y="100" type="line"/>
      <point x="0" y="0" type="line"/>
      <point x="170" y="0" type="line"/>
      <point x="200" y="210" type="line"/>
      <point x="165" y="170" type="line"/>
      <point x="350" y="170" type="line"/>
      <point x="275" y="210" type="line"/>
      <point x="255" y="100" type="line"/>
    </contour>
  </outline>
</glyph>
<glyph name="dollar" format="1">
  <advance width="600"/>
  <unicode hex="0024"/>
  <outline>
    <contour>
      <point x="355.0" y="605.0" type="line"/>
      <point x="375.0" y="646.0" type="line"/>
      <point x="375.0" y="750.0" type="line"/>
      <point x="225.0" y="750.0" type="line"/>
      <point x="225.0" y="644.0" type="line"/>
      <point x="245.0" y="605.0" type="line"/>
    </contour>
    <contour>
      <point x="225.0" y="-50.0" type="line"/>
      <point x="375.0" y="-50.0" type="line"/>
      <point x="375.0" y="46.0" type="line"/>
      <point x="355.0" y="105.0" type="line"/>
      <point x="245.0" y="90.0" type="line"/>
      <point x="225.0" y="39.0" type="line"/>
    </contour>
    <component base="S"/>
  </outline>
</glyph>
<glyph name="ampersand" format="1">
  <advance width="800"/>
  <unicode hex="0026"/>
  <outline>
    <contour>
      <point x="575" y="350" type="line"/>
      <point x="775" y="350" type="line"/>
      <point x="775" y="400" type="line"/>
      <point x="575" y="400" type="line"/>
    </contour>
    <contour>
      <point x="575" y="350" type="line"/>
      <point x="575.0" y="236.66666666666669"/>
      <point x="510.0" y="180.0"/>
      <point x="350" y="180" type="curve"/>
      <point x="260.0" y="180.0"/>
      <point x="215.0" y="201.0"/>
      <point x="215" y="240" type="curve" smooth="yes"/>
      <point x="215.0" y="295.25"/>
      <point x="260.0" y="325.0"/>
      <point x="380" y="325" type="curve"/>
      <point x="380.0" y="325.0"/>
      <point x="310.0" y="435.0"/>
      <point x="310" y="435" type="curve"/>
      <point x="135.0" y="435.0"/>
      <point x="15" y="380"/>
      <point x="15" y="240" type="curve" smooth="yes"/>
      <point x="15" y="70"/>
      <point x="144.67741935483872" y="-10.0"/>
      <point x="350" y="-10" type="curve"/>
      <point x="647.5" y="-10.0"/>
      <point x="775.0" y="129.99999999999997"/>
      <point x="775" y="350" type="curve"/>
    </contour>
    <contour>
      <point x="245" y="345" type="curve" smooth="yes"/>
      <point x="555" y="0" type="line"/>
      <point x="750" y="0" type="line"/>
      <point x="750" y="65" type="line"/>
      <point x="425" y="420" type="line" smooth="yes"/>
      <point x="400" y="445"/>
      <point x="370" y="480"/>
      <point x="370" y="510" type="curve" smooth="yes"/>
      <point x="370.0" y="538.0"/>
      <point x="387.5" y="545.0"/>
      <point x="405" y="545" type="curve"/>
      <point x="423.0" y="545.0"/>
      <point x="435.0" y="535.0"/>
      <point x="435" y="510" type="curve"/>
      <point x="435.0" y="478.8888888888889"/>
      <point x="399.61867889561984" y="449.92373577912394"/>
      <point x="350" y="440" type="curve"/>
      <point x="410" y="350" type="line"/>
      <point x="530" y="365"/>
      <point x="630.0" y="440.0"/>
      <point x="630" y="535" type="curve"/>
      <point x="630.0" y="655.0"/>
      <point x="555.25" y="710.0"/>
      <point x="400" y="710" type="curve"/>
      <point x="259.7560975609756" y="710.0"/>
      <point x="170.0" y="640.0"/>
      <point x="170" y="535" type="curve"/>
      <point x="170.0" y="465.0"/>
      <point x="186.54159392235474" y="410.0585486993149"/>
    </contour>
  </outline>
</glyph>
<glyph name="quotesingle" format="1">
  <advance width="250"/>
  <unicode hex="0027"/>
  <outline>
    <contour>
      <point x="25" y="550" type="line"/>
      <point x="75" y="400" type="line"/>
      <point x="180" y="400" type="line"/>
      <point x="225" y="550" type="line"/>
      <point x="225" y="700" type="line"/>
      <point x="25" y="700" type="line"/>
    </contour>
  </outline>
</glyph>
<glyph name="parenleft" format="1">
  <advance width="250"/>
  <unicode hex="0028"/>
  <outline>
    <contour>
      <point x="250" y="-200" type="curve"/>
      <point x="270" y="-200" type="line"/>
      <point x="270" y="-50" type="line"/>
      <point x="250" y="-50" type="line"/>
      <point x="235" y="-50"/>
      <point x="225" y="-40"/>
      <point x="225" y="0" type="curve" smooth="yes"/>
      <point x="225" y="260" type="line"/>
      <point x="25" y="260" type="line"/>
      <point x="25" y="-25" type="line" smooth="yes"/>
      <point x="25" y="-140.0"/>
      <point x="90" y="-200"/>
    </contour>
    <contour>
      <point x="250" y="700" type="line"/>
      <point x="90" y="700"/>
      <point x="25" y="640.0"/>
      <point x="25" y="525" type="curve" smooth="yes"/>
      <point x="25" y="240" type="line"/>
      <point x="225" y="240" type="line"/>
      <point x="225" y="500" type="line" smooth="yes"/>
      <point x="225" y="540"/>
      <point x="235" y="550"/>
      <point x="250" y="550" type="curve"/>
      <point x="270" y="550" type="line"/>
      <point x="270" y="700" type="line"/>
    </contour>
  </outline>
</glyph>
<glyph name="plus" format="1">
  <advance width="600"/>
  <unicode hex="002B"/>
  <outline>
    <contour>
      <point x="550" y="175" type="line"/>
      <point x="550" y="325" type="line"/>
      <point x="420" y="325" type="line"/>
      <point x="370" y="320" type="line"/>
      <point x="375" y="370" type="line"/>
      <point x="375" y="500" type="line"/>
      <point x="225" y="500" type="line"/>
      <point x="225" y="370" type="line" smooth="yes"/>
      <point x="230" y="320" type="line"/>
      <point x="180" y="325" type="line"/>
      <point x="50" y="325" type="line"/>
      <point x="50" y="175" type="line"/>
      <point x="180" y="175" type="line" smooth="yes"/>
      <point x="230" y="180" type="line"/>
      <point x="225" y="130" type="line"/>
      <point x="225" y="0" type="line"/>
      <point x="375" y="0" type="line"/>
      <point x="375" y="130" type="line"/>
      <point x="370" y="180" type="line"/>
      <point x="420" y="175" type="line"/>
    </contour>
  </outline>
</glyph>
<glyph name="comma" format="1">
  <advance width="250"/>
  <unicode hex="002C"/>
  <outline>
    <contour>
      <point x="25" y="0" type="line"/>
      <point x="55" y="0" type="line"/>
      <point x="55" y="-100" type="line"/>
      <point x="180" y="-100" type="line"/>
      <point x="225" y="50" type="line"/>
      <point x="225" y="200" type="line"/>
      <point x="25" y="200" type="line"/>
    </contour>
  </outline>
</glyph>
<glyph name="hyphen" format="1">
  <advance width="200"/>
  <unicode hex="002D"/>
  <outline>
    <contour>
      <point x="0" y="155" type="line"/>
      <point x="200" y="155" type="line"/>
      <point x="200" y="345" type="line"/>
      <point x="0" y="345" type="line"/>
    </contour>
  </outline>
</glyph>
<glyph name="period" format="1">
  <advance width="250"/>
  <unicode hex="002E"/>
  <outline>
    <contour>
      <point x="25" y="0" type="line"/>
      <point x="225" y="0" type="line"/>
      <point x="225" y="200" type="line"/>
      <point x="25" y="200" type="line"/>
    </contour>
  </outline>
</glyph>
<glyph name="slash" format="1">
  <advance width="250"/>
  <unicode hex="002F"/>
  <outline>
    <contour>
      <point x="0" y="0" type="line"/>
      <point x="175" y="0" type="line"/>
      <point x="250" y="700" type="line"/>
      <point x="75" y="700" type="line"/>
    </contour>
  </outline>
</glyph>
<glyph name="one" format="1">
  <advance width="250"/>
  <unicode hex="0031"/>
  <outline>
    <contour>
      <point x="25" y="0" type="line"/>
      <point x="225" y="0" type="line"/>
      <point x="225" y="700" type="line"/>
      <point x="25" y="700" type="line"/>
    </contour>
    <contour>
      <point x="65" y="700" type="line"/>
      <point x="-5" y="700" type="line"/>
      <point x="-25" y="510" type="line"/>
      <point x="75" y="510" type="line"/>
    </contour>
  </outline>
</glyph>
<glyph name="two" format="1">
  <advance width="600"/>
  <unicode hex="0032"/>
  <outline>
    <contour>
      <point x="225" y="205" type="line"/>
      <point x="225" y="285"/>
      <point x="575" y="246"/>
      <point x="575" y="480" type="curve" smooth="yes"/>
      <point x="575" y="627"/>
      <point x="498.0" y="700.0"/>
      <point x="300" y="700" type="curve"/>
      <point x="270" y="700" type="line" smooth="yes"/>
      <point x="114.0909090909091" y="700"/>
      <point x="25.0" y="630.0"/>
      <point x="25" y="480" type="curve"/>
      <point x="25" y="450" type="line"/>
      <point x="225" y="450" type="line"/>
      <point x="225" y="470" type="line" smooth="yes"/>
      <point x="225" y="496.25"/>
      <point x="244.0" y="500.0"/>
      <point x="300" y="500" type="curve"/>
      <point x="364" y="500"/>
      <point x="375" y="493"/>
      <point x="375" y="474" type="curve" smooth="yes"/>
      <point x="375" y="406"/>
      <point x="25" y="458"/>
      <point x="25" y="210" type="curve" smooth="yes"/>
      <point x="25" y="0" type="line"/>
      <point x="575" y="0" type="line"/>
      <point x="575" y="250" type="line"/>
      <point x="375" y="250" type="line"/>
      <point x="375" y="190" type="line" smooth="yes"/>
      <point x="225" y="190" type="line"/>
    </contour>
  </outline>
</glyph>
<glyph name="three" format="1">
  <advance width="600"/>
  <unicode hex="0033"/>
  <outline>
    <contour>
      <point x="575" y="505" type="curve"/>
      <point x="575" y="515" type="line"/>
      <point x="575.0" y="640.9142857142856"/>
      <point x="498.0" y="710.0"/>
      <point x="300" y="710" type="curve" smooth="yes"/>
      <point x="91.0" y="710.0"/>
      <point x="25.0" y="652.1465968586388"/>
      <point x="25" y="489" type="curve"/>
      <point x="25" y="460" type="line"/>
      <point x="225" y="460" type="line"/>
      <point x="225" y="475" type="line"/>
      <point x="225.0" y="514.6"/>
      <point x="240.0" y="520.0"/>
      <point x="300" y="520" type="curve" smooth="yes"/>
      <point x="360" y="520"/>
      <point x="375" y="515"/>
      <point x="375" y="490" type="curve"/>
      <point x="375" y="465"/>
      <point x="360" y="460"/>
      <point x="300" y="460" type="curve"/>
      <point x="300" y="370" type="line"/>
      <point x="498" y="370"/>
      <point x="575" y="400"/>
    </contour>
    <contour>
      <point x="270" y="0" type="curve" smooth="yes"/>
      <point x="300" y="0" type="line"/>
      <point x="300" y="200" type="line"/>
      <point x="248.0" y="200.0"/>
      <point x="225" y="208.88888888888889"/>
      <point x="225" y="240" type="curve" smooth="yes"/>
      <point x="225" y="300" type="line"/>
      <point x="25" y="300" type="line"/>
      <point x="25" y="220" type="line"/>
      <point x="25.0" y="70.0"/>
      <point x="114.0909090909091" y="0"/>
    </contour>
    <contour>
      <point x="575" y="245" type="curve"/>
      <point x="575" y="270" type="line"/>
      <point x="575" y="370"/>
      <point x="498" y="410"/>
      <point x="300" y="410" type="curve"/>
      <point x="300" y="460" type="line"/>
      <point x="250" y="460" type="line"/>
      <point x="250" y="320" type="line"/>
      <point x="300" y="320" type="line"/>
      <point x="360" y="320"/>
      <point x="375" y="310"/>
      <point x="375" y="270" type="curve"/>
      <point x="375" y="240" type="line"/>
      <point x="375.0" y="208.88888888888889"/>
      <point x="360.0" y="200.0"/>
      <point x="300" y="200" type="curve"/>
      <point x="300" y="0" type="line"/>
      <point x="330" y="0" type="line" smooth="yes"/>
      <point x="485.9090909090909" y="0"/>
      <point x="575.0" y="70.0"/>
    </contour>
  </outline>
</glyph>
<glyph name="four" format="1">
  <advance width="600"/>
  <unicode hex="0034"/>
  <outline>
    <contour>
      <point x="25" y="120" type="line"/>
      <point x="575" y="120" type="line"/>
      <point x="575" y="320" type="line"/>
      <point x="360" y="320" type="line"/>
      <point x="25" y="290" type="line"/>
    </contour>
    <contour>
      <point x="575" y="0" type="line"/>
      <point x="575" y="570" type="line"/>
      <point x="510" y="570" type="line"/>
      <point x="385" y="450" type="line"/>
      <point x="385" y="0" type="line"/>
    </contour>
    <contour>
      <point x="175" y="210" type="line"/>
      <point x="305.8882510191489" y="310.380463187618"/>
      <point x="400.0" y="477.82608695652175"/>
      <point x="400" y="650" type="curve"/>
      <point x="400" y="700" type="line"/>
      <point x="200" y="700" type="line"/>
      <point x="200" y="650" type="line"/>
      <point x="200.0" y="512.6315789473684"/>
      <point x="126.19688025068115" y="395.08906795263044"/>
      <point x="25" y="290" type="curve"/>
    </contour>
  </outline>
</glyph>
<glyph name="five" format="1">
  <advance width="600"/>
  <unicode hex="0035"/>
  <outline>
    <contour>
      <point x="270" y="0" type="curve" smooth="yes"/>
      <point x="300" y="0" type="line"/>
      <point x="300" y="200" type="line"/>
      <point x="248.0" y="200.0"/>
      <point x="225" y="207.72413793103448"/>
      <point x="225" y="232" type="curve" smooth="yes"/>
      <point x="225" y="242" type="line"/>
      <point x="25" y="242" type="line"/>
      <point x="25" y="209" type="line"/>
      <point x="25.0" y="66.5"/>
      <point x="114.0909090909091" y="0"/>
    </contour>
    <contour>
      <point x="300" y="300" type="curve"/>
      <point x="360" y="300"/>
      <point x="375" y="292"/>
      <point x="375" y="260" type="curve"/>
      <point x="375" y="240" type="line"/>
      <point x="375.0" y="208.88888888888889"/>
      <point x="360.0" y="200.0"/>
      <point x="300" y="200" type="curve"/>
      <point x="300" y="0" type="line"/>
      <point x="330" y="0" type="line" smooth="yes"/>
      <point x="485.9090909090909" y="0"/>
      <point x="575.0" y="70.0"/>
      <point x="575" y="245" type="curve"/>
      <point x="575" y="260" type="line"/>
      <point x="575" y="390"/>
      <point x="495" y="460"/>
      <point x="390" y="460" type="curve" smooth="yes"/>
      <point x="285" y="460"/>
      <point x="253" y="437"/>
      <point x="220" y="400" type="curve"/>
      <point x="225" y="445" type="line"/>
      <point x="225" y="490" type="line"/>
      <point x="575" y="490" type="line"/>
      <point x="575" y="700" type="line"/>
      <point x="25" y="700" type="line"/>
      <point x="25" y="273" type="line"/>
      <point x="215" y="273" type="line"/>
      <point x="219.51878311671626" y="296.4976722069246"/>
      <point x="238.0" y="300.0"/>
    </contour>
  </outline>
</glyph>
<glyph name="six" format="1">
  <advance width="600"/>
  <unicode hex="0036"/>
  <outline>
    <contour>
      <point x="270" y="0" type="curve" smooth="yes"/>
      <point x="300" y="0" type="line"/>
      <point x="300" y="175" type="line"/>
      <point x="245" y="175"/>
      <point x="225" y="175"/>
      <point x="225" y="200" type="curve"/>
      <point x="225" y="450" type="line"/>
      <point x="25" y="450" type="line"/>
      <point x="25" y="220" type="line"/>
      <point x="25.0" y="45.0"/>
      <point x="114.0909090909091" y="0"/>
    </contour>
    <contour>
      <point x="580" y="320"/>
      <point x="505" y="385"/>
      <point x="360" y="385" type="curve"/>
      <point x="280" y="385"/>
      <point x="235" y="360"/>
      <point x="225" y="305" type="curve"/>
      <point x="225" y="200" type="line"/>
      <point x="225" y="230"/>
      <point x="245" y="235"/>
      <point x="300" y="235" type="curve" smooth="yes"/>
      <point x="355" y="235"/>
      <point x="380" y="230"/>
      <point x="380" y="205" type="curve"/>
      <point x="380" y="180"/>
      <point x="355" y="175"/>
      <point x="300" y="175" type="curve"/>
      <point x="300" y="0" type="line"/>
      <point x="330" y="0" type="line" smooth="yes"/>
      <point x="485.55555555555554" y="0"/>
      <point x="580.0" y="84.67391304347825"/>
      <point x="580" y="205" type="curve"/>
    </contour>
    <contour>
      <point x="330" y="700" type="curve" smooth="yes"/>
      <point x="300" y="700" type="line"/>
      <point x="300" y="500" type="line"/>
      <point x="355.0" y="500.0"/>
      <point x="375" y="490"/>
      <point x="375" y="460" type="curve" smooth="yes"/>
      <point x="375" y="430" type="line"/>
      <point x="575" y="430" type="line"/>
      <point x="575" y="480" type="line"/>
      <point x="575.0" y="630.0"/>
      <point x="485.9090909090909" y="700"/>
    </contour>
    <contour>
      <point x="25" y="455" type="curve"/>
      <point x="25" y="390" type="line"/>
      <point x="225" y="365" type="line"/>
      <point x="225" y="460" type="line"/>
      <point x="225.0" y="490.0"/>
      <point x="240.0" y="500.0"/>
      <point x="300" y="500" type="curve"/>
      <point x="300" y="700" type="line"/>
      <point x="270" y="700" type="line" smooth="yes"/>
      <point x="114.0909090909091" y="700"/>
      <point x="25.0" y="630.0"/>
    </contour>
  </outline>
</glyph>
<glyph name="seven" format="1">
  <advance width="600"/>
  <unicode hex="0037"/>
  <outline>
    <contour>
      <point x="100" y="150" type="line"/>
      <point x="500" y="150" type="line"/>
      <point x="500" y="350" type="line"/>
      <point x="100" y="350" type="line"/>
    </contour>
    <contour>
      <point x="400" y="0" type="line"/>
      <point x="400" y="250" type="line"/>
      <point x="200" y="250" type="line"/>
      <point x="200" y="0" type="line"/>
    </contour>
    <contour>
      <point x="400" y="350" type="line"/>
      <point x="409.9768022528378" y="424.8260168962833"/>
      <point x="439.87428550998163" y="453.7591207376796"/>
      <point x="550" y="530" type="curve"/>
      <point x="550" y="700" type="line"/>
      <point x="50" y="700" type="line"/>
      <point x="50" y="500" type="line"/>
      <point x="210" y="500" type="line"/>
      <point x="290" y="505" type="line"/>
      <point x="225" y="450"/>
      <point x="205" y="410"/>
      <point x="200" y="350" type="curve"/>
    </contour>
  </outline>
</glyph>
<glyph name="eight" format="1">
  <advance width="600"/>
  <unicode hex="0038"/>
  <outline>
    <contour>
      <point x="575" y="505" type="curve"/>
      <point x="575" y="515" type="line"/>
      <point x="575" y="640"/>
      <point x="500" y="710"/>
      <point x="300" y="710" type="curve"/>
      <point x="300" y="520" type="line"/>
      <point x="360" y="520"/>
      <point x="375" y="515"/>
      <point x="375" y="490" type="curve"/>
      <point x="375" y="465"/>
      <point x="360" y="460"/>
      <point x="300" y="460" type="curve"/>
      <point x="300" y="370" type="line"/>
      <point x="500" y="370"/>
      <point x="575" y="400"/>
    </contour>
    <contour>
      <point x="575" y="245" type="curve"/>
      <point x="575" y="270" type="line"/>
      <point x="575" y="370"/>
      <point x="500" y="410"/>
      <point x="300" y="410" type="curve"/>
      <point x="300" y="460" type="line"/>
      <point x="300" y="320" type="line"/>
      <point x="360" y="320"/>
      <point x="375" y="310"/>
      <point x="375" y="270" type="curve"/>
      <point x="375" y="240" type="line"/>
      <point x="375" y="210"/>
      <point x="360" y="200"/>
      <point x="300" y="200" type="curve"/>
      <point x="300" y="0" type="line"/>
      <point x="330" y="0" type="line" smooth="yes"/>
      <point x="485" y="0"/>
      <point x="575" y="70"/>
    </contour>
    <contour>
      <point x="25" y="505" type="line"/>
      <point x="25" y="400"/>
      <point x="100" y="370"/>
      <point x="300" y="370" type="curve"/>
      <point x="300" y="460" type="line"/>
      <point x="240" y="460"/>
      <point x="225" y="465"/>
      <point x="225" y="490" type="curve"/>
      <point x="225" y="515"/>
      <point x="240" y="520"/>
      <point x="300" y="520" type="curve"/>
      <point x="300" y="710" type="line"/>
      <point x="100" y="710"/>
      <point x="25" y="640"/>
      <point x="25" y="515" type="curve"/>
    </contour>
    <contour>
      <point x="25" y="245" type="line"/>
      <point x="25" y="70"/>
      <point x="115" y="0"/>
      <point x="270" y="0" type="curve" smooth="yes"/>
      <point x="300" y="0" type="line"/>
      <point x="300" y="200" type="line"/>
      <point x="240" y="200"/>
      <point x="225" y="210"/>
      <point x="225" y="240" type="curve"/>
      <point x="225" y="270" type="line"/>
      <point x="225" y="310"/>
      <point x="240" y="320"/>
      <point x="300" y="320" type="curve"/>
      <point x="300" y="460" type="line"/>
      <point x="300" y="410" type="line"/>
      <point x="100" y="410"/>
      <point x="25" y="370"/>
      <point x="25" y="270" type="curve"/>
    </contour>
  </outline>
</glyph>
<glyph name="less" format="1">
  <advance width="400"/>
  <unicode hex="003C"/>
  <outline>
    <contour>
      <point x="10" y="240" type="line"/>
      <point x="195" y="0" type="line"/>
      <point x="375" y="0" type="line"/>
      <point x="375" y="15" type="line"/>
      <point x="210" y="220" type="line"/>
      <point x="175" y="250" type="line"/>
      <point x="10" y="260" type="line"/>
    </contour>
    <contour>
      <point x="10" y="260" type="line"/>
      <point x="10" y="240" type="line"/>
      <point x="175" y="250" type="line"/>
      <point x="210" y="280" type="line"/>
      <point x="375" y="485" type="line"/>
      <point x="375" y="500" type="line"/>
      <point x="195" y="500" type="line"/>
    </contour>
  </outline>
</glyph>
<glyph name="question" format="1">
  <advance width="450"/>
  <unicode hex="003F"/>
  <outline>
    <contour>
      <point x="150" y="280" type="curve" smooth="yes"/>
      <point x="160" y="225" type="line"/>
      <point x="290" y="225" type="line"/>
      <point x="305" y="280" type="line" smooth="yes"/>
      <point x="334.8514842363175" y="389.45544219983077"/>
      <point x="430.0" y="435.0"/>
      <point x="430" y="550" type="curve"/>
      <point x="430.0" y="650.0"/>
      <point x="373.05555555555554" y="710.0"/>
      <point x="225" y="710" type="curve" smooth="yes"/>
      <point x="99.28571428571429" y="710.0"/>
      <point x="25.0" y="660.0"/>
      <point x="25" y="560" type="curve"/>
      <point x="25" y="500" type="line"/>
      <point x="200" y="500" type="line"/>
      <point x="200" y="520" type="line"/>
      <point x="200.0" y="542.5"/>
      <point x="205.0" y="550.0"/>
      <point x="225" y="550" type="curve" smooth="yes"/>
      <point x="245.0" y="550.0"/>
      <point x="255.0" y="543.3333333333334"/>
      <point x="255" y="530" type="curve"/>
      <point x="255.0" y="485.0"/>
      <point x="126.2253888998371" y="410.76036105089594"/>
    </contour>
    <component base="period" xOffset="100"/>
  </outline>
</glyph>
<glyph name="A" format="1">
  <advance width="600"/>
  <unicode hex="0041"/>
  <outline>
    <contour>
      <point x="525" y="150" type="line"/>
      <point x="525" y="325" type="line"/>
      <point x="75" y="325" type="line"/>
      <point x="75" y="150" type="line"/>
    </contour>
    <contour>
      <point x="225" y="700" type="line"/>
      <point x="65" y="585"/>
      <point x="25" y="450"/>
      <point x="25" y="250" type="curve" smooth="yes"/>
      <point x="25" y="0" type="line"/>
      <point x="225" y="0" type="line"/>
      <point x="225" y="250" type="line" smooth="yes"/>
      <point x="225" y="446.0"/>
      <point x="268.004448" y="502.002965334"/>
      <point x="415" y="600" type="curve"/>
    </contour>
    <contour>
      <point x="375" y="700" type="curve"/>
      <point x="225" y="700" type="line"/>
      <point x="185" y="600" type="line"/>
      <point x="331.995552" y="502.002965334"/>
      <point x="375" y="446.0"/>
      <point x="375" y="250" type="curve" smooth="yes"/>
      <point x="375" y="0" type="line"/>
      <point x="575" y="0" type="line"/>
      <point x="575" y="250" type="line" smooth="yes"/>
      <point x="575" y="450"/>
      <point x="535" y="585"/>
    </contour>
    <contour>
      <point x="300.0" y="650.0" type="move" name="top"/>
    </contour>
  </outline>
</glyph>
<glyph name="B" format="1">
  <advance width="600"/>
  <unicode hex="0042"/>
  <outline>
    <contour>
      <point x="330" y="0" type="line" smooth="yes"/>
      <point x="489.090909091" y="0"/>
      <point x="580" y="65.0"/>
      <point x="580" y="195" type="curve" smooth="yes"/>
      <point x="580" y="225" type="line"/>
      <point x="375" y="245" type="line"/>
      <point x="375" y="235" type="line" smooth="yes"/>
      <point x="375" y="195.0"/>
      <point x="365.0" y="175.0"/>
      <point x="300" y="175" type="curve"/>
      <point x="110" y="175" type="line"/>
      <point x="110" y="0" type="line"/>
    </contour>
    <contour>
      <point x="355" y="700" type="curve" smooth="yes"/>
      <point x="110" y="700" type="line"/>
      <point x="110" y="525" type="line"/>
      <point x="325" y="525" type="line"/>
      <point x="355.0" y="525.0"/>
      <point x="365.0" y="511.666666667"/>
      <point x="365" y="485" type="curve"/>
      <point x="565" y="505" type="line"/>
      <point x="565" y="630"/>
      <point x="485.540540541" y="700"/>
    </contour>
    <contour>
      <point x="225" y="0" type="line"/>
      <point x="225" y="700" type="line"/>
      <point x="25" y="700" type="line"/>
      <point x="25" y="0" type="line"/>
    </contour>
    <contour>
      <point x="450" y="365" type="line"/>
      <point x="531.917825219" y="390.205484683"/>
      <point x="565.0" y="442.777777778"/>
      <point x="565" y="505" type="curve"/>
      <point x="365" y="485" type="line"/>
      <point x="365.0" y="456.363636364"/>
      <point x="357.0" y="440.0"/>
      <point x="325" y="440" type="curve"/>
      <point x="110" y="440" type="line"/>
      <point x="100" y="310" type="line"/>
      <point x="300" y="310" type="line"/>
      <point x="363.75" y="310.0"/>
      <point x="375" y="290.357142857"/>
      <point x="375" y="255" type="curve" smooth="yes"/>
      <point x="375" y="245" type="line"/>
      <point x="580" y="225" type="line"/>
      <point x="580" y="240" type="line" smooth="yes"/>
      <point x="580" y="315.0"/>
      <point x="540.180739926" y="360.67555573"/>
      <point x="450" y="380" type="curve"/>
    </contour>
  </outline>
</glyph>
<glyph name="C" format="1">
  <advance width="600"/>
  <unicode hex="0043"/>
  <outline>
    <contour>
      <point x="330" y="0" type="line" smooth="yes"/>
      <point x="485.909090909" y="0"/>
      <point x="575.0" y="70.0"/>
      <point x="575" y="220" type="curve"/>
      <point x="575" y="300" type="line"/>
      <point x="375" y="300" type="line"/>
      <point x="375" y="265" type="line" smooth="yes"/>
      <point x="375" y="215"/>
      <point x="355" y="200"/>
      <point x="300" y="200" type="curve"/>
      <point x="300" y="0" type="line"/>
    </contour>
    <contour>
      <point x="270" y="0" type="curve" smooth="yes"/>
      <point x="300" y="0" type="line"/>
      <point x="300" y="200" type="line"/>
      <point x="240" y="200"/>
      <point x="225" y="215"/>
      <point x="225" y="265" type="curve" smooth="yes"/>
      <point x="225" y="350" type="line"/>
      <point x="25" y="350" type="line"/>
      <point x="25" y="245" type="line"/>
      <point x="25.0" y="70.0"/>
      <point x="114.090909091" y="0"/>
    </contour>
    <contour>
      <point x="330" y="700" type="curve" smooth="yes"/>
      <point x="300" y="700" type="line"/>
      <point x="300" y="500" type="line"/>
      <point x="355" y="500"/>
      <point x="375" y="485"/>
      <point x="375" y="435" type="curve" smooth="yes"/>
      <point x="375" y="400" type="line"/>
      <point x="575" y="400" type="line"/>
      <point x="575" y="480" type="line"/>
      <point x="575.0" y="630.0"/>
      <point x="485.909090909" y="700"/>
    </contour>
    <contour>
      <point x="270" y="700" type="line" smooth="yes"/>
      <point x="114.090909091" y="700"/>
      <point x="25.0" y="630.0"/>
      <point x="25" y="455" type="curve"/>
      <point x="25" y="350" type="line"/>
      <point x="225" y="350" type="line"/>
      <point x="225" y="435" type="line" smooth="yes"/>
      <point x="225" y="485"/>
      <point x="240" y="500"/>
      <point x="300" y="500" type="curve"/>
      <point x="300" y="700" type="line"/>
    </contour>
  </outline>
</glyph>
<glyph name="E" format="1">
  <advance width="600"/>
  <unicode hex="0045"/>
  <outline>
    <contour>
      <point x="25" y="0" type="line"/>
      <point x="225" y="0" type="line"/>
      <point x="225" y="700" type="line"/>
      <point x="25" y="700" type="line"/>
    </contour>
    <contour>
      <point x="100" y="0" type="line"/>
      <point x="575" y="0" type="line"/>
      <point x="575" y="200" type="line"/>
      <point x="100" y="200" type="line"/>
    </contour>
    <contour>
      <point x="100" y="500" type="line"/>
      <point x="575" y="500" type="line"/>
      <point x="575" y="700" type="line"/>
      <point x="100" y="700" type="line"/>
    </contour>
    <contour>
      <point x="100" y="250" type="line"/>
      <point x="525" y="250" type="line"/>
      <point x="525" y="425" type="line"/>
      <point x="100" y="425" type="line"/>
    </contour>
    <contour>
      <point x="315.0" y="650.0" type="move" name="top"/>
    </contour>
  </outline>
</glyph>
<glyph name="F" format="1">
  <advance width="600"/>
  <unicode hex="0046"/>
  <outline>
    <contour>
      <point x="25" y="0" type="line"/>
      <point x="225" y="0" type="line"/>
      <point x="225" y="700" type="line"/>
      <point x="25" y="700" type="line"/>
    </contour>
    <contour>
      <point x="100" y="500" type="line"/>
      <point x="575" y="500" type="line"/>
      <point x="575" y="700" type="line"/>
      <point x="100" y="700" type="line"/>
    </contour>
    <contour>
      <point x="100" y="175" type="line"/>
      <point x="525" y="175" type="line"/>
      <point x="525" y="375" type="line"/>
      <point x="100" y="375" type="line"/>
    </contour>
  </outline>
</glyph>
<glyph name="G" format="1">
  <advance width="600"/>
  <unicode hex="0047"/>
  <outline>
    <contour>
      <point x="275" y="225" type="line"/>
      <point x="580" y="225" type="line"/>
      <point x="580" y="400" type="line"/>
      <point x="275" y="400" type="line"/>
    </contour>
    <contour>
      <point x="565" y="225" type="line"/>
      <point x="375" y="225" type="line"/>
      <point x="375" y="80" type="line"/>
      <point x="385" y="0" type="line"/>
      <point x="575" y="0" type="line"/>
      <point x="575" y="100" type="line"/>
    </contour>
    <contour>
      <point x="225" y="265" type="curve"/>
      <point x="225" y="375" type="line"/>
      <point x="25" y="350" type="line"/>
      <point x="25" y="210" type="line"/>
      <point x="25.0" y="50.0"/>
      <point x="92.8947368421" y="-10.0"/>
      <point x="240" y="-10" type="curve"/>
      <point x="320.15625" y="-10.0"/>
      <point x="365.046200474" y="25.254102608"/>
      <point x="375" y="80" type="curve"/>
      <point x="375" y="225" type="line"/>
      <point x="375" y="200"/>
      <point x="355" y="190"/>
      <point x="300" y="190" type="curve" smooth="yes"/>
      <point x="250" y="190"/>
      <point x="225" y="215"/>
    </contour>
    <contour>
      <point x="330" y="700" type="curve" smooth="yes"/>
      <point x="300" y="700" type="line"/>
      <point x="300" y="500" type="line"/>
      <point x="355" y="500"/>
      <point x="375" y="485"/>
      <point x="375" y="435" type="curve" smooth="yes"/>
      <point x="375" y="425" type="line"/>
      <point x="575" y="425" type="line"/>
      <point x="575" y="480" type="line"/>
      <point x="575" y="630"/>
      <point x="485" y="700"/>
    </contour>
    <contour>
      <point x="270" y="700" type="line" smooth="yes"/>
      <point x="115" y="700"/>
      <point x="25" y="630"/>
      <point x="25" y="455" type="curve"/>
      <point x="25" y="350" type="line"/>
      <point x="225" y="375" type="line"/>
      <point x="225" y="435" type="line" smooth="yes"/>
      <point x="225" y="485"/>
      <point x="240" y="500"/>
      <point x="300" y="500" type="curve"/>
      <point x="300" y="700" type="line"/>
    </contour>
  </outline>
</glyph>
<glyph name="H" format="1">
  <advance width="600"/>
  <unicode hex="0048"/>
  <outline>
    <contour>
      <point x="25" y="0" type="line"/>
      <point x="225" y="0" type="line"/>
      <point x="225" y="700" type="line"/>
      <point x="25" y="700" type="line"/>
    </contour>
    <contour>
      <point x="100" y="300" type="line"/>
      <point x="500" y="300" type="line"/>
      <point x="500" y="500" type="line"/>
      <point x="100" y="500" type="line"/>
    </contour>
    <contour>
      <point x="375" y="0" type="line"/>
      <point x="575" y="0" type="line"/>
      <point x="575" y="700" type="line"/>
      <point x="375" y="700" type="line"/>
    </contour>
  </outline>
</glyph>
<glyph name="I" format="1">
  <advance width="250"/>
  <unicode hex="0049"/>
  <outline>
    <contour>
      <point x="25" y="0" type="line"/>
      <point x="225" y="0" type="line"/>
      <point x="225" y="700" type="line"/>
      <point x="25" y="700" type="line"/>
    </contour>
    <contour>
      <point x="125" y="650" type="move" name="top"/>
    </contour>
    <contour>
      <point x="125" y="650" type="move" name="top"/>
    </contour>
  </outline>
</glyph>
<glyph name="J" format="1">
  <advance width="500"/>
  <unicode hex="004A"/>
  <outline>
    <contour>
      <point x="25" y="180" type="line"/>
      <point x="25.0" y="40.0"/>
      <point x="92.5" y="-10.0"/>
      <point x="250" y="-10" type="curve" smooth="yes"/>
      <point x="396.25" y="-10.0"/>
      <point x="475.0" y="50.0"/>
      <point x="475" y="190" type="curve"/>
      <point x="475" y="700" type="line"/>
      <point x="275" y="700" type="line"/>
      <point x="275" y="215" type="line" smooth="yes"/>
      <point x="275" y="196.25"/>
      <point x="265.0" y="190.0"/>
      <point x="250" y="190" type="curve" smooth="yes"/>
      <point x="235.0" y="190.0"/>
      <point x="225.0" y="195.71428571428572"/>
      <point x="225" y="210" type="curve"/>
      <point x="225" y="250" type="line"/>
      <point x="25" y="250" type="line"/>
    </contour>
  </outline>
</glyph>
<glyph name="K" format="1">
  <advance width="600"/>
  <unicode hex="004B"/>
  <outline>
    <contour>
      <point x="470" y="275" type="line"/>
      <point x="530" y="300"/>
      <point x="550" y="375"/>
      <point x="555" y="450" type="curve" smooth="yes"/>
      <point x="575" y="700" type="line"/>
      <point x="375" y="700" type="line"/>
      <point x="355" y="450" type="line" smooth="yes"/>
      <point x="349.599219834" y="382.490247923"/>
      <point x="340" y="365"/>
      <point x="280" y="365" type="curve"/>
      <point x="225" y="365" type="line"/>
      <point x="225" y="700" type="line"/>
      <point x="25" y="700" type="line"/>
      <point x="25" y="0" type="line"/>
      <point x="225" y="0" type="line"/>
      <point x="225" y="190" type="line"/>
      <point x="300" y="190" type="line"/>
      <point x="360" y="190"/>
      <point x="367.749616543" y="172.503834572"/>
      <point x="375" y="100" type="curve" smooth="yes"/>
      <point x="385" y="0" type="line"/>
      <point x="585" y="0" type="line"/>
      <point x="575" y="100" type="line" smooth="yes"/>
      <point x="565" y="185"/>
      <point x="535" y="270"/>
      <point x="470" y="295" type="curve"/>
    </contour>
  </outline>
</glyph>
<glyph name="L" format="1">
  <advance width="400"/>
  <unicode hex="004C"/>
  <outline>
    <contour>
      <point x="25" y="700" type="line"/>
      <point x="25" y="0" type="line"/>
      <point x="225" y="0" type="line"/>
      <point x="225" y="700" type="line"/>
    </contour>
    <contour>
      <point x="100" y="200" type="line"/>
      <point x="100" y="0" type="line"/>
      <point x="400" y="0" type="line"/>
      <point x="400" y="200" type="line"/>
    </contour>
  </outline>
</glyph>
<glyph name="M" format="1">
  <advance width="800"/>
  <unicode hex="004D"/>
  <outline>
    <contour>
      <point x="25" y="0" type="line"/>
      <point x="225" y="0" type="line"/>
      <point x="225" y="175" type="line"/>
      <point x="190" y="555" type="line"/>
      <point x="195" y="700" type="line"/>
      <point x="25" y="700" type="line"/>
    </contour>
    <contour>
      <point x="65" y="565" type="line"/>
      <point x="250" y="240" type="line" smooth="yes"/>
      <point x="295" y="160"/>
      <point x="300" y="140"/>
      <point x="300" y="50" type="curve" smooth="yes"/>
      <point x="300" y="0" type="line"/>
      <point x="500" y="0" type="line"/>
      <point x="490" y="65" type="line" smooth="yes"/>
      <point x="475" y="155"/>
      <point x="420" y="325"/>
      <point x="315" y="500" type="curve" smooth="yes"/>
      <point x="195" y="700" type="line"/>
    </contour>
    <contour>
      <point x="775" y="0" type="line"/>
      <point x="775" y="700" type="line"/>
      <point x="605" y="700" type="line"/>
      <point x="610" y="555" type="line"/>
      <point x="575" y="175" type="line"/>
      <point x="575" y="0" type="line"/>
    </contour>
    <contour>
      <point x="735" y="565" type="line"/>
      <point x="605" y="700" type="line"/>
      <point x="485" y="500" type="line" smooth="yes"/>
      <point x="380" y="325"/>
      <point x="325" y="155"/>
      <point x="310" y="65" type="curve" smooth="yes"/>
      <point x="300" y="0" type="line"/>
      <point x="500" y="0" type="line"/>
      <point x="500" y="50" type="line" smooth="yes"/>
      <point x="500" y="140"/>
      <point x="505" y="160"/>
      <point x="550" y="240" type="curve" smooth="yes"/>
    </contour>
  </outline>
</glyph>
<glyph name="N" format="1">
  <advance width="600"/>
  <unicode hex="004E"/>
  <outline>
    <contour>
      <point x="385" y="0" type="line"/>
      <point x="575" y="0" type="line"/>
      <point x="575" y="700" type="line"/>
      <point x="375" y="700" type="line"/>
      <point x="375" y="500" type="line"/>
      <point x="380" y="415" type="line"/>
      <point x="215" y="700" type="line"/>
      <point x="25" y="700" type="line"/>
      <point x="25" y="0" type="line"/>
      <point x="225" y="0" type="line"/>
      <point x="225" y="200" type="line"/>
      <point x="220" y="285" type="line"/>
    </contour>
    <contour>
      <point x="300.0" y="650.0" type="move" name="top"/>
    </contour>
  </outline>
</glyph>
<glyph name="P" format="1">
  <advance width="600"/>
  <unicode hex="0050"/>
  <outline>
    <contour>
      <point x="225" y="700" type="line"/>
      <point x="25" y="700" type="line"/>
      <point x="25" y="0" type="line"/>
      <point x="225" y="0" type="line"/>
    </contour>
    <contour>
      <point x="330" y="150" type="line" smooth="yes"/>
      <point x="485.0" y="150"/>
      <point x="575.0" y="227.954545455"/>
      <point x="575" y="395" type="curve"/>
      <point x="575" y="425" type="line"/>
      <point x="375" y="425" type="line"/>
      <point x="375" y="415" type="line" smooth="yes"/>
      <point x="375" y="366.25"/>
      <point x="360.0" y="350.0"/>
      <point x="300" y="350" type="curve"/>
      <point x="110" y="350" type="line"/>
      <point x="110" y="150" type="line"/>
    </contour>
    <contour>
      <point x="330" y="700" type="curve" smooth="yes"/>
      <point x="110" y="700" type="line"/>
      <point x="110" y="500" type="line"/>
      <point x="300" y="500" type="line"/>
      <point x="360.0" y="500.0"/>
      <point x="375" y="483.75"/>
      <point x="375" y="435" type="curve" smooth="yes"/>
      <point x="375" y="425" type="line"/>
      <point x="575" y="425" type="line"/>
      <point x="575" y="455" type="line"/>
      <point x="575.0" y="622.045454545"/>
      <point x="485.909090909" y="700"/>
    </contour>
  </outline>
</glyph>
<glyph name="Q" format="1">
  <advance width="600"/>
  <unicode hex="0051"/>
  <outline>
    <contour>
      <point x="270" y="0" type="curve" smooth="yes"/>
      <point x="300" y="0" type="line"/>
      <point x="300" y="175" type="line"/>
      <point x="240" y="175"/>
      <point x="225" y="195"/>
      <point x="225" y="265" type="curve" smooth="yes"/>
      <point x="225" y="350" type="line"/>
      <point x="25" y="350" type="line"/>
      <point x="25" y="245" type="line"/>
      <point x="25" y="70"/>
      <point x="115" y="0"/>
    </contour>
    <contour>
      <point x="270" y="700" type="line" smooth="yes"/>
      <point x="115" y="700"/>
      <point x="25" y="630"/>
      <point x="25" y="455" type="curve"/>
      <point x="25" y="350" type="line"/>
      <point x="225" y="350" type="line"/>
      <point x="225" y="435" type="line" smooth="yes"/>
      <point x="225" y="485"/>
      <point x="240" y="500"/>
      <point x="300" y="500" type="curve"/>
      <point x="300" y="700" type="line"/>
    </contour>
    <contour>
      <point x="330" y="0" type="line" smooth="yes"/>
      <point x="485" y="0"/>
      <point x="575" y="70"/>
      <point x="575" y="245" type="curve"/>
      <point x="575" y="350" type="line"/>
      <point x="375" y="350" type="line"/>
      <point x="375" y="265" type="line" smooth="yes"/>
      <point x="375" y="195"/>
      <point x="360" y="175"/>
      <point x="300" y="175" type="curve"/>
      <point x="300" y="0" type="line"/>
    </contour>
    <contour>
      <point x="330" y="700" type="curve" smooth="yes"/>
      <point x="300" y="700" type="line"/>
      <point x="300" y="500" type="line"/>
      <point x="360" y="500"/>
      <point x="375" y="485"/>
      <point x="375" y="435" type="curve" smooth="yes"/>
      <point x="375" y="350" type="line"/>
      <point x="575" y="350" type="line"/>
      <point x="575" y="455" type="line"/>
      <point x="575" y="630"/>
      <point x="485" y="700"/>
    </contour>
    <contour>
      <point x="200" y="-50" type="line"/>
      <point x="400" y="-50" type="line"/>
      <point x="350" y="250" type="line"/>
      <point x="250" y="250" type="line"/>
    </contour>
    <contour>
      <point x="300.0" y="650.0" type="move" name="top"/>
    </contour>
  </outline>
</glyph>
<glyph name="R" format="1">
  <advance width="600"/>
  <unicode hex="0052"/>
  <outline>
    <contour>
      <point x="330" y="700" type="curve" smooth="yes"/>
      <point x="110" y="700" type="line"/>
      <point x="110" y="525" type="line"/>
      <point x="300" y="525" type="line"/>
      <point x="365" y="525"/>
      <point x="375" y="505"/>
      <point x="375" y="465" type="curve" smooth="yes"/>
      <point x="375" y="455" type="line"/>
      <point x="580" y="475" type="line"/>
      <point x="580" y="505" type="line" smooth="yes"/>
      <point x="580" y="635"/>
      <point x="490" y="700"/>
    </contour>
    <contour>
      <point x="225" y="700" type="line"/>
      <point x="25" y="700" type="line"/>
      <point x="25" y="0" type="line"/>
      <point x="225" y="0" type="line"/>
    </contour>
    <contour>
      <point x="450" y="315" type="curve"/>
      <point x="450" y="300" type="line"/>
      <point x="540.291293307" y="320.064731846"/>
      <point x="580" y="374.285714286"/>
      <point x="580" y="460" type="curve" smooth="yes"/>
      <point x="580" y="475" type="line"/>
      <point x="375" y="455" type="line"/>
      <point x="375" y="445" type="line" smooth="yes"/>
      <point x="375" y="410"/>
      <point x="365" y="390"/>
      <point x="300" y="390" type="curve"/>
      <point x="100" y="390" type="line"/>
      <point x="110" y="235" type="line"/>
      <point x="290" y="235" type="line"/>
      <point x="350.0" y="235.0"/>
      <point x="349.664787485" y="227.514093861"/>
      <point x="360" y="150" type="curve" smooth="yes"/>
      <point x="380" y="0" type="line"/>
      <point x="585" y="0" type="line"/>
      <point x="565" y="150" type="line" smooth="yes"/>
      <point x="555.430191708" y="221.773562193"/>
      <point x="534.313201673" y="280.282799311"/>
    </contour>
  </outline>
</glyph>
<glyph name="S" format="1">
  <advance width="600"/>
  <unicode hex="0053"/>
  <outline>
    <contour>
      <point x="380" y="225" type="curve"/>
      <point x="380.0" y="212.5"/>
      <point x="370.0" y="200.0"/>
      <point x="300" y="200" type="curve"/>
      <point x="245.0" y="200.0"/>
      <point x="225" y="203.75"/>
      <point x="225" y="230" type="curve" smooth="yes"/>
      <point x="225" y="250" type="line"/>
      <point x="25" y="250" type="line"/>
      <point x="25" y="220" type="line"/>
      <point x="25.0" y="70.0"/>
      <point x="114.090909091" y="0"/>
      <point x="270" y="0" type="curve" smooth="yes"/>
      <point x="300" y="0" type="line"/>
      <point x="503.137254902" y="0.0"/>
      <point x="580.0" y="70.0"/>
      <point x="580" y="210" type="curve"/>
      <point x="580.0" y="464.807692308"/>
      <point x="225.0" y="418.942307692"/>
      <point x="225" y="475" type="curve" smooth="yes"/>
      <point x="225.0" y="491.666666667"/>
      <point x="235.0" y="500.0"/>
      <point x="300" y="500" type="curve"/>
      <point x="355.0" y="500.0"/>
      <point x="375" y="496.25"/>
      <point x="375" y="470" type="curve" smooth="yes"/>
      <point x="375" y="450" type="line"/>
      <point x="575" y="450" type="line"/>
      <point x="575" y="480" type="line"/>
      <point x="575.0" y="630.0"/>
      <point x="485.909090909" y="700"/>
      <point x="330" y="700" type="curve" smooth="yes"/>
      <point x="300" y="700" type="line"/>
      <point x="102.0" y="700.0"/>
      <point x="25" y="630"/>
      <point x="25" y="490" type="curve" smooth="yes"/>
      <point x="25.0" y="235.192307692"/>
      <point x="380.0" y="281.057692308"/>
    </contour>
  </outline>
</glyph>
<glyph name="V" format="1">
  <advance width="600"/>
  <unicode hex="0056"/>
  <outline>
    <contour>
      <point x="225" y="0" type="curve"/>
      <point x="415" y="100" type="line"/>
      <point x="268.004448" y="197.997034666"/>
      <point x="225" y="254.0"/>
      <point x="225" y="450" type="curve" smooth="yes"/>
      <point x="225" y="700" type="line"/>
      <point x="25" y="700" type="line"/>
      <point x="25" y="450" type="line" smooth="yes"/>
      <point x="25" y="250"/>
      <point x="65" y="115"/>
    </contour>
    <contour>
      <point x="375" y="0" type="line"/>
      <point x="535" y="115"/>
      <point x="575" y="250"/>
      <point x="575" y="450" type="curve" smooth="yes"/>
      <point x="575" y="700" type="line"/>
      <point x="375" y="700" type="line"/>
      <point x="375" y="450" type="line" smooth="yes"/>
      <point x="375" y="254.0"/>
      <point x="331.995552" y="197.997034666"/>
      <point x="185" y="100" type="curve"/>
      <point x="225" y="0" type="line"/>
    </contour>
    <contour>
      <point x="300.0" y="50.0" type="move" name="top"/>
    </contour>
  </outline>
</glyph>
<glyph name="W" format="1">
  <advance width="800"/>
  <unicode hex="0057"/>
  <outline>
    <contour>
      <point x="190" y="0" type="curve"/>
      <point x="380" y="75" type="line"/>
      <point x="235" y="160"/>
      <point x="225" y="275"/>
      <point x="225" y="450" type="curve" smooth="yes"/>
      <point x="225" y="700" type="line"/>
      <point x="25" y="700" type="line"/>
      <point x="25" y="450" type="line" smooth="yes"/>
      <point x="25" y="280"/>
      <point x="45" y="90"/>
    </contour>
    <contour>
      <point x="610" y="0" type="line"/>
      <point x="755" y="90"/>
      <point x="775" y="280"/>
      <point x="775" y="450" type="curve" smooth="yes"/>
      <point x="775" y="700" type="line"/>
      <point x="575" y="700" type="line"/>
      <point x="575" y="450" type="line" smooth="yes"/>
      <point x="575" y="275"/>
      <point x="565" y="160"/>
      <point x="420" y="75" type="curve"/>
      <point x="460" y="0" type="line"/>
    </contour>
    <contour>
      <point x="460" y="0" type="curve"/>
      <point x="650" y="75" type="line"/>
      <point x="510" y="160"/>
      <point x="500" y="275"/>
      <point x="500" y="450" type="curve" smooth="yes"/>
      <point x="500" y="700" type="line"/>
      <point x="300" y="700" type="line"/>
      <point x="300" y="450" type="line" smooth="yes"/>
      <point x="300" y="275"/>
      <point x="290" y="160"/>
      <point x="150" y="75" type="curve"/>
      <point x="190" y="0" type="line"/>
      <point x="340" y="0" type="line"/>
      <point x="380" y="45"/>
      <point x="410" y="90"/>
      <point x="425" y="155" type="curve" smooth="yes"/>
      <point x="425" y="155"/>
      <point x="375" y="155"/>
      <point x="375" y="155" type="curve"/>
      <point x="390" y="90"/>
      <point x="420" y="45"/>
    </contour>
  </outline>
</glyph>
<glyph name="X" format="1">
  <advance width="600"/>
  <unicode hex="0058"/>
  <outline>
    <contour>
      <point x="255" y="305" type="curve"/>
      <point x="395" y="395" type="line"/>
      <point x="236.033029881" y="459.580331611"/>
      <point x="225" y="533.255813953"/>
      <point x="225" y="600" type="curve" smooth="yes"/>
      <point x="225" y="700" type="line"/>
      <point x="25" y="700" type="line"/>
      <point x="25" y="600" type="line" smooth="yes"/>
      <point x="25" y="500.0"/>
      <point x="85.0" y="355.0"/>
    </contour>
    <contour>
      <point x="345" y="305" type="line"/>
      <point x="515" y="355"/>
      <point x="575" y="500.0"/>
      <point x="575" y="600" type="curve" smooth="yes"/>
      <point x="575" y="700" type="line"/>
      <point x="375" y="700" type="line"/>
      <point x="375" y="600" type="line" smooth="yes"/>
      <point x="375" y="533.255813953"/>
      <point x="363.966970119" y="459.580331611"/>
      <point x="205" y="395" type="curve"/>
    </contour>
    <contour>
      <point x="255" y="405" type="line"/>
      <point x="85" y="355"/>
      <point x="25" y="200"/>
      <point x="25" y="100" type="curve" smooth="yes"/>
      <point x="25" y="0" type="line"/>
      <point x="225" y="0" type="line"/>
      <point x="225" y="100" type="line" smooth="yes"/>
      <point x="225" y="166.888888889"/>
      <point x="235.988022597" y="250.40138418"/>
      <point x="395" y="315" type="curve"/>
    </contour>
    <contour>
      <point x="345" y="405" type="curve"/>
      <point x="205" y="315" type="line"/>
      <point x="364.011977403" y="250.40138418"/>
      <point x="375" y="166.888888889"/>
      <point x="375" y="100" type="curve" smooth="yes"/>
      <point x="375" y="0" type="line"/>
      <point x="575" y="0" type="line"/>
      <point x="575" y="100" type="line" smooth="yes"/>
      <point x="575" y="200"/>
      <point x="515" y="355"/>
    </contour>
  </outline>
</glyph>
<glyph name="Y" format="1">
  <advance width="600"/>
  <unicode hex="0059"/>
  <outline>
    <contour>
      <point x="200" y="0" type="line"/>
      <point x="400" y="0" type="line"/>
      <point x="400" y="320" type="line"/>
      <point x="200" y="320" type="line"/>
    </contour>
    <contour>
      <point x="225" y="200" type="curve"/>
      <point x="415" y="275" type="line"/>
      <point x="265" y="375"/>
      <point x="225" y="450"/>
      <point x="225" y="600" type="curve" smooth="yes"/>
      <point x="225" y="700" type="line"/>
      <point x="25" y="700" type="line"/>
      <point x="25" y="600" type="line" smooth="yes"/>
      <point x="25" y="450"/>
      <point x="65" y="300"/>
    </contour>
    <contour>
      <point x="375" y="200" type="line"/>
      <point x="535" y="300"/>
      <point x="575" y="450"/>
      <point x="575" y="600" type="curve" smooth="yes"/>
      <point x="575" y="700" type="line"/>
      <point x="375" y="700" type="line"/>
      <point x="375" y="600" type="line" smooth="yes"/>
      <point x="375" y="450"/>
      <point x="335" y="375"/>
      <point x="185" y="275" type="curve"/>
      <point x="225" y="200" type="line"/>
    </contour>
    <contour>
      <point x="300.0" y="650.0" type="move" name="top"/>
    </contour>
  </outline>
</glyph>
<glyph name="Z" format="1">
  <advance width="600"/>
  <unicode hex="005A"/>
  <outline>
    <contour>
      <point x="575" y="0" type="line"/>
      <point x="575" y="200" type="line"/>
      <point x="400" y="200" type="line"/>
      <point x="285" y="190" type="line"/>
      <point x="575" y="510" type="line"/>
      <point x="575" y="700" type="line"/>
      <point x="25" y="700" type="line"/>
      <point x="25" y="500" type="line"/>
      <point x="200" y="500" type="line"/>
      <point x="310" y="510" type="line"/>
      <point x="25" y="190" type="line"/>
      <point x="25" y="0" type="line"/>
    </contour>
  </outline>
</glyph>
<glyph name="bracketleft" format="1">
  <advance width="250"/>
  <unicode hex="005B"/>
  <outline>
    <contour>
      <point x="25" y="700" type="line"/>
      <point x="25" y="-200" type="line"/>
      <point x="250" y="-200" type="line"/>
      <point x="250" y="-45" type="line"/>
      <point x="225" y="-45" type="line"/>
      <point x="225" y="545" type="line" smooth="yes"/>
      <point x="250" y="545" type="line"/>
      <point x="250" y="700" type="line"/>
    </contour>
  </outline>
</glyph>
<glyph name="underscore" format="1">
  <advance width="400"/>
  <unicode hex="005F"/>
  <outline>
    <contour>
      <point x="0" y="-10" type="line"/>
      <point x="0" y="-200" type="line"/>
      <point x="400" y="-200" type="line"/>
      <point x="400" y="-10" type="line"/>
    </contour>
  </outline>
</glyph>
<glyph name="grave" format="1">
  <advance width="200"/>
  <unicode hex="0060"/>
  <outline>
    <contour>
      <point x="180" y="550" type="line"/>
      <point x="140" y="700" type="line"/>
      <point x="5" y="700" type="line"/>
      <point x="5" y="625" type="line"/>
      <point x="75" y="550" type="line"/>
    </contour>
    <contour>
      <point x="122" y="500" type="move" name="_top"/>
    </contour>
  </outline>
</glyph>
<glyph name="a" format="1">
  <advance width="600"/>
  <unicode hex="0061"/>
  <outline>
    <contour>
      <point x="25" y="335" type="curve"/>
      <point x="25" y="315" type="line"/>
      <point x="225" y="315" type="line"/>
      <point x="225" y="325" type="line"/>
      <point x="225" y="345"/>
      <point x="240" y="355"/>
      <point x="300" y="355" type="curve" smooth="yes"/>
      <point x="365" y="355"/>
      <point x="375" y="350"/>
      <point x="375" y="310" type="curve" smooth="yes"/>
      <point x="375" y="220" type="line"/>
      <point x="575" y="250" type="line"/>
      <point x="575" y="330" type="line"/>
      <point x="575" y="440"/>
      <point x="500" y="510"/>
      <point x="300" y="510" type="curve" smooth="yes"/>
      <point x="90.0" y="510.0"/>
      <point x="25.0" y="451.666666667"/>
    </contour>
    <contour>
      <point x="575" y="250" type="line"/>
      <point x="375" y="250" type="line"/>
      <point x="375" y="115" type="line"/>
      <point x="380" y="80" type="line"/>
      <point x="395" y="0" type="line"/>
      <point x="575" y="0" type="line"/>
    </contour>
    <contour>
      <point x="15" y="135" type="curve"/>
      <point x="15.0" y="30.0"/>
      <point x="81.0714285714" y="-10.0"/>
      <point x="200" y="-10" type="curve"/>
      <point x="316.129032258" y="-10.0"/>
      <point x="369.944379448" y="24.6940869649"/>
      <point x="380" y="80" type="curve"/>
      <point x="375" y="150" type="line"/>
      <point x="375" y="135"/>
      <point x="360" y="120"/>
      <point x="275" y="120" type="curve"/>
      <point x="230" y="120"/>
      <point x="215" y="125"/>
      <point x="215" y="150" type="curve"/>
      <point x="215" y="175"/>
      <point x="230" y="180"/>
      <point x="275" y="180" type="curve"/>
      <point x="360" y="180"/>
      <point x="375" y="165"/>
      <point x="375" y="150" type="curve"/>
      <point x="380" y="215" type="line"/>
      <point x="369.901287762" y="260.44420507"/>
      <point x="326.346153846" y="285.0"/>
      <point x="225" y="285" type="curve"/>
      <point x="90.9574468085" y="285.0"/>
      <point x="15.0" y="240.0"/>
    </contour>
    <contour>
      <point x="275.0" y="500.0" type="move" name="top"/>
    </contour>
    <contour>
      <point x="300.0" y="500.0" type="move" name="top"/>
    </contour>
  </outline>
</glyph>
<glyph name="c" format="1">
  <advance width="600"/>
  <unicode hex="0063"/>
  <outline>
    <contour>
      <point x="575" y="190" type="curve"/>
      <point x="575" y="220" type="line"/>
      <point x="375" y="220" type="line"/>
      <point x="375" y="215" type="line"/>
      <point x="375.0" y="185.83333333333334"/>
      <point x="360.0" y="180.0"/>
      <point x="300" y="180" type="curve" smooth="yes"/>
      <point x="240" y="180"/>
      <point x="225" y="192.0"/>
      <point x="225" y="240" type="curve" smooth="yes"/>
      <point x="225" y="250" type="line"/>
      <point x="25" y="250" type="line"/>
      <point x="25" y="190" type="line"/>
      <point x="25.0" y="60.0"/>
      <point x="102.0" y="-10.0"/>
      <point x="300" y="-10" type="curve" smooth="yes"/>
      <point x="509.0" y="-10.0"/>
      <point x="575.0" y="41.28205128205127"/>
    </contour>
    <contour>
      <point x="575" y="310" type="line"/>
      <point x="575.0" y="458.71794871794873"/>
      <point x="510.0" y="510.0"/>
      <point x="300" y="510" type="curve" smooth="yes"/>
      <point x="100" y="510"/>
      <point x="25" y="440"/>
      <point x="25" y="310" type="curve"/>
      <point x="25" y="250" type="line"/>
      <point x="225" y="250" type="line"/>
      <point x="225" y="260" type="line" smooth="yes"/>
      <point x="225" y="310"/>
      <point x="240" y="320"/>
      <point x="300" y="320" type="curve" smooth="yes"/>
      <point x="360.0" y="320.0"/>
      <point x="375.0" y="314.1666666666667"/>
      <point x="375" y="285" type="curve"/>
      <point x="375" y="280" type="line"/>
      <point x="575" y="280" type="line"/>
    </contour>
  </outline>
</glyph>
<glyph name="e" format="1">
  <advance width="600"/>
  <unicode hex="0065"/>
  <outline>
    <contour>
      <point x="575" y="165" type="curve"/>
      <point x="575" y="175" type="line"/>
      <point x="375" y="175" type="line"/>
      <point x="375" y="165" type="line"/>
      <point x="375.0" y="147.142857143"/>
      <point x="360.0" y="140.0"/>
      <point x="300" y="140" type="curve" smooth="yes"/>
      <point x="240.0" y="140.0"/>
      <point x="225" y="151.111111111"/>
      <point x="225" y="190" type="curve" smooth="yes"/>
      <point x="225" y="250" type="line"/>
      <point x="25" y="250" type="line"/>
      <point x="25" y="190" type="line"/>
      <point x="25.0" y="60.0"/>
      <point x="100.0" y="-10.0"/>
      <point x="300" y="-10" type="curve" smooth="yes"/>
      <point x="510.0" y="-10.0"/>
      <point x="575.0" y="32.5675675676"/>
    </contour>
    <contour>
      <point x="575" y="315" type="line"/>
      <point x="575" y="460"/>
      <point x="510" y="510"/>
      <point x="300" y="510" type="curve" smooth="yes"/>
      <point x="100" y="510"/>
      <point x="25" y="440"/>
      <point x="25" y="310" type="curve"/>
      <point x="25" y="250" type="line"/>
      <point x="225" y="250" type="line"/>
      <point x="225" y="310" type="line" smooth="yes"/>
      <point x="225" y="348.888888889"/>
      <point x="240.0" y="360.0"/>
      <point x="300" y="360" type="curve" smooth="yes"/>
      <point x="360" y="360"/>
      <point x="375" y="350"/>
      <point x="375" y="315" type="curve"/>
      <point x="375" y="295" type="line"/>
      <point x="575" y="295" type="line"/>
    </contour>
    <contour>
      <point x="100" y="205" type="line"/>
      <point x="575" y="205" type="line"/>
      <point x="575" y="300" type="line"/>
      <point x="100" y="300" type="line"/>
    </contour>
    <contour>
      <point x="300.0" y="500.0" type="move" name="top"/>
    </contour>
  </outline>
</glyph>
<glyph name="f" format="1">
  <advance width="400"/>
  <unicode hex="0066"/>
  <outline>
    <contour>
      <point x="5" y="175" type="line"/>
      <point x="375" y="175" type="line"/>
      <point x="375" y="350" type="line"/>
      <point x="5" y="350" type="line"/>
    </contour>
    <contour>
      <point x="400" y="700" type="line"/>
      <point x="200" y="700" type="line"/>
      <point x="95.0" y="700.0"/>
      <point x="25.0" y="640.0"/>
      <point x="25" y="550" type="curve"/>
      <point x="25" y="415" type="line"/>
      <point x="35" y="330" type="line"/>
      <point x="35" y="190" type="line"/>
      <point x="25" y="95" type="line"/>
      <point x="25" y="0" type="line"/>
      <point x="225" y="0" type="line"/>
      <point x="225" y="450" type="line" smooth="yes"/>
      <point x="225" y="485"/>
      <point x="240" y="500"/>
      <point x="275" y="500" type="curve"/>
      <point x="400" y="500" type="line"/>
    </contour>
  </outline>
</glyph>
<glyph name="g" format="1">
  <advance width="600"/>
  <unicode hex="0067"/>
  <outline>
    <contour>
      <point x="295" y="-60" type="curve" smooth="yes"/>
      <point x="227.307692308" y="-60.0"/>
      <point x="215.0" y="-50.0"/>
      <point x="215" y="-20" type="curve" smooth="yes"/>
      <point x="215.0" y="10.0"/>
      <point x="235.454545455" y="30.0"/>
      <point x="290" y="30" type="curve"/>
      <point x="326.428571429" y="30.0"/>
      <point x="357.701679327" y="43.3770991585"/>
      <point x="375" y="65" type="curve"/>
      <point x="375" y="-10" type="line" smooth="yes"/>
      <point x="375" y="-50.0"/>
      <point x="358.157894737" y="-60.0"/>
    </contour>
    <contour>
      <point x="375" y="420" type="line"/>
      <point x="345" y="485"/>
      <point x="300.0" y="510.0"/>
      <point x="205" y="510" type="curve"/>
      <point x="90" y="510"/>
      <point x="25" y="440"/>
      <point x="25" y="290" type="curve"/>
      <point x="25" y="225" type="line"/>
      <point x="25.0" y="142.575757576"/>
      <point x="68.9055297396" y="91.9045219564"/>
      <point x="155" y="65" type="curve"/>
      <point x="160" y="90" type="line"/>
      <point x="68.8874881632" y="73.9213214406"/>
      <point x="15" y="30"/>
      <point x="15" y="-50" type="curve" smooth="yes"/>
      <point x="15" y="-160"/>
      <point x="85" y="-210"/>
      <point x="300" y="-210" type="curve" smooth="yes"/>
      <point x="500" y="-210"/>
      <point x="575" y="-140"/>
      <point x="575" y="-10" type="curve" smooth="yes"/>
      <point x="575" y="500" type="line"/>
      <point x="400" y="500" type="line"/>
    </contour>
    <contour>
      <point x="375" y="250" type="curve"/>
      <point x="375" y="215"/>
      <point x="355.0" y="190.0"/>
      <point x="300" y="190" type="curve" smooth="yes"/>
      <point x="245" y="190"/>
      <point x="225" y="215"/>
      <point x="225" y="250" type="curve"/>
      <point x="225" y="285"/>
      <point x="245" y="310"/>
      <point x="300" y="310" type="curve" smooth="yes"/>
      <point x="355" y="310"/>
      <point x="375" y="285"/>
    </contour>
    <contour>
      <point x="300.0" y="300.0" type="move" name="top"/>
    </contour>
    <contour>
      <point x="900.0" y="500.0" type="move" name="top"/>
    </contour>
  </outline>
</glyph>
<glyph name="i" format="1">
  <advance width="250"/>
  <unicode hex="0069"/>
  <outline>
    <contour>
      <point x="25" y="0" type="line"/>
      <point x="225" y="0" type="line"/>
      <point x="225" y="500" type="line"/>
      <point x="25" y="500" type="line"/>
    </contour>
    <contour>
      <point x="25" y="545" type="line"/>
      <point x="225" y="545" type="line"/>
      <point x="225" y="700" type="line"/>
      <point x="25" y="700" type="line"/>
    </contour>
  </outline>
</glyph>
<glyph name="j" format="1">
  <advance width="250"/>
  <unicode hex="006A"/>
  <outline>
    <contour>
      <point x="25" y="545" type="line"/>
      <point x="225" y="545" type="line"/>
      <point x="225" y="700" type="line"/>
      <point x="25" y="700" type="line"/>
    </contour>
    <component base="dotlessj"/>
  </outline>
</glyph>
<glyph name="k" format="1">
  <advance width="600"/>
  <unicode hex="006B"/>
  <outline>
    <contour>
      <point x="25" y="0" type="line"/>
      <point x="225" y="0" type="line"/>
      <point x="225" y="700" type="line"/>
      <point x="25" y="700" type="line"/>
    </contour>
    <contour>
      <point x="130" y="165" type="line"/>
      <point x="295" y="165" type="line"/>
      <point x="295" y="335" type="line"/>
      <point x="130" y="335" type="line"/>
    </contour>
    <contour>
      <point x="405" y="240" type="line"/>
      <point x="522.86008341" y="263.572016682"/>
      <point x="553.002572043" y="335.019290319"/>
      <point x="565" y="425" type="curve" smooth="yes"/>
      <point x="575" y="500" type="line"/>
      <point x="370" y="500" type="line"/>
      <point x="360" y="425" type="line" smooth="yes"/>
      <point x="350" y="345"/>
      <point x="345" y="335"/>
      <point x="285" y="335" type="curve"/>
      <point x="295" y="165" type="line"/>
    </contour>
    <contour>
      <point x="295" y="335" type="line"/>
      <point x="285" y="165" type="line"/>
      <point x="345" y="165"/>
      <point x="350" y="155"/>
      <point x="360" y="75" type="curve" smooth="yes"/>
      <point x="370" y="0" type="line"/>
      <point x="575" y="0" type="line"/>
      <point x="565" y="75" type="line" smooth="yes"/>
      <point x="553.002572043" y="164.980709681"/>
      <point x="522.86008341" y="236.427983318"/>
      <point x="405" y="260" type="curve"/>
    </contour>
  </outline>
</glyph>
<glyph name="l" format="1">
  <advance width="250"/>
  <unicode hex="006C"/>
  <outline>
    <contour>
      <point x="25" y="0" type="line"/>
      <point x="225" y="0" type="line"/>
      <point x="225" y="700" type="line"/>
      <point x="25" y="700" type="line"/>
    </contour>
  </outline>
</glyph>
<glyph name="m" format="1">
  <advance width="800"/>
  <unicode hex="006D"/>
  <outline>
    <contour>
      <point x="25" y="0" type="line"/>
      <point x="225" y="0" type="line"/>
      <point x="225" y="420" type="line" smooth="yes"/>
      <point x="215" y="500" type="line"/>
      <point x="25" y="500" type="line"/>
    </contour>
    <contour>
      <point x="500" y="245" type="line"/>
      <point x="500" y="290"/>
      <point x="510" y="310"/>
      <point x="540" y="310" type="curve" smooth="yes"/>
      <point x="565" y="310"/>
      <point x="575" y="295"/>
      <point x="575" y="245" type="curve"/>
      <point x="575" y="0" type="line"/>
      <point x="775" y="0" type="line"/>
      <point x="775" y="250" type="line"/>
      <point x="775" y="440"/>
      <point x="720" y="510"/>
      <point x="610" y="510" type="curve"/>
      <point x="540" y="510"/>
      <point x="490" y="485"/>
      <point x="470" y="420" type="curve"/>
      <point x="445" y="485"/>
      <point x="405.0" y="510.0"/>
      <point x="345" y="510" type="curve"/>
      <point x="275" y="510"/>
      <point x="230" y="475"/>
      <point x="225" y="420" type="curve"/>
      <point x="225" y="245" type="line"/>
      <point x="225" y="290"/>
      <point x="235" y="310"/>
      <point x="265" y="310" type="curve" smooth="yes"/>
      <point x="290" y="310"/>
      <point x="300" y="295"/>
      <point x="300" y="245" type="curve"/>
      <point x="300" y="0" type="line"/>
      <point x="500" y="0" type="line"/>
    </contour>
    <contour>
      <point x="275.0" y="500.0" type="move" name="top"/>
    </contour>
  </outline>
</glyph>
<glyph name="r" format="1">
  <advance width="400"/>
  <unicode hex="0072"/>
  <outline>
    <contour>
      <point x="25" y="0" type="line"/>
      <point x="225" y="0" type="line"/>
      <point x="225" y="420" type="line"/>
      <point x="200" y="500" type="line"/>
      <point x="25" y="500" type="line"/>
    </contour>
    <contour>
      <point x="225" y="420" type="curve"/>
      <point x="225" y="210" type="line"/>
      <point x="225" y="285"/>
      <point x="240" y="300"/>
      <point x="300" y="300" type="curve"/>
      <point x="375" y="300" type="line"/>
      <point x="375" y="500" type="line"/>
      <point x="330" y="500" type="line"/>
      <point x="260" y="500"/>
      <point x="240" y="475"/>
    </contour>
  </outline>
</glyph>
<glyph name="t" format="1">
  <advance width="400"/>
  <unicode hex="0074"/>
  <outline>
    <contour>
      <point x="380" y="200" type="line"/>
      <point x="285" y="200" type="line"/>
      <point x="255" y="200"/>
      <point x="225.0" y="208.0"/>
      <point x="225" y="240" type="curve"/>
      <point x="225" y="320" type="line"/>
      <point x="380" y="320" type="line"/>
      <point x="380" y="500" type="line"/>
      <point x="225" y="500" type="line"/>
      <point x="225" y="600" type="line"/>
      <point x="55" y="600" type="line"/>
      <point x="25" y="490" type="line"/>
      <point x="25" y="150" type="line"/>
      <point x="25.0" y="50.0"/>
      <point x="83.3333333333" y="0.0"/>
      <point x="200" y="0" type="curve"/>
      <point x="380" y="0" type="line"/>
    </contour>
  </outline>
</glyph>
<glyph name="v" format="1">
  <advance width="600"/>
  <unicode hex="0076"/>
  <outline>
    <contour>
      <point x="240" y="0" type="curve"/>
      <point x="380" y="125" type="line"/>
      <point x="255.466935767" y="206.425465075"/>
      <point x="225" y="273.076923077"/>
      <point x="225" y="400" type="curve" smooth="yes"/>
      <point x="225" y="500" type="line"/>
      <point x="25" y="500" type="line"/>
      <point x="25" y="400" type="line" smooth="yes"/>
      <point x="25" y="250.0"/>
      <point x="70.5388229412" y="106.518454151"/>
    </contour>
    <contour>
      <point x="360" y="0" type="line"/>
      <point x="529.461177059" y="106.518454151"/>
      <point x="575" y="250.0"/>
      <point x="575" y="400" type="curve" smooth="yes"/>
      <point x="575" y="500" type="line"/>
      <point x="375" y="500" type="line"/>
      <point x="375" y="400" type="line" smooth="yes"/>
      <point x="375" y="273.076923077"/>
      <point x="344.533064233" y="206.425465075"/>
      <point x="220" y="125" type="curve"/>
      <point x="240" y="0" type="line"/>
    </contour>
  </outline>
</glyph>
<glyph name="w" format="1">
  <advance width="800"/>
  <unicode hex="0077"/>
  <outline>
    <contour>
      <point x="205" y="0" type="curve"/>
      <point x="355" y="110" type="line"/>
      <point x="235" y="180"/>
      <point x="225" y="265"/>
      <point x="225" y="400" type="curve" smooth="yes"/>
      <point x="225" y="500" type="line"/>
      <point x="25" y="500" type="line"/>
      <point x="25" y="400" type="line" smooth="yes"/>
      <point x="25" y="250"/>
      <point x="55" y="90"/>
    </contour>
    <contour>
      <point x="595" y="0" type="line"/>
      <point x="744.114094259" y="91.3925093843"/>
      <point x="775" y="250.0"/>
      <point x="775" y="400" type="curve" smooth="yes"/>
      <point x="775" y="500" type="line"/>
      <point x="575" y="500" type="line"/>
      <point x="575" y="400" type="line" smooth="yes"/>
      <point x="575" y="266.153846154"/>
      <point x="566.695148111" y="180.988836398"/>
      <point x="445" y="110" type="curve"/>
      <point x="475" y="0" type="line"/>
    </contour>
    <contour>
      <point x="475" y="0" type="curve"/>
      <point x="625" y="110" type="line"/>
      <point x="505" y="180"/>
      <point x="495" y="265"/>
      <point x="495" y="400" type="curve" smooth="yes"/>
      <point x="495" y="500" type="line"/>
      <point x="305" y="500" type="line"/>
      <point x="305" y="400" type="line" smooth="yes"/>
      <point x="305" y="265"/>
      <point x="295" y="180"/>
      <point x="175" y="110" type="curve"/>
      <point x="205" y="0" type="line"/>
      <point x="325" y="0" type="line"/>
      <point x="363.881418517" y="45.3616549363"/>
      <point x="385" y="90"/>
      <point x="400" y="155" type="curve"/>
      <point x="415" y="90"/>
      <point x="436.118581483" y="45.3616549363"/>
    </contour>
  </outline>
</glyph>
<glyph name="x" format="1">
  <advance width="600"/>
  <unicode hex="0078"/>
  <outline>
    <contour>
      <point x="255" y="205" type="curve"/>
      <point x="395" y="300" type="line"/>
      <point x="235" y="360"/>
      <point x="225" y="380"/>
      <point x="225" y="450" type="curve" smooth="yes"/>
      <point x="225" y="500" type="line"/>
      <point x="25" y="500" type="line"/>
      <point x="25" y="450" type="line" smooth="yes"/>
      <point x="25" y="350"/>
      <point x="85" y="255"/>
    </contour>
    <contour>
      <point x="345" y="205" type="line"/>
      <point x="515" y="255"/>
      <point x="575" y="350"/>
      <point x="575" y="450" type="curve" smooth="yes"/>
      <point x="575" y="500" type="line"/>
      <point x="375" y="500" type="line"/>
      <point x="375" y="450" type="line" smooth="yes"/>
      <point x="375" y="380"/>
      <point x="365" y="360"/>
      <point x="205" y="300" type="curve"/>
    </contour>
    <contour>
      <point x="255" y="305" type="line"/>
      <point x="85" y="255"/>
      <point x="25" y="150"/>
      <point x="25" y="50" type="curve" smooth="yes"/>
      <point x="25" y="0" type="line"/>
      <point x="225" y="0" type="line"/>
      <point x="225" y="50" type="line" smooth="yes"/>
      <point x="225" y="120"/>
      <point x="235" y="155"/>
      <point x="395" y="215" type="curve"/>
    </contour>
    <contour>
      <point x="345" y="305" type="curve"/>
      <point x="205" y="215" type="line"/>
      <point x="365" y="155"/>
      <point x="375" y="120"/>
      <point x="375" y="50" type="curve" smooth="yes"/>
      <point x="375" y="0" type="line"/>
      <point x="575" y="0" type="line"/>
      <point x="575" y="50" type="line" smooth="yes"/>
      <point x="575" y="150"/>
      <point x="515" y="255"/>
    </contour>
  </outline>
</glyph>
<glyph name="y" format="1">
  <advance width="600"/>
  <unicode hex="0079"/>
  <outline>
    <contour>
      <point x="200" y="20" type="move"/>
      <point x="200" y="-200" type="line"/>
      <point x="400" y="-200" type="line"/>
      <point x="400" y="20" type="line"/>
    </contour>
    <contour>
      <point x="225" y="0" type="curve"/>
      <point x="415" y="100" type="line"/>
      <point x="265" y="200"/>
      <point x="225" y="250"/>
      <point x="225" y="400" type="curve" smooth="yes"/>
      <point x="225" y="500" type="line"/>
      <point x="25" y="500" type="line"/>
      <point x="25" y="400" type="line" smooth="yes"/>
      <point x="25" y="250"/>
      <point x="65" y="100"/>
    </contour>
    <contour>
      <point x="375" y="0" type="line"/>
      <point x="535" y="100"/>
      <point x="575" y="250"/>
      <point x="575" y="400" type="curve" smooth="yes"/>
      <point x="575" y="500" type="line"/>
      <point x="375" y="500" type="line"/>
      <point x="375" y="400" type="line" smooth="yes"/>
      <point x="375" y="250"/>
      <point x="335" y="200"/>
      <point x="185" y="100" type="curve"/>
      <point x="225" y="0" type="line"/>
    </contour>
    <contour>
      <point x="300.0" y="500.0" type="move" name="top"/>
    </contour>
  </outline>
</glyph>
<glyph name="z" format="1">
  <advance width="600"/>
  <unicode hex="007A"/>
  <outline>
    <contour>
      <point x="575" y="0" type="line"/>
      <point x="575" y="185" type="line"/>
      <point x="425" y="185" type="line"/>
      <point x="305" y="170" type="line"/>
      <point x="575" y="325" type="line"/>
      <point x="575" y="500" type="line"/>
      <point x="25" y="500" type="line"/>
      <point x="25" y="315" type="line"/>
      <point x="175" y="315" type="line"/>
      <point x="295" y="330" type="line"/>
      <point x="25" y="170" type="line"/>
      <point x="25" y="0" type="line"/>
    </contour>
  </outline>
</glyph>
<glyph name="braceleft" format="1">
  <advance width="250"/>
  <unicode hex="007B"/>
  <outline>
    <contour>
      <point x="25" y="375" type="line"/>
      <point x="25" y="335"/>
      <point x="20" y="320"/>
      <point x="0" y="315" type="curve"/>
      <point x="0" y="185" type="line"/>
      <point x="20" y="180"/>
      <point x="25" y="165"/>
      <point x="25" y="125" type="curve"/>
      <point x="225" y="150" type="line"/>
      <point x="225" y="210"/>
      <point x="205" y="240"/>
      <point x="175" y="250" type="curve"/>
      <point x="205" y="260"/>
      <point x="225" y="290"/>
      <point x="225" y="350" type="curve"/>
    </contour>
    <contour>
      <point x="250" y="-200" type="curve"/>
      <point x="270" y="-200" type="line"/>
      <point x="270" y="-50" type="line"/>
      <point x="250" y="-50" type="line"/>
      <point x="235" y="-50"/>
      <point x="225" y="-40"/>
      <point x="225" y="0" type="curve" smooth="yes"/>
      <point x="225" y="150" type="line"/>
      <point x="25" y="125" type="line"/>
      <point x="25" y="-25" type="line" smooth="yes"/>
      <point x="25" y="-140"/>
      <point x="103.75" y="-200.0"/>
    </contour>
    <contour>
      <point x="250" y="700" type="line"/>
      <point x="103.75" y="700.0"/>
      <point x="25" y="640"/>
      <point x="25" y="525" type="curve" smooth="yes"/>
      <point x="25" y="375" type="line"/>
      <point x="225" y="350" type="line"/>
      <point x="225" y="500" type="line" smooth="yes"/>
      <point x="225" y="540"/>
      <point x="235" y="550"/>
      <point x="250" y="550" type="curve"/>
      <point x="270" y="550" type="line"/>
      <point x="270" y="700" type="line"/>
    </contour>
  </outline>
</glyph>
<glyph name="bar" format="1">
  <advance width="250"/>
  <unicode hex="007C"/>
  <outline>
    <contour>
      <point x="25" y="0" type="line"/>
      <point x="225" y="0" type="line"/>
      <point x="225" y="700" type="line"/>
      <point x="25" y="700" type="line"/>
    </contour>
  </outline>
</glyph>
<glyph name="cent" format="1">
  <advance width="600"/>
  <unicode hex="00A2"/>
  <outline>
    <contour>
      <point x="225" y="-50" type="line"/>
      <point x="375" y="-50" type="line"/>
      <point x="375" y="40" type="line"/>
      <point x="350" y="85" type="line"/>
      <point x="350" y="405" type="line"/>
      <point x="375" y="455" type="line"/>
      <point x="375" y="550" type="line"/>
      <point x="225" y="550" type="line"/>
      <point x="225" y="455" type="line"/>
      <point x="260" y="390" type="line"/>
      <point x="260" y="90" type="line"/>
      <point x="225" y="40" type="line"/>
    </contour>
    <component base="c"/>
  </outline>
</glyph>
<glyph name="currency" format="1">
  <advance width="400"/>
  <unicode hex="00A4"/>
  <outline>
    <contour>
      <point x="265" y="350" type="curve"/>
      <point x="265" y="305"/>
      <point x="250" y="285"/>
      <point x="200" y="285" type="curve"/>
      <point x="155" y="285"/>
      <point x="135" y="305"/>
      <point x="135" y="350" type="curve"/>
      <point x="135" y="400"/>
      <point x="155" y="415"/>
      <point x="200" y="415" type="curve"/>
      <point x="250" y="415"/>
      <point x="265" y="400"/>
    </contour>
    <contour>
      <point x="350" y="350" type="curve"/>
      <point x="350" y="455"/>
      <point x="295" y="500"/>
      <point x="200" y="500" type="curve"/>
      <point x="105" y="500"/>
      <point x="50" y="455"/>
      <point x="50" y="350" type="curve"/>
      <point x="50" y="245"/>
      <point x="105" y="200"/>
      <point x="200" y="200" type="curve"/>
      <point x="295" y="200"/>
      <point x="350" y="245"/>
    </contour>
    <contour>
      <point x="85" y="305" type="line"/>
      <point x="0" y="220" type="line"/>
      <point x="70" y="150" type="line"/>
      <point x="155" y="235" type="line"/>
    </contour>
    <contour>
      <point x="400" y="480" type="line"/>
      <point x="330" y="550" type="line"/>
      <point x="235" y="455" type="line"/>
      <point x="305" y="385" type="line"/>
    </contour>
    <contour>
      <point x="315" y="305" type="line"/>
      <point x="245" y="235" type="line"/>
      <point x="330" y="150" type="line"/>
      <point x="400" y="220" type="line"/>
    </contour>
    <contour>
      <point x="0" y="480" type="line"/>
      <point x="95" y="385" type="line"/>
      <point x="165" y="455" type="line"/>
      <point x="70" y="550" type="line"/>
    </contour>
  </outline>
</glyph>
<glyph name="yen" format="1">
  <advance width="600"/>
  <unicode hex="00A5"/>
  <outline>
    <contour>
      <point x="580" y="175" type="line"/>
      <point x="580" y="300" type="line"/>
      <point x="520" y="300" type="line"/>
      <point x="445" y="285" type="line"/>
      <point x="485" y="305"/>
      <point x="505" y="345"/>
      <point x="515" y="375" type="curve"/>
      <point x="580" y="375" type="line"/>
      <point x="580" y="500" type="line"/>
      <point x="560" y="500" type="line"/>
      <point x="570" y="535"/>
      <point x="575" y="575"/>
      <point x="575" y="610" type="curve" smooth="yes"/>
      <point x="575" y="700" type="line"/>
      <point x="375" y="700" type="line"/>
      <point x="375" y="600" type="line" smooth="yes"/>
      <point x="375" y="496.27450980392155"/>
      <point x="362.14942915125977" y="427.36870383193207"/>
      <point x="300" y="370" type="curve"/>
      <point x="237.85057084874026" y="427.36870383193207"/>
      <point x="225" y="496.27450980392155"/>
      <point x="225" y="600" type="curve" smooth="yes"/>
      <point x="225" y="700" type="line"/>
      <point x="25" y="700" type="line"/>
      <point x="25" y="610" type="line" smooth="yes"/>
      <point x="25" y="575"/>
      <point x="30" y="535"/>
      <point x="40" y="500" type="curve"/>
      <point x="20" y="500" type="line"/>
      <point x="20" y="375" type="line"/>
      <point x="85" y="375" type="line"/>
      <point x="95" y="345"/>
      <point x="115" y="305"/>
      <point x="155" y="285" type="curve"/>
      <point x="80" y="300" type="line"/>
      <point x="20" y="300" type="line"/>
      <point x="20" y="175" type="line"/>
      <point x="200" y="175" type="line"/>
      <point x="200" y="0" type="line"/>
      <point x="400" y="0" type="line"/>
      <point x="400" y="175" type="line"/>
    </contour>
    <contour>
      <point x="300.0" y="650.0" type="move" name="top"/>
    </contour>
    <contour>
      <point x="300.0" y="650.0" type="move" name="top"/>
    </contour>
  </outline>
</glyph>
<glyph name="section" format="1">
  <advance width="600"/>
  <unicode hex="00A7"/>
  <outline>
    <contour>
      <point x="300" y="305" type="curve" smooth="yes"/>
      <point x="200" y="305"/>
      <point x="190" y="325"/>
      <point x="190" y="350" type="curve"/>
      <point x="190.0" y="375.0"/>
      <point x="200" y="395"/>
      <point x="300" y="395" type="curve" smooth="yes"/>
      <point x="405" y="395"/>
      <point x="410.0" y="375.0"/>
      <point x="410" y="350" type="curve"/>
      <point x="410" y="330"/>
      <point x="400" y="305"/>
    </contour>
    <contour>
      <point x="300" y="-10" type="curve" smooth="yes"/>
      <point x="480" y="-10"/>
      <point x="560" y="50"/>
      <point x="560" y="150" type="curve"/>
      <point x="560" y="205"/>
      <point x="545" y="245"/>
      <point x="495" y="270" type="curve"/>
      <point x="545" y="285"/>
      <point x="560" y="315"/>
      <point x="560" y="365" type="curve" smooth="yes"/>
      <point x="560" y="455"/>
      <point x="500" y="490"/>
      <point x="300" y="500" type="curve"/>
      <point x="200" y="505"/>
      <point x="190" y="515"/>
      <point x="190" y="535" type="curve" smooth="yes"/>
      <point x="190" y="555"/>
      <point x="210" y="560"/>
      <point x="300" y="560" type="curve" smooth="yes"/>
      <point x="380" y="560"/>
      <point x="400" y="555"/>
      <point x="400" y="540" type="curve"/>
      <point x="400" y="525" type="line"/>
      <point x="550" y="525" type="line"/>
      <point x="550" y="570" type="line"/>
      <point x="550" y="660"/>
      <point x="490" y="710"/>
      <point x="300" y="710" type="curve" smooth="yes"/>
      <point x="120" y="710"/>
      <point x="40" y="650"/>
      <point x="40" y="550" type="curve"/>
      <point x="40" y="495"/>
      <point x="55" y="455"/>
      <point x="105" y="430" type="curve"/>
      <point x="55" y="415"/>
      <point x="40" y="385"/>
      <point x="40" y="335" type="curve" smooth="yes"/>
      <point x="40" y="245"/>
      <point x="100" y="210"/>
      <point x="300" y="200" type="curve"/>
      <point x="400" y="195"/>
      <point x="410" y="185"/>
      <point x="410" y="165" type="curve" smooth="yes"/>
      <point x="410" y="145"/>
      <point x="390" y="140"/>
      <point x="300" y="140" type="curve" smooth="yes"/>
      <point x="220" y="140"/>
      <point x="200" y="145"/>
      <point x="200" y="160" type="curve"/>
      <point x="200" y="175" type="line"/>
      <point x="50" y="175" type="line"/>
      <point x="50" y="130" type="line"/>
      <point x="50" y="40"/>
      <point x="110" y="-10"/>
    </contour>
  </outline>
</glyph>
<glyph name="guillemotleft" format="1">
  <advance width="500"/>
  <unicode hex="00AB"/>
  <outline>
    <contour>
      <point x="0" y="250" type="line"/>
      <point x="165" y="250" type="line"/>
      <point x="265" y="400" type="line"/>
      <point x="100" y="400" type="line"/>
    </contour>
    <contour>
      <point x="0" y="250" type="line"/>
      <point x="100" y="100" type="line"/>
      <point x="265" y="100" type="line"/>
      <point x="165" y="250" type="line"/>
    </contour>
    <contour>
      <point x="225" y="250" type="line"/>
      <point x="390" y="250" type="line"/>
      <point x="490" y="400" type="line"/>
      <point x="325" y="400" type="line"/>
    </contour>
    <contour>
      <point x="225" y="250" type="line"/>
      <point x="325" y="100" type="line"/>
      <point x="490" y="100" type="line"/>
      <point x="390" y="250" type="line"/>
    </contour>
  </outline>
</glyph>
<glyph name="plusminus" format="1">
  <advance width="600"/>
  <unicode hex="00B1"/>
  <outline>
    <contour>
      <point x="550" y="100" type="line"/>
      <point x="550" y="250" type="line"/>
      <point x="420" y="250" type="line"/>
      <point x="370" y="245" type="line"/>
      <point x="375" y="295" type="line"/>
      <point x="375" y="305" type="line"/>
      <point x="370" y="355" type="line"/>
      <point x="420" y="350" type="line"/>
      <point x="550" y="350" type="line"/>
      <point x="550" y="500" type="line"/>
      <point x="420" y="500" type="line"/>
      <point x="370" y="495" type="line"/>
      <point x="375" y="545" type="line"/>
      <point x="375" y="700" type="line"/>
      <point x="225" y="700" type="line"/>
      <point x="225" y="545" type="line" smooth="yes"/>
      <point x="230" y="495" type="line"/>
      <point x="180" y="500" type="line"/>
      <point x="50" y="500" type="line"/>
      <point x="50" y="350" type="line"/>
      <point x="180" y="350" type="line" smooth="yes"/>
      <point x="230" y="355" type="line"/>
      <point x="225" y="305" type="line"/>
      <point x="225" y="295" type="line"/>
      <point x="230" y="245" type="line"/>
      <point x="180" y="250" type="line"/>
      <point x="50" y="250" type="line"/>
      <point x="50" y="100" type="line"/>
    </contour>
  </outline>
</glyph>
<glyph name="paragraph" format="1">
  <advance width="700"/>
  <unicode hex="00B6"/>
  <outline>
    <contour>
      <point x="240" y="-100" type="line"/>
      <point x="400" y="-100" type="line"/>
      <point x="400" y="700" type="line"/>
      <point x="240" y="700" type="line"/>
    </contour>
    <contour>
      <point x="290" y="550" type="line"/>
      <point x="690" y="550" type="line"/>
      <point x="690" y="700" type="line"/>
      <point x="290" y="700" type="line"/>
    </contour>
    <contour>
      <point x="490" y="-100" type="line"/>
      <point x="650" y="-100" type="line"/>
      <point x="650" y="700" type="line"/>
      <point x="490" y="700" type="line"/>
    </contour>
    <contour>
      <point x="30" y="550" type="curve"/>
      <point x="30" y="460"/>
      <point x="100" y="400"/>
      <point x="180" y="400" type="curve"/>
      <point x="295" y="400" type="line"/>
      <point x="265" y="600" type="line"/>
      <point x="445" y="600" type="line"/>
      <point x="445" y="700" type="line"/>
      <point x="180" y="700" type="line"/>
      <point x="100" y="700"/>
      <point x="30" y="640"/>
    </contour>
  </outline>
</glyph>
<glyph name="ordmasculine" format="1">
  <advance width="400"/>
  <unicode hex="00BA"/>
  <outline>
    <contour>
      <point x="50" y="200" type="line"/>
      <point x="350" y="200" type="line"/>
      <point x="350" y="350" type="line"/>
      <point x="50" y="350" type="line"/>
    </contour>
    <component base="degree"/>
  </outline>
</glyph>
<glyph name="AE" format="1">
  <advance width="950"/>
  <unicode hex="00C6"/>
  <outline>
    <contour>
      <point x="375" y="700" type="line"/>
      <point x="80" y="615"/>
      <point x="25" y="505"/>
      <point x="25" y="250" type="curve" smooth="yes"/>
      <point x="25" y="0" type="line"/>
      <point x="225" y="0" type="line"/>
      <point x="225" y="250" type="line" smooth="yes"/>
      <point x="225" y="443"/>
      <point x="253" y="470"/>
      <point x="440" y="515" type="curve"/>
    </contour>
    <contour>
      <point x="425" y="250" type="line"/>
      <point x="825" y="250" type="line"/>
      <point x="825" y="400" type="line"/>
      <point x="425" y="400" type="line"/>
    </contour>
    <contour>
      <point x="375" y="0" type="line"/>
      <point x="575" y="0" type="line"/>
      <point x="575" y="700" type="line"/>
      <point x="375" y="700" type="line"/>
    </contour>
    <contour>
      <point x="450" y="0" type="line"/>
      <point x="925" y="0" type="line"/>
      <point x="925" y="200" type="line"/>
      <point x="450" y="200" type="line"/>
    </contour>
    <contour>
      <point x="450" y="500" type="line"/>
      <point x="925" y="500" type="line"/>
      <point x="925" y="700" type="line"/>
      <point x="450" y="700" type="line"/>
    </contour>
    <contour>
      <point x="450" y="250" type="line"/>
      <point x="875" y="250" type="line"/>
      <point x="875" y="425" type="line"/>
      <point x="450" y="425" type="line"/>
    </contour>
    <contour>
      <point x="525" y="150" type="line"/>
      <point x="525" y="325" type="line"/>
      <point x="75" y="325" type="line"/>
      <point x="75" y="150" type="line"/>
    </contour>
    <contour>
      <point x="275" y="650" type="move" name="top"/>
    </contour>
    <contour>
      <point x="640" y="650" type="move" name="top"/>
    </contour>
    <contour>
      <point x="275" y="650" type="move" name="top"/>
    </contour>
    <contour>
      <point x="640" y="650" type="move" name="top"/>
    </contour>
    <contour>
      <point x="790" y="650" type="move" name="top"/>
    </contour>
  </outline>
</glyph>
<glyph name="Eth" format="1">
  <advance width="600"/>
  <unicode hex="00D0"/>
  <outline>
    <contour>
      <point x="300" y="300" type="line"/>
      <point x="300" y="400" type="line"/>
      <point x="0" y="400" type="line"/>
      <point x="0" y="300" type="line"/>
    </contour>
    <component base="D"/>
  </outline>
</glyph>
<glyph name="multiply" format="1">
  <advance width="600"/>
  <unicode hex="00D7"/>
  <outline>
    <contour>
      <point x="540" y="435" type="line"/>
      <point x="435" y="540" type="line"/>
      <point x="330" y="440" type="line"/>
      <point x="300" y="400" type="line"/>
      <point x="270" y="440" type="line"/>
      <point x="165" y="540" type="line"/>
      <point x="60" y="435" type="line"/>
      <point x="160" y="330" type="line" smooth="yes"/>
      <point x="200" y="300" type="line"/>
      <point x="160" y="270" type="line"/>
      <point x="60" y="165" type="line"/>
      <point x="165" y="60" type="line"/>
      <point x="270" y="160" type="line" smooth="yes"/>
      <point x="300" y="200" type="line"/>
      <point x="330" y="160" type="line"/>
      <point x="435" y="60" type="line"/>
      <point x="540" y="165" type="line"/>
      <point x="440" y="270" type="line"/>
      <point x="400" y="300" type="line"/>
      <point x="440" y="330" type="line"/>
    </contour>
  </outline>
</glyph>
<glyph name="Thorn" format="1">
  <advance width="600"/>
  <unicode hex="00DE"/>
  <outline>
    <contour>
      <point x="225" y="700" type="line"/>
      <point x="25" y="700" type="line"/>
      <point x="25" y="0" type="line"/>
      <point x="225" y="0" type="line"/>
    </contour>
    <contour>
      <point x="330" y="75" type="line" smooth="yes"/>
      <point x="485" y="75"/>
      <point x="575" y="155"/>
      <point x="575" y="320" type="curve"/>
      <point x="575" y="350" type="line"/>
      <point x="375" y="350" type="line"/>
      <point x="375" y="340" type="line" smooth="yes"/>
      <point x="375" y="290"/>
      <point x="360" y="275"/>
      <point x="300" y="275" type="curve"/>
      <point x="110" y="275" type="line"/>
      <point x="110" y="75" type="line"/>
    </contour>
    <contour>
      <point x="330" y="625" type="curve" smooth="yes"/>
      <point x="110" y="625" type="line"/>
      <point x="110" y="425" type="line"/>
      <point x="300" y="425" type="line"/>
      <point x="360" y="425"/>
      <point x="375" y="410"/>
      <point x="375" y="360" type="curve" smooth="yes"/>
      <point x="375" y="350" type="line"/>
      <point x="575" y="350" type="line"/>
      <point x="575" y="380" type="line"/>
      <point x="575" y="545"/>
      <point x="485" y="625"/>
    </contour>
  </outline>
</glyph>
<glyph name="germandbls" format="1">
  <advance width="850"/>
  <unicode hex="00DF"/>
  <outline>
    <contour>
      <point x="400" y="700" type="line"/>
      <point x="200" y="700" type="line"/>
      <point x="95.0" y="700.0"/>
      <point x="25.0" y="640.0"/>
      <point x="25" y="550" type="curve"/>
      <point x="25" y="0" type="line"/>
      <point x="225" y="0" type="line"/>
      <point x="225" y="490" type="line" smooth="yes"/>
      <point x="225" y="530"/>
      <point x="240" y="540"/>
      <point x="265" y="540" type="curve"/>
      <point x="400" y="540" type="line"/>
    </contour>
    <contour>
      <point x="265" y="350" type="curve"/>
      <point x="265" y="235"/>
      <point x="350" y="210"/>
      <point x="550" y="195" type="curve" smooth="yes"/>
      <point x="625" y="190"/>
      <point x="635" y="185"/>
      <point x="635" y="170" type="curve" smooth="yes"/>
      <point x="635" y="150"/>
      <point x="620" y="150"/>
      <point x="550" y="150" type="curve" smooth="yes"/>
      <point x="485" y="150"/>
      <point x="475" y="150"/>
      <point x="475" y="165" type="curve"/>
      <point x="475" y="175" type="line"/>
      <point x="275" y="175" type="line"/>
      <point x="275" y="130" type="line"/>
      <point x="275" y="40"/>
      <point x="335" y="-10"/>
      <point x="550" y="-10" type="curve" smooth="yes"/>
      <point x="755" y="-10"/>
      <point x="835" y="50"/>
      <point x="835" y="150" type="curve"/>
      <point x="835" y="265"/>
      <point x="775" y="290"/>
      <point x="550" y="305" type="curve" smooth="yes"/>
      <point x="475" y="310"/>
      <point x="465" y="315"/>
      <point x="465" y="330" type="curve"/>
      <point x="465" y="345"/>
      <point x="475" y="355"/>
      <point x="550" y="365" type="curve" smooth="yes"/>
      <point x="635.0079342357916" y="375.0009334395049"/>
      <point x="685.0" y="421.57142857142856"/>
      <point x="685" y="530" type="curve"/>
      <point x="685.0" y="641.5625"/>
      <point x="602.7884615384615" y="700.0"/>
      <point x="400" y="700" type="curve"/>
      <point x="400" y="540" type="line"/>
      <point x="470" y="540"/>
      <point x="485" y="535"/>
      <point x="485" y="515" type="curve" smooth="yes"/>
      <point x="485" y="495"/>
      <point x="470" y="495"/>
      <point x="400" y="485" type="curve" smooth="yes"/>
      <point x="310.16211534922" y="470.02701922487"/>
      <point x="265.0" y="443.1034482758621"/>
    </contour>
  </outline>
</glyph>
<glyph name="ae" format="1">
  <advance width="950"/>
  <unicode hex="00E6"/>
  <outline>
    <contour>
      <point x="25" y="335" type="curve"/>
      <point x="25" y="315" type="line"/>
      <point x="225" y="315" type="line"/>
      <point x="225" y="325" type="line"/>
      <point x="225" y="345"/>
      <point x="240" y="355"/>
      <point x="300" y="355" type="curve" smooth="yes"/>
      <point x="365" y="355"/>
      <point x="375" y="350"/>
      <point x="375" y="310" type="curve" smooth="yes"/>
      <point x="375" y="220" type="line"/>
      <point x="525" y="250" type="line"/>
      <point x="520" y="330" type="line"/>
      <point x="520.0" y="440.0"/>
      <point x="460.0" y="510.0"/>
      <point x="300" y="510" type="curve" smooth="yes"/>
      <point x="90" y="510"/>
      <point x="25" y="450"/>
    </contour>
    <contour>
      <point x="525" y="250" type="line"/>
      <point x="375" y="250" type="line"/>
      <point x="375" y="115" type="line"/>
      <point x="435" y="80" type="line"/>
      <point x="525" y="125" type="line"/>
    </contour>
    <contour>
      <point x="15" y="135" type="curve"/>
      <point x="15" y="30"/>
      <point x="80" y="-10"/>
      <point x="210" y="-10" type="curve"/>
      <point x="370" y="-10"/>
      <point x="415" y="25"/>
      <point x="435" y="80" type="curve"/>
      <point x="375" y="150" type="line"/>
      <point x="375" y="135"/>
      <point x="360" y="120"/>
      <point x="275" y="120" type="curve"/>
      <point x="230" y="120"/>
      <point x="215" y="125"/>
      <point x="215" y="150" type="curve"/>
      <point x="215" y="175"/>
      <point x="230" y="180"/>
      <point x="275" y="180" type="curve"/>
      <point x="360" y="180"/>
      <point x="375" y="165"/>
      <point x="375" y="150" type="curve"/>
      <point x="380" y="215" type="line"/>
      <point x="370" y="260"/>
      <point x="325" y="285"/>
      <point x="225" y="285" type="curve"/>
      <point x="90" y="285"/>
      <point x="15" y="240"/>
    </contour>
    <contour>
      <point x="925" y="165" type="curve"/>
      <point x="925" y="175" type="line"/>
      <point x="725" y="175" type="line"/>
      <point x="725" y="165" type="line"/>
      <point x="725" y="145"/>
      <point x="710" y="140"/>
      <point x="650" y="140" type="curve" smooth="yes"/>
      <point x="590" y="140"/>
      <point x="575" y="150"/>
      <point x="575" y="190" type="curve" smooth="yes"/>
      <point x="575" y="250" type="line"/>
      <point x="375" y="250" type="line"/>
      <point x="410" y="190" type="line"/>
      <point x="410.0" y="60.0"/>
      <point x="475.4545454545455" y="-10.0"/>
      <point x="650" y="-10" type="curve" smooth="yes"/>
      <point x="860.0" y="-10.0"/>
      <point x="925.0" y="35.0"/>
    </contour>
    <contour>
      <point x="925" y="315" type="line"/>
      <point x="925.0" y="460.0"/>
      <point x="860.0" y="510.0"/>
      <point x="650" y="510" type="curve" smooth="yes"/>
      <point x="490.0" y="510.0"/>
      <point x="430.0" y="440.0"/>
      <point x="430" y="310" type="curve"/>
      <point x="375" y="250" type="line"/>
      <point x="575" y="250" type="line"/>
      <point x="575" y="310" type="line" smooth="yes"/>
      <point x="575" y="350"/>
      <point x="590" y="360"/>
      <point x="650" y="360" type="curve" smooth="yes"/>
      <point x="710" y="360"/>
      <point x="725" y="350"/>
      <point x="725" y="315" type="curve"/>
      <point x="725" y="295" type="line"/>
      <point x="925" y="295" type="line"/>
    </contour>
    <contour>
      <point x="450" y="205" type="line"/>
      <point x="925" y="205" type="line"/>
      <point x="925" y="300" type="line"/>
      <point x="450" y="300" type="line"/>
    </contour>
    <contour>
      <point x="300.0" y="500.0" type="move" name="top"/>
    </contour>
    <contour>
      <point x="700.0" y="500.0" type="move" name="top"/>
    </contour>
    <contour>
      <point x="650.0" y="500.0" type="move" name="top"/>
    </contour>
    <contour>
      <point x="650" y="500" type="move" name="top"/>
    </contour>
  </outline>
</glyph>
<glyph name="eth" format="1">
  <advance width="600"/>
  <unicode hex="00F0"/>
  <outline>
    <contour>
      <point x="300" y="170" type="curve"/>
      <point x="235.71428571428572" y="170.0"/>
      <point x="225" y="195.0"/>
      <point x="225" y="240" type="curve" smooth="yes"/>
      <point x="225" y="250" type="line"/>
      <point x="25" y="250" type="line"/>
      <point x="25" y="210" type="line"/>
      <point x="25.0" y="80.0"/>
      <point x="75" y="-10"/>
      <point x="300" y="-10" type="curve"/>
      <point x="514.1176470588235" y="-10.0"/>
      <point x="580.0" y="80.0"/>
      <point x="580" y="260" type="curve" smooth="yes"/>
      <point x="580.0" y="435.0"/>
      <point x="504.46604678925485" y="563.0390695555686"/>
      <point x="325" y="700" type="curve"/>
      <point x="95" y="700" type="line"/>
      <point x="95" y="685" type="line"/>
      <point x="305" y="520"/>
      <point x="375" y="460"/>
      <point x="375" y="260" type="curve" smooth="yes"/>
      <point x="375.0" y="190.0"/>
      <point x="364.2857142857143" y="170.0"/>
    </contour>
    <contour>
      <point x="375" y="410" type="line"/>
      <point x="341.87191402831724" y="457.32583710240397"/>
      <point x="316.6666666666667" y="510.0"/>
      <point x="225" y="510" type="curve" smooth="yes"/>
      <point x="90" y="510"/>
      <point x="25.0" y="440.0"/>
      <point x="25" y="290" type="curve"/>
      <point x="25" y="250" type="line"/>
      <point x="225" y="250" type="line"/>
      <point x="225" y="260" type="line"/>
      <point x="225.0" y="315.0"/>
      <point x="242.5" y="330.0"/>
      <point x="295" y="330" type="curve" smooth="yes"/>
      <point x="364.09090909090907" y="330.0"/>
      <point x="375.0" y="305.0"/>
      <point x="375" y="260" type="curve"/>
    </contour>
    <contour>
      <point x="100" y="515" type="line"/>
      <point x="305" y="570" type="line"/>
      <point x="500" y="605" type="line"/>
      <point x="500" y="710" type="line"/>
      <point x="305" y="660" type="line"/>
      <point x="100" y="620" type="line"/>
    </contour>
    <contour>
      <point x="900.0" y="500.0" type="move" name="top"/>
    </contour>
  </outline>
</glyph>
<glyph name="divide" format="1">
  <advance width="600"/>
  <unicode hex="00F7"/>
  <outline>
    <contour>
      <point x="550" y="200" type="line"/>
      <point x="550" y="350" type="line"/>
      <point x="50" y="350" type="line"/>
      <point x="50" y="200" type="line"/>
    </contour>
    <contour>
      <point x="225" y="0" type="line"/>
      <point x="375" y="0" type="line"/>
      <point x="375" y="150" type="line"/>
      <point x="225" y="150" type="line"/>
    </contour>
    <contour>
      <point x="225" y="400" type="line"/>
      <point x="375" y="400" type="line"/>
      <point x="375" y="550" type="line"/>
      <point x="225" y="550" type="line"/>
    </contour>
  </outline>
</glyph>
<glyph name="IJ" format="1">
  <advance width="500"/>
  <unicode hex="0132"/>
  <outline>
    <contour>
      <point x="25" y="295" type="line"/>
      <point x="225" y="295" type="line"/>
      <point x="225" y="700" type="line"/>
      <point x="25" y="700" type="line"/>
    </contour>
    <contour>
      <point x="25" y="180" type="line"/>
      <point x="25" y="40"/>
      <point x="95" y="-10"/>
      <point x="250" y="-10" type="curve" smooth="yes"/>
      <point x="395" y="-10"/>
      <point x="475" y="50"/>
      <point x="475" y="190" type="curve"/>
      <point x="475" y="700" type="line"/>
      <point x="275" y="700" type="line"/>
      <point x="275" y="215" type="line" smooth="yes"/>
      <point x="275" y="195"/>
      <point x="265" y="190"/>
      <point x="250" y="190" type="curve" smooth="yes"/>
      <point x="235" y="190"/>
      <point x="225" y="195"/>
      <point x="225" y="210" type="curve"/>
      <point x="225" y="250" type="line"/>
      <point x="25" y="250" type="line"/>
    </contour>
    <contour>
      <point x="125" y="650" type="move" name="top"/>
    </contour>
  </outline>
</glyph>
<glyph name="ij" format="1">
  <advance width="500"/>
  <unicode hex="0133"/>
  <outline>
    <contour>
      <point x="275" y="545" type="line"/>
      <point x="475" y="545" type="line"/>
      <point x="475" y="700" type="line"/>
      <point x="275" y="700" type="line"/>
    </contour>
    <contour>
      <point x="250" y="-70" type="curve"/>
      <point x="235.0" y="-70.0"/>
      <point x="225.0" y="-66.13636363636364"/>
      <point x="225" y="-53" type="curve"/>
      <point x="225" y="-39" type="line"/>
      <point x="25" y="-39" type="line"/>
      <point x="25" y="-58" type="line"/>
      <point x="25.0" y="-155.0"/>
      <point x="92.5" y="-210.0"/>
      <point x="250" y="-210" type="curve"/>
      <point x="396.0" y="-210.0"/>
      <point x="475" y="-146.57142857142856"/>
      <point x="475" y="-25" type="curve" smooth="yes"/>
      <point x="475" y="500" type="line"/>
      <point x="275" y="500" type="line"/>
      <point x="275" y="-48" type="line" smooth="yes"/>
      <point x="275" y="-67.55555555555556"/>
      <point x="265.0" y="-70.0"/>
    </contour>
    <component base="i"/>
  </outline>
</glyph>
<glyph name="Lslash" format="1">
  <advance width="400"/>
  <unicode hex="0141"/>
  <outline>
    <contour>
      <point x="10" y="235" type="line"/>
      <point x="325" y="335" type="line"/>
      <point x="325" y="540" type="line"/>
      <point x="10" y="440" type="line"/>
    </contour>
    <component base="L"/>
  </outline>
</glyph>
<glyph name="lslash" format="1">
  <advance width="250"/>
  <unicode hex="0142"/>
  <outline>
    <contour>
      <point x="0" y="260" type="line"/>
      <point x="250" y="340" type="line"/>
      <point x="250" y="520" type="line"/>
      <point x="0" y="440" type="line"/>
    </contour>
    <component base="l"/>
  </outline>
</glyph>
<glyph name="OE" format="1">
  <advance width="950"/>
  <unicode hex="0152"/>
  <outline>
    <contour>
      <point x="500" y="0" type="line"/>
      <point x="575" y="0" type="line"/>
      <point x="575" y="700" type="line"/>
      <point x="500" y="700" type="line"/>
      <point x="400" y="575" type="line"/>
      <point x="400" y="125" type="line"/>
    </contour>
    <contour>
      <point x="300" y="700" type="curve"/>
      <point x="300" y="500" type="line"/>
      <point x="360.0" y="500.0"/>
      <point x="375" y="485.0"/>
      <point x="375" y="435" type="curve" smooth="yes"/>
      <point x="375" y="350" type="line"/>
      <point x="500" y="350" type="line"/>
      <point x="500" y="455" type="line"/>
      <point x="500" y="630"/>
      <point x="430" y="700"/>
    </contour>
    <contour>
      <point x="300" y="0" type="line"/>
      <point x="430" y="0"/>
      <point x="500" y="70"/>
      <point x="500" y="245" type="curve"/>
      <point x="500" y="350" type="line"/>
      <point x="375" y="350" type="line"/>
      <point x="375" y="265" type="line" smooth="yes"/>
      <point x="375" y="215.0"/>
      <point x="360.0" y="200.0"/>
      <point x="300" y="200" type="curve"/>
    </contour>
    <contour>
      <point x="500" y="0" type="line"/>
      <point x="925" y="0" type="line"/>
      <point x="925" y="200" type="line"/>
      <point x="500" y="200" type="line"/>
    </contour>
    <contour>
      <point x="500" y="500" type="line"/>
      <point x="925" y="500" type="line"/>
      <point x="925" y="700" type="line"/>
      <point x="500" y="700" type="line"/>
    </contour>
    <contour>
      <point x="450" y="250" type="line"/>
      <point x="875" y="250" type="line"/>
      <point x="875" y="425" type="line"/>
      <point x="450" y="425" type="line"/>
    </contour>
    <contour>
      <point x="270" y="0" type="curve" smooth="yes"/>
      <point x="300" y="0" type="line"/>
      <point x="300" y="200" type="line"/>
      <point x="240" y="200"/>
      <point x="225" y="215"/>
      <point x="225" y="265" type="curve" smooth="yes"/>
      <point x="225" y="350" type="line"/>
      <point x="25" y="350" type="line"/>
      <point x="25" y="245" type="line"/>
      <point x="25" y="70"/>
      <point x="115" y="0"/>
    </contour>
    <contour>
      <point x="270" y="700" type="line" smooth="yes"/>
      <point x="115" y="700"/>
      <point x="25" y="630"/>
      <point x="25" y="455" type="curve"/>
      <point x="25" y="350" type="line"/>
      <point x="225" y="350" type="line"/>
      <point x="225" y="435" type="line" smooth="yes"/>
      <point x="225" y="485"/>
      <point x="240" y="500"/>
      <point x="300" y="500" type="curve"/>
      <point x="300" y="700" type="line"/>
    </contour>
    <contour>
      <point x="300.0" y="650.0" type="move" name="top"/>
    </contour>
    <contour>
      <point x="665.0" y="650.0" type="move" name="top"/>
    </contour>
  </outline>
</glyph>
<glyph name="oe" format="1">
  <advance width="955"/>
  <unicode hex="0153"/>
  <outline>
    <contour>
      <point x="300" y="180" type="curve"/>
      <point x="240" y="180"/>
      <point x="220" y="209"/>
      <point x="220" y="250" type="curve"/>
      <point x="220" y="291"/>
      <point x="240" y="320"/>
      <point x="300" y="320" type="curve"/>
      <point x="360" y="320"/>
      <point x="380" y="291"/>
      <point x="380" y="250" type="curve"/>
      <point x="380" y="209"/>
      <point x="360" y="180"/>
    </contour>
    <contour>
      <point x="300" y="-10" type="curve"/>
      <point x="370.0" y="-10.0"/>
      <point x="423" y="5"/>
      <point x="468" y="35" type="curve"/>
      <point x="515" y="5"/>
      <point x="573.0" y="-10.0"/>
      <point x="655" y="-10" type="curve" smooth="yes"/>
      <point x="865" y="-10"/>
      <point x="930" y="33"/>
      <point x="930" y="165" type="curve"/>
      <point x="930" y="175" type="line"/>
      <point x="730" y="175" type="line"/>
      <point x="730" y="165" type="line"/>
      <point x="730" y="147"/>
      <point x="715" y="140"/>
      <point x="655" y="140" type="curve" smooth="yes"/>
      <point x="595" y="140"/>
      <point x="580" y="151"/>
      <point x="580" y="190" type="curve" smooth="yes"/>
      <point x="580" y="310" type="line" smooth="yes"/>
      <point x="580" y="349"/>
      <point x="595" y="360"/>
      <point x="655" y="360" type="curve" smooth="yes"/>
      <point x="715" y="360"/>
      <point x="730" y="350"/>
      <point x="730" y="315" type="curve"/>
      <point x="730" y="300" type="line"/>
      <point x="536" y="300" type="line"/>
      <point x="536" y="205" type="line"/>
      <point x="930" y="205" type="line"/>
      <point x="930" y="315" type="line"/>
      <point x="930" y="460"/>
      <point x="865" y="510"/>
      <point x="655" y="510" type="curve" smooth="yes"/>
      <point x="573.0" y="510.0"/>
      <point x="518" y="486"/>
      <point x="468" y="455" type="curve"/>
      <point x="419" y="487"/>
      <point x="370.0" y="510.0"/>
      <point x="300" y="510" type="curve"/>
      <point x="100" y="510"/>
      <point x="20" y="410"/>
      <point x="20" y="265" type="curve"/>
      <point x="20" y="235" type="line"/>
      <point x="20" y="90"/>
      <point x="100" y="-10"/>
    </contour>
    <contour>
      <point x="300.0" y="500.0" type="move" name="top"/>
    </contour>
    <contour>
      <point x="700.0" y="500.0" type="move" name="top"/>
    </contour>
    <contour>
      <point x="300.0" y="500.0" type="move" name="top"/>
    </contour>
  </outline>
</glyph>
<glyph name="dotaccent" format="1">
  <advance width="250"/>
  <unicode hex="02D9"/>
  <outline>
    <contour>
      <point x="205" y="638" type="curve"/>
      <point x="205.0" y="684.290909090909"/>
      <point x="175.0" y="705.0"/>
      <point x="125" y="705" type="curve"/>
      <point x="75.0" y="705.0"/>
      <point x="45.0" y="684.290909090909"/>
      <point x="45" y="638" type="curve"/>
      <point x="45.0" y="592.95"/>
      <point x="75.0" y="570.0"/>
      <point x="125" y="570" type="curve"/>
      <point x="175.0" y="570.0"/>
      <point x="205.0" y="592.95"/>
    </contour>
  </outline>
</glyph>
<glyph name="ring" format="1">
  <advance width="500"/>
  <unicode hex="02DA"/>
  <outline>
    <contour>
      <point x="265" y="660" type="curve" smooth="yes"/>
      <point x="265" y="635"/>
      <point x="255" y="620"/>
      <point x="200" y="620" type="curve"/>
      <point x="145" y="620"/>
      <point x="135" y="635"/>
      <point x="135" y="660" type="curve" smooth="yes"/>
      <point x="135" y="685"/>
      <point x="145" y="700"/>
      <point x="200" y="700" type="curve"/>
      <point x="255" y="700"/>
      <point x="265" y="685"/>
    </contour>
    <contour>
      <point x="350" y="660" type="curve" smooth="yes"/>
      <point x="350" y="740"/>
      <point x="305" y="780"/>
      <point x="200" y="780" type="curve"/>
      <point x="95" y="780"/>
      <point x="50" y="740"/>
      <point x="50" y="660" type="curve" smooth="yes"/>
      <point x="50" y="580"/>
      <point x="95" y="540"/>
      <point x="200" y="540" type="curve"/>
      <point x="305" y="540"/>
      <point x="350" y="580"/>
    </contour>
    <contour>
      <point x="200.0" y="500.0" type="move" name="_top"/>
    </contour>
  </outline>
</glyph>
<glyph name="quoteright" format="1">
  <advance width="250"/>
  <unicode hex="2019"/>
  <outline>
    <contour>
      <point x="25" y="500" type="line"/>
      <point x="55" y="500" type="line"/>
      <point x="55" y="400" type="line"/>
      <point x="180" y="400" type="line"/>
      <point x="225" y="550" type="line"/>
      <point x="225" y="700" type="line"/>
      <point x="25" y="700" type="line"/>
    </contour>
  </outline>
</glyph>
<glyph name="quotedblright" format="1">
  <advance width="450"/>
  <unicode hex="201D"/>
  <outline>
    <contour>
      <point x="25" y="500" type="line"/>
      <point x="55" y="500" type="line"/>
      <point x="55" y="400" type="line"/>
      <point x="160" y="400" type="line"/>
      <point x="205" y="550" type="line"/>
      <point x="205" y="700" type="line"/>
      <point x="25" y="700" type="line"/>
    </contour>
    <contour>
      <point x="245" y="500" type="line"/>
      <point x="275" y="500" type="line"/>
      <point x="275" y="400" type="line"/>
      <point x="380" y="400" type="line"/>
      <point x="425" y="550" type="line"/>
      <point x="425" y="700" type="line"/>
      <point x="245" y="700" type="line"/>
    </contour>
  </outline>
</glyph>
<glyph name="dagger" format="1">
  <advance width="600"/>
  <unicode hex="2020"/>
  <outline>
    <contour>
      <point x="200" y="-100" type="line"/>
      <point x="400" y="-100" type="line"/>
      <point x="400" y="225" type="line"/>
      <point x="380" y="400" type="line"/>
      <point x="400" y="575" type="line"/>
      <point x="400" y="700" type="line"/>
      <point x="200" y="700" type="line"/>
      <point x="200" y="575" type="line"/>
      <point x="220" y="400" type="line"/>
      <point x="200" y="225" type="line"/>
    </contour>
    <contour>
      <point x="25" y="300" type="line"/>
      <point x="125" y="300" type="line"/>
      <point x="300" y="315" type="line"/>
      <point x="475" y="300" type="line"/>
      <point x="575" y="300" type="line"/>
      <point x="575" y="500" type="line"/>
      <point x="475" y="500" type="line"/>
      <point x="300" y="480" type="line"/>
      <point x="125" y="500" type="line"/>
      <point x="25" y="500" type="line"/>
    </contour>
  </outline>
</glyph>
<glyph name="daggerdbl" format="1">
  <advance width="600"/>
  <unicode hex="2021"/>
  <outline>
    <contour>
      <point x="400" y="250" type="line"/>
      <point x="380" y="400" type="line"/>
      <point x="400" y="575" type="line"/>
      <point x="400" y="700" type="line"/>
      <point x="200" y="700" type="line"/>
      <point x="200" y="575" type="line"/>
      <point x="220" y="400" type="line"/>
      <point x="200" y="250" type="line"/>
    </contour>
    <contour>
      <point x="25" y="300" type="line"/>
      <point x="125" y="300" type="line"/>
      <point x="300" y="315" type="line"/>
      <point x="475" y="300" type="line"/>
      <point x="575" y="300" type="line"/>
      <point x="575" y="500" type="line"/>
      <point x="475" y="500" type="line"/>
      <point x="300" y="480" type="line"/>
      <point x="125" y="500" type="line"/>
      <point x="25" y="500" type="line"/>
    </contour>
    <contour>
      <point x="400" y="250" type="line"/>
      <point x="200" y="250" type="line"/>
      <point x="220" y="100" type="line"/>
      <point x="200" y="-75" type="line"/>
      <point x="200" y="-200" type="line"/>
      <point x="400" y="-200" type="line"/>
      <point x="400" y="-75" type="line"/>
      <point x="380" y="100" type="line"/>
    </contour>
    <contour>
      <point x="25" y="200" type="line"/>
      <point x="25" y="0" type="line"/>
      <point x="125" y="0" type="line"/>
      <point x="300" y="20" type="line"/>
      <point x="475" y="0" type="line"/>
      <point x="575" y="0" type="line"/>
      <point x="575" y="200" type="line"/>
      <point x="475" y="200" type="line"/>
      <point x="300" y="185" type="line"/>
      <point x="125" y="200" type="line"/>
    </contour>
  </outline>
</glyph>
<glyph name="ellipsis" format="1">
  <advance width="650"/>
  <unicode hex="2026"/>
  <outline>
    <contour>
      <point x="455" y="0" type="line"/>
      <point x="625" y="0" type="line"/>
      <point x="625" y="200" type="line"/>
      <point x="455" y="200" type="line"/>
    </contour>
    <contour>
      <point x="240" y="0" type="line"/>
      <point x="410" y="0" type="line"/>
      <point x="410" y="200" type="line"/>
      <point x="240" y="200" type="line"/>
    </contour>
    <contour>
      <point x="25" y="0" type="line"/>
      <point x="195" y="0" type="line"/>
      <point x="195" y="200" type="line"/>
      <point x="25" y="200" type="line"/>
    </contour>
  </outline>
</glyph>
<glyph name="n.superior" format="1">
  <advance width="400"/>
  <unicode hex="207F"/>
  <outline>
    <contour>
      <point x="50" y="400" type="line"/>
      <point x="140" y="400" type="line"/>
      <point x="140" y="640" type="line"/>
      <point x="130" y="640" type="line"/>
      <point x="115" y="700" type="line"/>
      <point x="50" y="700" type="line"/>
    </contour>
    <contour>
      <point x="140" y="640" type="curve"/>
      <point x="140" y="565" type="line"/>
      <point x="140" y="605"/>
      <point x="160" y="620"/>
      <point x="200" y="620" type="curve" smooth="yes"/>
      <point x="240" y="620"/>
      <point x="260" y="605"/>
      <point x="260" y="565" type="curve" smooth="yes"/>
      <point x="260" y="400" type="line"/>
      <point x="350" y="400" type="line"/>
      <point x="350" y="560" type="line" smooth="yes"/>
      <point x="350" y="660"/>
      <point x="320" y="710"/>
      <point x="240" y="710" type="curve"/>
      <point x="184.444444444" y="710.0"/>
      <point x="150.065361828" y="680.261447314"/>
    </contour>
  </outline>
</glyph>
<glyph name="Euro" format="1">
  <advance width="600"/>
  <unicode hex="20AC"/>
  <outline>
    <contour>
      <point x="5" y="360" type="line"/>
      <point x="320" y="360" type="line"/>
      <point x="335" y="460" type="line"/>
      <point x="15" y="460" type="line"/>
    </contour>
    <contour>
      <point x="0" y="240" type="line"/>
      <point x="305" y="240" type="line"/>
      <point x="320" y="340" type="line"/>
      <point x="10" y="340" type="line"/>
    </contour>
    <component base="C"/>
  </outline>
</glyph>
<glyph name="numero" format="1">
  <advance width="1000"/>
  <unicode hex="2116"/>
  <outline>
    <component base="N"/>
    <component base="ordmasculine" xOffset="600"/>
    <contour>
      <point x="300.0" y="650.0" type="move" name="top"/>
    </contour>
  </outline>
</glyph>
<glyph name="leftrightarrow" format="1">
  <advance width="1000"/>
  <unicode hex="2194"/>
  <outline>
    <contour>
      <point x="475" y="350" type="line"/>
      <point x="475" y="150" type="line"/>
      <point x="525" y="150" type="line"/>
      <point x="900" y="165" type="line"/>
      <point x="900" y="335" type="line"/>
      <point x="525" y="350" type="line"/>
    </contour>
    <contour>
      <point x="975" y="235" type="line"/>
      <point x="975" y="260" type="line"/>
      <point x="860" y="245" type="line"/>
      <point x="745" y="225" type="line"/>
      <point x="600" y="100" type="line"/>
      <point x="515" y="15" type="line"/>
      <point x="515" y="0" type="line"/>
      <point x="740" y="0" type="line"/>
    </contour>
    <contour>
      <point x="975" y="265" type="line"/>
      <point x="740" y="500" type="line"/>
      <point x="515" y="500" type="line"/>
      <point x="515" y="485" type="line"/>
      <point x="600" y="400" type="line"/>
      <point x="745" y="275" type="line"/>
      <point x="860" y="255" type="line"/>
      <point x="975" y="240" type="line"/>
    </contour>
    <contour>
      <point x="525" y="150" type="line"/>
      <point x="525" y="350" type="line"/>
      <point x="475" y="350" type="line"/>
      <point x="100" y="335" type="line"/>
      <point x="100" y="165" type="line"/>
      <point x="475" y="150" type="line"/>
    </contour>
    <contour>
      <point x="25" y="265" type="line"/>
      <point x="25" y="240" type="line"/>
      <point x="140" y="255" type="line"/>
      <point x="255" y="275" type="line"/>
      <point x="400" y="400" type="line"/>
      <point x="485" y="485" type="line"/>
      <point x="485" y="500" type="line"/>
      <point x="260" y="500" type="line"/>
    </contour>
    <contour>
      <point x="25" y="235" type="line"/>
      <point x="260" y="0" type="line"/>
      <point x="485" y="0" type="line"/>
      <point x="485" y="15" type="line"/>
      <point x="400" y="100" type="line"/>
      <point x="255" y="225" type="line"/>
      <point x="140" y="245" type="line"/>
      <point x="25" y="260" type="line"/>
    </contour>
  </outline>
</glyph>
<glyph name="northwestarrow" format="1">
  <advance width="800"/>
  <unicode hex="2196"/>
  <outline>
    <contour>
      <point x="620" y="-10" type="line"/>
      <point x="760" y="130" type="line"/>
      <point x="400" y="490" type="line"/>
      <point x="225" y="645" type="line"/>
      <point x="105" y="525" type="line"/>
      <point x="260" y="355" type="line"/>
    </contour>
    <contour>
      <point x="70" y="700" type="line"/>
      <point x="50" y="680" type="line"/>
      <point x="145" y="610" type="line"/>
      <point x="270" y="515" type="line"/>
      <point x="385" y="505" type="line"/>
      <point x="755" y="500" type="line"/>
      <point x="765" y="510" type="line"/>
      <point x="580" y="700" type="line"/>
    </contour>
    <contour>
      <point x="50" y="680" type="line"/>
      <point x="50" y="170" type="line"/>
      <point x="240" y="-15" type="line"/>
      <point x="250" y="-5" type="line"/>
      <point x="245" y="365" type="line"/>
      <point x="235" y="530" type="line"/>
      <point x="175" y="620" type="line"/>
      <point x="155" y="620" type="line"/>
      <point x="70" y="700" type="line"/>
    </contour>
  </outline>
</glyph>
<glyph name="notequal" format="1">
  <advance width="600"/>
  <unicode hex="2260"/>
  <outline>
    <contour>
      <point x="50" y="20" type="line"/>
      <point x="170" y="20" type="line"/>
      <point x="275" y="170" type="line"/>
      <point x="300" y="220" type="line"/>
      <point x="415" y="375" type="line"/>
      <point x="440" y="425" type="line"/>
      <point x="500" y="500" type="line"/>
      <point x="550" y="575" type="line"/>
      <point x="430" y="575" type="line"/>
      <point x="325" y="425" type="line"/>
      <point x="300" y="375" type="line"/>
      <point x="190" y="225" type="line"/>
      <point x="165" y="175" type="line"/>
      <point x="105" y="100" type="line"/>
    </contour>
    <component base="equal"/>
  </outline>
</glyph>
<glyph name="darkshade" format="1">
  <advance width="1000"/>
  <unicode hex="2593"/>
  <outline>
    <contour>
      <point x="125" y="490" type="curve" smooth="yes"/>
      <point x="195" y="490"/>
      <point x="240" y="535"/>
      <point x="240" y="600" type="curve" smooth="yes"/>
      <point x="240" y="670"/>
      <point x="195" y="715"/>
      <point x="125" y="715" type="curve" smooth="yes"/>
      <point x="60" y="715"/>
      <point x="10" y="670"/>
      <point x="10" y="600" type="curve" smooth="yes"/>
      <point x="10" y="535"/>
      <point x="60" y="490"/>
    </contour>
    <contour>
      <point x="0" y="240" type="line"/>
      <point x="75" y="240"/>
      <point x="120" y="285"/>
      <point x="120" y="350" type="curve" smooth="yes"/>
      <point x="120" y="420"/>
      <point x="75" y="465"/>
      <point x="0" y="465" type="curve"/>
    </contour>
    <contour>
      <point x="375" y="490" type="curve" smooth="yes"/>
      <point x="445" y="490"/>
      <point x="490" y="535"/>
      <point x="490" y="600" type="curve" smooth="yes"/>
      <point x="490" y="670"/>
      <point x="445" y="715"/>
      <point x="375" y="715" type="curve" smooth="yes"/>
      <point x="310" y="715"/>
      <point x="260" y="670"/>
      <point x="260" y="600" type="curve" smooth="yes"/>
      <point x="260" y="535"/>
      <point x="310" y="490"/>
    </contour>
    <contour>
      <point x="625" y="490" type="curve" smooth="yes"/>
      <point x="695" y="490"/>
      <point x="740" y="535"/>
      <point x="740" y="600" type="curve" smooth="yes"/>
      <point x="740" y="670"/>
      <point x="695" y="715"/>
      <point x="625" y="715" type="curve" smooth="yes"/>
      <point x="560" y="715"/>
      <point x="510" y="670"/>
      <point x="510" y="600" type="curve" smooth="yes"/>
      <point x="510" y="535"/>
      <point x="560" y="490"/>
    </contour>
    <contour>
      <point x="875" y="490" type="curve" smooth="yes"/>
      <point x="945" y="490"/>
      <point x="990" y="535"/>
      <point x="990" y="600" type="curve" smooth="yes"/>
      <point x="990" y="670"/>
      <point x="945" y="715"/>
      <point x="875" y="715" type="curve" smooth="yes"/>
      <point x="810" y="715"/>
      <point x="760" y="670"/>
      <point x="760" y="600" type="curve" smooth="yes"/>
      <point x="760" y="535"/>
      <point x="810" y="490"/>
    </contour>
    <contour>
      <point x="250" y="240" type="curve" smooth="yes"/>
      <point x="320" y="240"/>
      <point x="365" y="285"/>
      <point x="365" y="350" type="curve" smooth="yes"/>
      <point x="365" y="420"/>
      <point x="320" y="465"/>
      <point x="250" y="465" type="curve" smooth="yes"/>
      <point x="185" y="465"/>
      <point x="135" y="420"/>
      <point x="135" y="350" type="curve" smooth="yes"/>
      <point x="135" y="285"/>
      <point x="185" y="240"/>
    </contour>
    <contour>
      <point x="500" y="240" type="curve" smooth="yes"/>
      <point x="570" y="240"/>
      <point x="615" y="285"/>
      <point x="615" y="350" type="curve" smooth="yes"/>
      <point x="615" y="420"/>
      <point x="570" y="465"/>
      <point x="500" y="465" type="curve" smooth="yes"/>
      <point x="435" y="465"/>
      <point x="385" y="420"/>
      <point x="385" y="350" type="curve" smooth="yes"/>
      <point x="385" y="285"/>
      <point x="435" y="240"/>
    </contour>
    <contour>
      <point x="750" y="240" type="curve" smooth="yes"/>
      <point x="820" y="240"/>
      <point x="865" y="285"/>
      <point x="865" y="350" type="curve" smooth="yes"/>
      <point x="865" y="420"/>
      <point x="820" y="465"/>
      <point x="750" y="465" type="curve" smooth="yes"/>
      <point x="685" y="465"/>
      <point x="635" y="420"/>
      <point x="635" y="350" type="curve" smooth="yes"/>
      <point x="635" y="285"/>
      <point x="685" y="240"/>
    </contour>
    <contour>
      <point x="1000" y="240" type="curve"/>
      <point x="1000" y="465" type="line"/>
      <point x="925" y="465"/>
      <point x="880" y="420"/>
      <point x="880" y="350" type="curve" smooth="yes"/>
      <point x="880" y="285"/>
      <point x="925" y="240"/>
    </contour>
    <contour>
      <point x="125" y="-10" type="curve" smooth="yes"/>
      <point x="195" y="-10"/>
      <point x="240" y="35"/>
      <point x="240" y="100" type="curve" smooth="yes"/>
      <point x="240" y="170"/>
      <point x="195" y="215"/>
      <point x="125" y="215" type="curve" smooth="yes"/>
      <point x="60" y="215"/>
      <point x="10" y="170"/>
      <point x="10" y="100" type="curve" smooth="yes"/>
      <point x="10" y="35"/>
      <point x="60" y="-10"/>
    </contour>
    <contour>
      <point x="0" y="-260" type="line"/>
      <point x="75" y="-260"/>
      <point x="120" y="-215"/>
      <point x="120" y="-150" type="curve" smooth="yes"/>
      <point x="120" y="-80"/>
      <point x="75" y="-35"/>
      <point x="0" y="-35" type="curve"/>
    </contour>
    <contour>
      <point x="375" y="-10" type="curve" smooth="yes"/>
      <point x="445" y="-10"/>
      <point x="490" y="35"/>
      <point x="490" y="100" type="curve" smooth="yes"/>
      <point x="490" y="170"/>
      <point x="445" y="215"/>
      <point x="375" y="215" type="curve" smooth="yes"/>
      <point x="310" y="215"/>
      <point x="260" y="170"/>
      <point x="260" y="100" type="curve" smooth="yes"/>
      <point x="260" y="35"/>
      <point x="310" y="-10"/>
    </contour>
    <contour>
      <point x="625" y="-10" type="curve" smooth="yes"/>
      <point x="695" y="-10"/>
      <point x="740" y="35"/>
      <point x="740" y="100" type="curve" smooth="yes"/>
      <point x="740" y="170"/>
      <point x="695" y="215"/>
      <point x="625" y="215" type="curve" smooth="yes"/>
      <point x="560" y="215"/>
      <point x="510" y="170"/>
      <point x="510" y="100" type="curve" smooth="yes"/>
      <point x="510" y="35"/>
      <point x="560" y="-10"/>
    </contour>
    <contour>
      <point x="875" y="-10" type="curve" smooth="yes"/>
      <point x="945" y="-10"/>
      <point x="990" y="35"/>
      <point x="990" y="100" type="curve" smooth="yes"/>
      <point x="990" y="170"/>
      <point x="945" y="215"/>
      <point x="875" y="215" type="curve" smooth="yes"/>
      <point x="810" y="215"/>
      <point x="760" y="170"/>
      <point x="760" y="100" type="curve" smooth="yes"/>
      <point x="760" y="35"/>
      <point x="810" y="-10"/>
    </contour>
    <contour>
      <point x="250" y="-260" type="curve" smooth="yes"/>
      <point x="320" y="-260"/>
      <point x="365" y="-215"/>
      <point x="365" y="-150" type="curve" smooth="yes"/>
      <point x="365" y="-80"/>
      <point x="320" y="-35"/>
      <point x="250" y="-35" type="curve" smooth="yes"/>
      <point x="185" y="-35"/>
      <point x="135" y="-80"/>
      <point x="135" y="-150" type="curve" smooth="yes"/>
      <point x="135" y="-215"/>
      <point x="185" y="-260"/>
    </contour>
    <contour>
      <point x="500" y="-260" type="curve" smooth="yes"/>
      <point x="570" y="-260"/>
      <point x="615" y="-215"/>
      <point x="615" y="-150" type="curve" smooth="yes"/>
      <point x="615" y="-80"/>
      <point x="570" y="-35"/>
      <point x="500" y="-35" type="curve" smooth="yes"/>
      <point x="435" y="-35"/>
      <point x="385" y="-80"/>
      <point x="385" y="-150" type="curve" smooth="yes"/>
      <point x="385" y="-215"/>
      <point x="435" y="-260"/>
    </contour>
    <contour>
      <point x="750" y="-260" type="curve" smooth="yes"/>
      <point x="820" y="-260"/>
      <point x="865" y="-215"/>
      <point x="865" y="-150" type="curve" smooth="yes"/>
      <point x="865" y="-80"/>
      <point x="820" y="-35"/>
      <point x="750" y="-35" type="curve" smooth="yes"/>
      <point x="685" y="-35"/>
      <point x="635" y="-80"/>
      <point x="635" y="-150" type="curve" smooth="yes"/>
      <point x="635" y="-215"/>
      <point x="685" y="-260"/>
    </contour>
    <contour>
      <point x="1000" y="-260" type="curve"/>
      <point x="1000" y="-35" type="line"/>
      <point x="925" y="-35"/>
      <point x="880" y="-80"/>
      <point x="880" y="-150" type="curve" smooth="yes"/>
      <point x="880" y="-215"/>
      <point x="925" y="-260"/>
    </contour>
  </outline>
</glyph>
<glyph name="blackshade" format="1">
  <advance width="1000"/>
  <unicode hex="2594"/>
  <outline>
    <contour>
      <point x="-5" y="600" type="curve"/>
      <point x="-5" y="525"/>
      <point x="55" y="470"/>
      <point x="125" y="470" type="curve" smooth="yes"/>
      <point x="200" y="470"/>
      <point x="255" y="525"/>
      <point x="255" y="600" type="curve"/>
      <point x="255" y="675"/>
      <point x="200" y="730"/>
      <point x="125" y="730" type="curve" smooth="yes"/>
      <point x="55" y="730"/>
      <point x="-5" y="675"/>
    </contour>
    <contour>
      <point x="245" y="600" type="curve"/>
      <point x="245" y="525"/>
      <point x="305" y="470"/>
      <point x="375" y="470" type="curve" smooth="yes"/>
      <point x="450" y="470"/>
      <point x="505" y="525"/>
      <point x="505" y="600" type="curve"/>
      <point x="505" y="675"/>
      <point x="450" y="730"/>
      <point x="375" y="730" type="curve" smooth="yes"/>
      <point x="305" y="730"/>
      <point x="245" y="675"/>
    </contour>
    <contour>
      <point x="495" y="600" type="curve"/>
      <point x="495" y="525"/>
      <point x="555" y="470"/>
      <point x="625" y="470" type="curve" smooth="yes"/>
      <point x="700" y="470"/>
      <point x="755" y="525"/>
      <point x="755" y="600" type="curve"/>
      <point x="755" y="675"/>
      <point x="700" y="730"/>
      <point x="625" y="730" type="curve" smooth="yes"/>
      <point x="555" y="730"/>
      <point x="495" y="675"/>
    </contour>
    <contour>
      <point x="740" y="600" type="curve"/>
      <point x="740" y="520"/>
      <point x="800" y="465"/>
      <point x="875" y="465" type="curve" smooth="yes"/>
      <point x="955" y="465"/>
      <point x="1010" y="520"/>
      <point x="1010" y="600" type="curve"/>
      <point x="1010" y="680"/>
      <point x="955" y="735"/>
      <point x="875" y="735" type="curve" smooth="yes"/>
      <point x="800" y="735"/>
      <point x="740" y="680"/>
    </contour>
    <contour>
      <point x="0" y="220" type="line"/>
      <point x="75" y="220"/>
      <point x="130" y="275"/>
      <point x="130" y="350" type="curve"/>
      <point x="130" y="425"/>
      <point x="75" y="480"/>
      <point x="0" y="480" type="curve"/>
    </contour>
    <contour>
      <point x="120" y="350" type="curve"/>
      <point x="120" y="275"/>
      <point x="180" y="220"/>
      <point x="250" y="220" type="curve" smooth="yes"/>
      <point x="325" y="220"/>
      <point x="380" y="275"/>
      <point x="380" y="350" type="curve"/>
      <point x="380" y="425"/>
      <point x="325" y="480"/>
      <point x="250" y="480" type="curve" smooth="yes"/>
      <point x="180" y="480"/>
      <point x="120" y="425"/>
    </contour>
    <contour>
      <point x="370" y="350" type="curve"/>
      <point x="370" y="275"/>
      <point x="430" y="220"/>
      <point x="500" y="220" type="curve" smooth="yes"/>
      <point x="575" y="220"/>
      <point x="630" y="275"/>
      <point x="630" y="350" type="curve"/>
      <point x="630" y="425"/>
      <point x="575" y="480"/>
      <point x="500" y="480" type="curve" smooth="yes"/>
      <point x="430" y="480"/>
      <point x="370" y="425"/>
    </contour>
    <contour>
      <point x="615" y="350" type="curve"/>
      <point x="615" y="270"/>
      <point x="675" y="215"/>
      <point x="750" y="215" type="curve" smooth="yes"/>
      <point x="830" y="215"/>
      <point x="885" y="270"/>
      <point x="885" y="350" type="curve"/>
      <point x="885" y="430"/>
      <point x="830" y="485"/>
      <point x="750" y="485" type="curve" smooth="yes"/>
      <point x="675" y="485"/>
      <point x="615" y="430"/>
    </contour>
    <contour>
      <point x="1000" y="220" type="curve"/>
      <point x="1000" y="480" type="line"/>
      <point x="925" y="480"/>
      <point x="870" y="425"/>
      <point x="870" y="350" type="curve"/>
      <point x="870" y="275"/>
      <point x="925" y="220"/>
    </contour>
    <contour>
      <point x="-5" y="100" type="curve"/>
      <point x="-5" y="25"/>
      <point x="55" y="-30"/>
      <point x="125" y="-30" type="curve" smooth="yes"/>
      <point x="200" y="-30"/>
      <point x="255" y="25"/>
      <point x="255" y="100" type="curve"/>
      <point x="255" y="175"/>
      <point x="200" y="230"/>
      <point x="125" y="230" type="curve" smooth="yes"/>
      <point x="55" y="230"/>
      <point x="-5" y="175"/>
    </contour>
    <contour>
      <point x="245" y="100" type="curve"/>
      <point x="245" y="25"/>
      <point x="305" y="-30"/>
      <point x="375" y="-30" type="curve" smooth="yes"/>
      <point x="450" y="-30"/>
      <point x="505" y="25"/>
      <point x="505" y="100" type="curve"/>
      <point x="505" y="175"/>
      <point x="450" y="230"/>
      <point x="375" y="230" type="curve" smooth="yes"/>
      <point x="305" y="230"/>
      <point x="245" y="175"/>
    </contour>
    <contour>
      <point x="495" y="100" type="curve"/>
      <point x="495" y="25"/>
      <point x="555" y="-30"/>
      <point x="625" y="-30" type="curve" smooth="yes"/>
      <point x="700" y="-30"/>
      <point x="755" y="25"/>
      <point x="755" y="100" type="curve"/>
      <point x="755" y="175"/>
      <point x="700" y="230"/>
      <point x="625" y="230" type="curve" smooth="yes"/>
      <point x="555" y="230"/>
      <point x="495" y="175"/>
    </contour>
    <contour>
      <point x="740" y="100" type="curve"/>
      <point x="740" y="20"/>
      <point x="800" y="-35"/>
      <point x="875" y="-35" type="curve" smooth="yes"/>
      <point x="955" y="-35"/>
      <point x="1010" y="20"/>
      <point x="1010" y="100" type="curve"/>
      <point x="1010" y="180"/>
      <point x="955" y="235"/>
      <point x="875" y="235" type="curve" smooth="yes"/>
      <point x="800" y="235"/>
      <point x="740" y="180"/>
    </contour>
    <contour>
      <point x="0" y="-280" type="line"/>
      <point x="75" y="-280"/>
      <point x="130" y="-225"/>
      <point x="130" y="-150" type="curve"/>
      <point x="130" y="-75"/>
      <point x="75" y="-20"/>
      <point x="0" y="-20" type="curve"/>
    </contour>
    <contour>
      <point x="120" y="-150" type="curve"/>
      <point x="120" y="-225"/>
      <point x="180" y="-280"/>
      <point x="250" y="-280" type="curve" smooth="yes"/>
      <point x="325" y="-280"/>
      <point x="380" y="-225"/>
      <point x="380" y="-150" type="curve"/>
      <point x="380" y="-75"/>
      <point x="325" y="-20"/>
      <point x="250" y="-20" type="curve" smooth="yes"/>
      <point x="180" y="-20"/>
      <point x="120" y="-75"/>
    </contour>
    <contour>
      <point x="370" y="-150" type="curve"/>
      <point x="370" y="-225"/>
      <point x="430" y="-280"/>
      <point x="500" y="-280" type="curve" smooth="yes"/>
      <point x="575" y="-280"/>
      <point x="630" y="-225"/>
      <point x="630" y="-150" type="curve"/>
      <point x="630" y="-75"/>
      <point x="575" y="-20"/>
      <point x="500" y="-20" type="curve" smooth="yes"/>
      <point x="430" y="-20"/>
      <point x="370" y="-75"/>
    </contour>
    <contour>
      <point x="615" y="-150" type="curve"/>
      <point x="615" y="-230"/>
      <point x="675" y="-285"/>
      <point x="750" y="-285" type="curve" smooth="yes"/>
      <point x="830" y="-285"/>
      <point x="885" y="-230"/>
      <point x="885" y="-150" type="curve"/>
      <point x="885" y="-70"/>
      <point x="830" y="-15"/>
      <point x="750" y="-15" type="curve" smooth="yes"/>
      <point x="675" y="-15"/>
      <point x="615" y="-70"/>
    </contour>
    <contour>
      <point x="1000" y="-280" type="curve"/>
      <point x="1000" y="-20" type="line"/>
      <point x="925" y="-20"/>
      <point x="870" y="-75"/>
      <point x="870" y="-150" type="curve"/>
      <point x="870" y="-225"/>
      <point x="925" y="-280"/>
    </contour>
  </outline>
</glyph>
<glyph name="squareuprighttolowleftfill" format="1">
  <advance width="1000"/>
  <unicode hex="25A8"/>
  <outline>
    <contour>
      <point x="850" y="-100" type="line"/>
      <point x="150" y="-100" type="line"/>
      <point x="150" y="600" type="line"/>
      <point x="850" y="600" type="line"/>
    </contour>
    <contour>
      <point x="950" y="-200" type="line"/>
      <point x="950" y="700" type="line"/>
      <point x="50" y="700" type="line"/>
      <point x="50" y="-200" type="line"/>
    </contour>
    <contour>
      <point x="925" y="605" type="line"/>
      <point x="855" y="675" type="line"/>
      <point x="75" y="-105" type="line"/>
      <point x="145" y="-175" type="line"/>
    </contour>
    <contour>
      <point x="690" y="650" type="line"/>
      <point x="550" y="650" type="line"/>
      <point x="100" y="200" type="line"/>
      <point x="100" y="60" type="line"/>
    </contour>
    <contour>
      <point x="410" y="650" type="line"/>
      <point x="285" y="665" type="line"/>
      <point x="95" y="475" type="line"/>
      <point x="95" y="335" type="line"/>
    </contour>
    <contour>
      <point x="310" y="-150" type="line"/>
      <point x="450" y="-150" type="line"/>
      <point x="900" y="300" type="line"/>
      <point x="900" y="440" type="line"/>
    </contour>
    <contour>
      <point x="590" y="-150" type="line"/>
      <point x="715" y="-165" type="line"/>
      <point x="905" y="25" type="line"/>
      <point x="905" y="165" type="line"/>
    </contour>
  </outline>
</glyph>
<glyph name="blackdiamond" format="1">
  <advance width="1000"/>
  <unicode hex="25C6"/>
  <outline>
    <contour>
      <point x="500" y="-245" type="line"/>
      <point x="995" y="250" type="line"/>
      <point x="500" y="745" type="line"/>
      <point x="5" y="250" type="line"/>
    </contour>
  </outline>
</glyph>
<glyph name="whitecircle" format="1">
  <advance width="1000"/>
  <unicode hex="25CB"/>
  <outline>
    <contour>
      <point x="500" y="-210" type="curve" smooth="yes"/>
      <point x="800" y="-210"/>
      <point x="960" y="-55"/>
      <point x="960" y="250" type="curve" smooth="yes"/>
      <point x="960" y="550"/>
      <point x="800" y="710"/>
      <point x="500" y="710" type="curve" smooth="yes"/>
      <point x="200" y="710"/>
      <point x="40" y="550"/>
      <point x="40" y="250" type="curve" smooth="yes"/>
      <point x="40" y="-55"/>
      <point x="200" y="-210"/>
    </contour>
    <contour>
      <point x="500" y="-110" type="curve" smooth="yes"/>
      <point x="265" y="-110"/>
      <point x="140" y="10"/>
      <point x="140" y="250" type="curve" smooth="yes"/>
      <point x="140" y="485"/>
      <point x="265" y="610"/>
      <point x="500" y="610" type="curve" smooth="yes"/>
      <point x="735" y="610"/>
      <point x="860" y="485"/>
      <point x="860" y="250" type="curve" smooth="yes"/>
      <point x="860" y="10"/>
      <point x="735" y="-110"/>
    </contour>
  </outline>
</glyph>
<glyph name="dottedcircle" format="1">
  <advance width="1000"/>
  <unicode hex="25CC"/>
  <outline>
    <contour>
      <point x="90" y="190" type="curve" smooth="yes"/>
      <point x="125" y="190"/>
      <point x="150" y="215"/>
      <point x="150" y="250" type="curve" smooth="yes"/>
      <point x="150" y="285"/>
      <point x="125" y="310"/>
      <point x="90" y="310" type="curve" smooth="yes"/>
      <point x="55" y="310"/>
      <point x="30" y="285"/>
      <point x="30" y="250" type="curve" smooth="yes"/>
      <point x="30" y="215"/>
      <point x="55" y="190"/>
    </contour>
    <contour>
      <point x="500" y="-220" type="curve" smooth="yes"/>
      <point x="535" y="-220"/>
      <point x="560" y="-195"/>
      <point x="560" y="-160" type="curve" smooth="yes"/>
      <point x="560" y="-125"/>
      <point x="535" y="-100"/>
      <point x="500" y="-100" type="curve" smooth="yes"/>
      <point x="465" y="-100"/>
      <point x="440" y="-125"/>
      <point x="440" y="-160" type="curve" smooth="yes"/>
      <point x="440" y="-195"/>
      <point x="465" y="-220"/>
    </contour>
    <contour>
      <point x="125" y="-15" type="curve" smooth="yes"/>
      <point x="160" y="-15"/>
      <point x="185" y="10"/>
      <point x="185" y="45" type="curve" smooth="yes"/>
      <point x="185" y="80"/>
      <point x="160" y="105"/>
      <point x="125" y="105" type="curve" smooth="yes"/>
      <point x="90" y="105"/>
      <point x="65" y="80"/>
      <point x="65" y="45" type="curve" smooth="yes"/>
      <point x="65" y="10"/>
      <point x="90" y="-15"/>
    </contour>
    <contour>
      <point x="270" y="-170" type="curve" smooth="yes"/>
      <point x="305" y="-170"/>
      <point x="330" y="-145"/>
      <point x="330" y="-110" type="curve" smooth="yes"/>
      <point x="330" y="-75"/>
      <point x="305" y="-50"/>
      <point x="270" y="-50" type="curve" smooth="yes"/>
      <point x="235" y="-50"/>
      <point x="210" y="-75"/>
      <point x="210" y="-110" type="curve" smooth="yes"/>
      <point x="210" y="-145"/>
      <point x="235" y="-170"/>
    </contour>
    <contour>
      <point x="910" y="190" type="curve" smooth="yes"/>
      <point x="945" y="190"/>
      <point x="970" y="215"/>
      <point x="970" y="250" type="curve" smooth="yes"/>
      <point x="970" y="285"/>
      <point x="945" y="310"/>
      <point x="910" y="310" type="curve" smooth="yes"/>
      <point x="875" y="310"/>
      <point x="850" y="285"/>
      <point x="850" y="250" type="curve" smooth="yes"/>
      <point x="850" y="215"/>
      <point x="875" y="190"/>
    </contour>
    <contour>
      <point x="875" y="-15" type="curve" smooth="yes"/>
      <point x="910" y="-15"/>
      <point x="935" y="10"/>
      <point x="935" y="45" type="curve" smooth="yes"/>
      <point x="935" y="80"/>
      <point x="910" y="105"/>
      <point x="875" y="105" type="curve" smooth="yes"/>
      <point x="840" y="105"/>
      <point x="815" y="80"/>
      <point x="815" y="45" type="curve" smooth="yes"/>
      <point x="815" y="10"/>
      <point x="840" y="-15"/>
    </contour>
    <contour>
      <point x="730" y="-170" type="curve" smooth="yes"/>
      <point x="765" y="-170"/>
      <point x="790" y="-145"/>
      <point x="790" y="-110" type="curve" smooth="yes"/>
      <point x="790" y="-75"/>
      <point x="765" y="-50"/>
      <point x="730" y="-50" type="curve" smooth="yes"/>
      <point x="695" y="-50"/>
      <point x="670" y="-75"/>
      <point x="670" y="-110" type="curve" smooth="yes"/>
      <point x="670" y="-145"/>
      <point x="695" y="-170"/>
    </contour>
    <contour>
      <point x="500" y="720" type="curve" smooth="yes"/>
      <point x="465" y="720"/>
      <point x="440" y="695"/>
      <point x="440" y="660" type="curve" smooth="yes"/>
      <point x="440" y="625"/>
      <point x="465" y="600"/>
      <point x="500" y="600" type="curve" smooth="yes"/>
      <point x="535" y="600"/>
      <point x="560" y="625"/>
      <point x="560" y="660" type="curve" smooth="yes"/>
      <point x="560" y="695"/>
      <point x="535" y="720"/>
    </contour>
    <contour>
      <point x="125" y="515" type="curve" smooth="yes"/>
      <point x="90" y="515"/>
      <point x="65" y="490"/>
      <point x="65" y="455" type="curve" smooth="yes"/>
      <point x="65" y="420"/>
      <point x="90" y="395"/>
      <point x="125" y="395" type="curve" smooth="yes"/>
      <point x="160" y="395"/>
      <point x="185" y="420"/>
      <point x="185" y="455" type="curve" smooth="yes"/>
      <point x="185" y="490"/>
      <point x="160" y="515"/>
    </contour>
    <contour>
      <point x="270" y="670" type="curve" smooth="yes"/>
      <point x="235" y="670"/>
      <point x="210" y="645"/>
      <point x="210" y="610" type="curve" smooth="yes"/>
      <point x="210" y="575"/>
      <point x="235" y="550"/>
      <point x="270" y="550" type="curve" smooth="yes"/>
      <point x="305" y="550"/>
      <point x="330" y="575"/>
      <point x="330" y="610" type="curve" smooth="yes"/>
      <point x="330" y="645"/>
      <point x="305" y="670"/>
    </contour>
    <contour>
      <point x="875" y="515" type="curve" smooth="yes"/>
      <point x="840" y="515"/>
      <point x="815" y="490"/>
      <point x="815" y="455" type="curve" smooth="yes"/>
      <point x="815" y="420"/>
      <point x="840" y="395"/>
      <point x="875" y="395" type="curve" smooth="yes"/>
      <point x="910" y="395"/>
      <point x="935" y="420"/>
      <point x="935" y="455" type="curve" smooth="yes"/>
      <point x="935" y="490"/>
      <point x="910" y="515"/>
    </contour>
    <contour>
      <point x="730" y="670" type="curve" smooth="yes"/>
      <point x="695" y="670"/>
      <point x="670" y="645"/>
      <point x="670" y="610" type="curve" smooth="yes"/>
      <point x="670" y="575"/>
      <point x="695" y="550"/>
      <point x="730" y="550" type="curve" smooth="yes"/>
      <point x="765" y="550"/>
      <point x="790" y="575"/>
      <point x="790" y="610" type="curve" smooth="yes"/>
      <point x="790" y="645"/>
      <point x="765" y="670"/>
    </contour>
  </outline>
</glyph>
<glyph name="bullseye" format="1">
  <advance width="1000"/>
  <unicode hex="25CE"/>
  <outline>
    <contour>
      <point x="500" y="-210" type="curve" smooth="yes"/>
      <point x="800" y="-210"/>
      <point x="960" y="-55"/>
      <point x="960" y="250" type="curve" smooth="yes"/>
      <point x="960" y="550"/>
      <point x="800" y="710"/>
      <point x="500" y="710" type="curve" smooth="yes"/>
      <point x="200" y="710"/>
      <point x="40" y="550"/>
      <point x="40" y="250" type="curve" smooth="yes"/>
      <point x="40" y="-55"/>
      <point x="200" y="-210"/>
    </contour>
    <contour>
      <point x="500" y="-110" type="curve" smooth="yes"/>
      <point x="265" y="-110"/>
      <point x="140" y="10"/>
      <point x="140" y="250" type="curve" smooth="yes"/>
      <point x="140" y="485"/>
      <point x="265" y="610"/>
      <point x="500" y="610" type="curve" smooth="yes"/>
      <point x="735" y="610"/>
      <point x="860" y="485"/>
      <point x="860" y="250" type="curve" smooth="yes"/>
      <point x="860" y="10"/>
      <point x="735" y="-110"/>
    </contour>
    <contour>
      <point x="500" y="-12" type="curve" smooth="yes"/>
      <point x="671" y="-12"/>
      <point x="762" y="76"/>
      <point x="762" y="250" type="curve" smooth="yes"/>
      <point x="762" y="421"/>
      <point x="671" y="512"/>
      <point x="500" y="512" type="curve" smooth="yes"/>
      <point x="329" y="512"/>
      <point x="238" y="421"/>
      <point x="238" y="250" type="curve" smooth="yes"/>
      <point x="238" y="76"/>
      <point x="329" y="-12"/>
    </contour>
    <contour>
      <point x="500" y="86" type="curve" smooth="yes"/>
      <point x="392" y="86"/>
      <point x="336" y="142"/>
      <point x="336" y="250" type="curve" smooth="yes"/>
      <point x="336" y="358"/>
      <point x="392" y="414"/>
      <point x="500" y="414" type="curve" smooth="yes"/>
      <point x="608" y="414"/>
      <point x="664" y="358"/>
      <point x="664" y="250" type="curve" smooth="yes"/>
      <point x="664" y="142"/>
      <point x="608" y="86"/>
    </contour>
  </outline>
</glyph>
<glyph name="blackcircle" format="1">
  <advance width="1000"/>
  <unicode hex="25CF"/>
  <outline>
    <contour>
      <point x="500" y="-210" type="curve" smooth="yes"/>
      <point x="800" y="-210"/>
      <point x="960" y="-55"/>
      <point x="960" y="250" type="curve" smooth="yes"/>
      <point x="960" y="550"/>
      <point x="800" y="710"/>
      <point x="500" y="710" type="curve" smooth="yes"/>
      <point x="200" y="710"/>
      <point x="40" y="550"/>
      <point x="40" y="250" type="curve" smooth="yes"/>
      <point x="40" y="-55"/>
      <point x="200" y="-210"/>
    </contour>
  </outline>
</glyph>
<glyph name="circlewithlowerhalfblack" format="1">
  <advance width="1000"/>
  <unicode hex="25D2"/>
  <outline>
    <contour>
      <point x="960" y="250" type="curve" smooth="yes"/>
      <point x="960" y="550"/>
      <point x="805" y="710"/>
      <point x="500" y="710" type="curve" smooth="yes"/>
      <point x="200" y="710"/>
      <point x="40" y="550"/>
      <point x="40" y="250" type="curve" smooth="yes"/>
      <point x="40" y="-50"/>
      <point x="200" y="-210"/>
      <point x="500" y="-210" type="curve" smooth="yes"/>
      <point x="805" y="-210"/>
      <point x="960" y="-50"/>
    </contour>
    <contour>
      <point x="860" y="250" type="curve"/>
      <point x="140" y="250" type="line"/>
      <point x="140" y="485"/>
      <point x="265" y="610"/>
      <point x="500" y="610" type="curve" smooth="yes"/>
      <point x="740" y="610"/>
      <point x="860" y="485"/>
    </contour>
  </outline>
</glyph>
<glyph name="circleupleftquadrantwhite" format="1">
  <advance width="1000"/>
  <unicode hex="25D5"/>
  <outline>
    <contour>
      <point x="500" y="-210" type="curve" smooth="yes"/>
      <point x="800" y="-210"/>
      <point x="960" y="-55"/>
      <point x="960" y="250" type="curve" smooth="yes"/>
      <point x="960" y="550"/>
      <point x="800" y="710"/>
      <point x="500" y="710" type="curve" smooth="yes"/>
      <point x="200" y="710"/>
      <point x="40" y="550"/>
      <point x="40" y="250" type="curve" smooth="yes"/>
      <point x="40" y="-55"/>
      <point x="200" y="-210"/>
    </contour>
    <contour>
      <point x="500" y="250" type="line"/>
      <point x="140" y="250" type="line"/>
      <point x="140" y="485"/>
      <point x="265" y="610"/>
      <point x="500" y="610" type="curve"/>
    </contour>
  </outline>
</glyph>
<glyph name="blackupperlefttriangle" format="1">
  <advance width="1000"/>
  <unicode hex="25E4"/>
  <outline>
    <contour>
      <point x="950" y="700" type="line"/>
      <point x="50" y="700" type="line"/>
      <point x="50" y="-200" type="line"/>
    </contour>
  </outline>
</glyph>
<glyph name="blackupperrighttriangle" format="1">
  <advance width="1000"/>
  <unicode hex="25E5"/>
  <outline>
    <contour>
      <point x="50" y="700" type="line"/>
      <point x="950" y="-200" type="line"/>
      <point x="950" y="700" type="line"/>
    </contour>
  </outline>
</glyph>
<glyph name="squarewithrighthalfblack" format="1">
  <advance width="1000"/>
  <unicode hex="25E8"/>
  <outline>
    <contour>
      <point x="150" y="-100" type="line"/>
      <point x="150" y="600" type="line"/>
      <point x="500" y="600" type="line"/>
      <point x="500" y="-100" type="line"/>
    </contour>
    <contour>
      <point x="50" y="-200" type="line"/>
      <point x="950" y="-200" type="line"/>
      <point x="950" y="700" type="line"/>
      <point x="50" y="700" type="line"/>
    </contour>
  </outline>
</glyph>
<glyph name="squareupleftdiagonalhalfblack" format="1">
  <advance width="1000"/>
  <unicode hex="25E9"/>
  <outline>
    <contour>
      <point x="850" y="600" type="line"/>
      <point x="850" y="-100" type="line"/>
      <point x="150" y="-100" type="line"/>
    </contour>
    <contour>
      <point x="950" y="700" type="line"/>
      <point x="50" y="700" type="line"/>
      <point x="50" y="-200" type="line"/>
      <point x="950" y="-200" type="line"/>
    </contour>
  </outline>
</glyph>
<glyph name="blacksmilingface" format="1">
  <advance width="1000"/>
  <unicode hex="263B"/>
  <outline>
    <contour>
      <point x="500" y="-210" type="curve" smooth="yes"/>
      <point x="800" y="-210"/>
      <point x="960" y="-55"/>
      <point x="960" y="250" type="curve" smooth="yes"/>
      <point x="960" y="550"/>
      <point x="800" y="710"/>
      <point x="500" y="710" type="curve" smooth="yes"/>
      <point x="200" y="710"/>
      <point x="40" y="550"/>
      <point x="40" y="250" type="curve" smooth="yes"/>
      <point x="40" y="-55"/>
      <point x="200" y="-210"/>
    </contour>
    <contour>
      <point x="300" y="290" type="curve" smooth="yes"/>
      <point x="255" y="290"/>
      <point x="220" y="325"/>
      <point x="220" y="375" type="curve" smooth="yes"/>
      <point x="220" y="425"/>
      <point x="255" y="455"/>
      <point x="300" y="455" type="curve" smooth="yes"/>
      <point x="350" y="455"/>
      <point x="385" y="425"/>
      <point x="385" y="375" type="curve" smooth="yes"/>
      <point x="385" y="325"/>
      <point x="350" y="290"/>
    </contour>
    <contour>
      <point x="700" y="290" type="curve" smooth="yes"/>
      <point x="650" y="290"/>
      <point x="615" y="325"/>
      <point x="615" y="375" type="curve" smooth="yes"/>
      <point x="615" y="425"/>
      <point x="650" y="455"/>
      <point x="700" y="455" type="curve" smooth="yes"/>
      <point x="750" y="455"/>
      <point x="780" y="425"/>
      <point x="780" y="375" type="curve" smooth="yes"/>
      <point x="780" y="325"/>
      <point x="750" y="290"/>
    </contour>
    <contour>
      <point x="500" y="-30" type="curve" smooth="yes"/>
      <point x="375" y="-30"/>
      <point x="300" y="35"/>
      <point x="300" y="165" type="curve"/>
      <point x="700" y="165" type="line"/>
      <point x="700" y="35"/>
      <point x="630" y="-30"/>
    </contour>
  </outline>
</glyph>
<glyph name="diamondinsquare" format="1">
  <advance width="1000"/>
  <unicode hex="26CB"/>
  <outline>
    <contour>
      <point x="150" y="-100" type="line"/>
      <point x="150" y="600" type="line"/>
      <point x="850" y="600" type="line"/>
      <point x="850" y="-100" type="line"/>
    </contour>
    <contour>
      <point x="50" y="-200" type="line"/>
      <point x="950" y="-200" type="line"/>
      <point x="950" y="700" type="line"/>
      <point x="50" y="700" type="line"/>
    </contour>
    <contour>
      <point x="50" y="295" type="line"/>
      <point x="515" y="-170" type="line"/>
      <point x="555" y="-70" type="line"/>
      <point x="180" y="305" type="line"/>
    </contour>
    <contour>
      <point x="460" y="555" type="line"/>
      <point x="820" y="195" type="line"/>
      <point x="875" y="280" type="line"/>
      <point x="475" y="680" type="line"/>
    </contour>
    <contour>
      <point x="900" y="245" type="line"/>
      <point x="810" y="295" type="line"/>
      <point x="455" y="-60" type="line"/>
      <point x="485" y="-170" type="line"/>
    </contour>
    <contour>
      <point x="555" y="570" type="line"/>
      <point x="525" y="680" type="line"/>
      <point x="115" y="270" type="line"/>
      <point x="180" y="195" type="line"/>
    </contour>
  </outline>
</glyph>
<glyph name="victoryhand" format="1">
  <advance width="600"/>
  <unicode hex="270C"/>
  <outline>
    <contour>
      <point x="510" y="0" type="curve"/>
      <point x="480" y="-25"/>
      <point x="395" y="-50"/>
      <point x="315" y="-50" type="curve" smooth="yes"/>
      <point x="240" y="-50"/>
      <point x="170" y="-30"/>
      <point x="140" y="10" type="curve" smooth="yes"/>
      <point x="90" y="80"/>
      <point x="75" y="220"/>
      <point x="85" y="265" type="curve" smooth="yes"/>
      <point x="95" y="305"/>
      <point x="110" y="340"/>
      <point x="220" y="385" type="curve" smooth="yes"/>
      <point x="265" y="405"/>
      <point x="330" y="410"/>
      <point x="350" y="380" type="curve" smooth="yes"/>
      <point x="365" y="355"/>
      <point x="340" y="295"/>
      <point x="270" y="250" type="curve" smooth="yes"/>
      <point x="255" y="240" type="line" smooth="yes"/>
      <point x="230" y="220"/>
      <point x="205" y="235"/>
      <point x="195" y="255" type="curve"/>
      <point x="290" y="320"/>
      <point x="315" y="340"/>
      <point x="310" y="355" type="curve" smooth="yes"/>
      <point x="305" y="365"/>
      <point x="295.0715437380433" y="365.0330201867892"/>
      <point x="230" y="335" type="curve" smooth="yes"/>
      <point x="162.2234099129551" y="298.85248528690937"/>
      <point x="144.87409994453157" y="284.68524986132894"/>
      <point x="135" y="260" type="curve" smooth="yes"/>
      <point x="120.00369631730076" y="220.00985684613536"/>
      <point x="137.23991436273317" y="109.73157537817168"/>
      <point x="175" y="45" type="curve"/>
      <point x="216.66977857808055" y="68.14987698782254"/>
      <point x="275" y="80"/>
      <point x="335" y="80" type="curve" smooth="yes"/>
      <point x="391.1290322580645" y="80.0"/>
      <point x="443.240724902413" y="67.56945632319027"/>
      <point x="480" y="40" type="curve"/>
      <point x="490.07441653457465" y="95.40929094016046"/>
      <point x="499.776923610938" y="165.89230555624786"/>
      <point x="490" y="205" type="curve"/>
      <point x="530" y="215" type="line"/>
      <point x="555" y="150"/>
      <point x="550" y="75"/>
    </contour>
    <contour>
      <point x="370" y="20" type="curve" smooth="yes"/>
      <point x="370" y="30"/>
      <point x="365" y="40"/>
      <point x="335" y="40" type="curve"/>
      <point x="295" y="40"/>
      <point x="290" y="30"/>
      <point x="290" y="20" type="curve" smooth="yes"/>
      <point x="290" y="10"/>
      <point x="295" y="0"/>
      <point x="335" y="0" type="curve"/>
      <point x="365" y="0"/>
      <point x="370" y="10"/>
    </contour>
    <contour>
      <point x="245" y="415" type="curve"/>
      <point x="215.45454545454547" y="415.0"/>
      <point x="194.4395255882549" y="419.04683834551224"/>
      <point x="180" y="475" type="curve" smooth="yes"/>
      <point x="140" y="630" type="line" smooth="yes"/>
      <point x="128.45938086110007" y="674.7198991632372"/>
      <point x="120" y="690"/>
      <point x="110" y="685" type="curve" smooth="yes"/>
      <point x="95" y="675"/>
      <point x="90" y="590"/>
      <point x="155" y="335" type="curve"/>
      <point x="160" y="315" type="line"/>
      <point x="135" y="315" type="line"/>
      <point x="120" y="315"/>
      <point x="105" y="320"/>
      <point x="95" y="360" type="curve" smooth="yes"/>
      <point x="20" y="650"/>
      <point x="55" y="720"/>
      <point x="110" y="735" type="curve" smooth="yes"/>
      <point x="135" y="740"/>
      <point x="165" y="730"/>
      <point x="185" y="645" type="curve" smooth="yes"/>
      <point x="225" y="485" type="line" smooth="yes"/>
      <point x="230" y="470"/>
      <point x="231.66666666666666" y="460.0"/>
      <point x="245" y="460" type="curve" smooth="yes"/>
      <point x="258.3333333333333" y="460.0"/>
      <point x="260" y="470"/>
      <point x="265" y="485" type="curve" smooth="yes"/>
      <point x="305" y="650" type="line" smooth="yes"/>
      <point x="325" y="725"/>
      <point x="350" y="750"/>
      <point x="385" y="740" type="curve" smooth="yes"/>
      <point x="415" y="730"/>
      <point x="460" y="715"/>
      <point x="420" y="520" type="curve" smooth="yes"/>
      <point x="415" y="490"/>
      <point x="400" y="480"/>
      <point x="390" y="475" type="curve"/>
      <point x="360" y="470" type="line"/>
      <point x="395" y="640"/>
      <point x="400" y="675"/>
      <point x="380" y="685" type="curve" smooth="yes"/>
      <point x="365" y="690"/>
      <point x="360.1918320440925" y="679.6349023936931"/>
      <point x="350" y="640" type="curve" smooth="yes"/>
      <point x="305" y="465" type="line" smooth="yes"/>
      <point x="293.40153017432516" y="419.89483956681994"/>
      <point x="269.0" y="415.0"/>
    </contour>
    <contour>
      <point x="485" y="400" type="curve" smooth="yes"/>
      <point x="470" y="400"/>
      <point x="470" y="380"/>
      <point x="470" y="365" type="curve" smooth="yes"/>
      <point x="470" y="260" type="line" smooth="yes"/>
      <point x="470" y="245"/>
      <point x="470" y="230"/>
      <point x="490" y="230" type="curve" smooth="yes"/>
      <point x="510" y="230"/>
      <point x="515" y="285"/>
      <point x="515" y="320" type="curve" smooth="yes"/>
      <point x="515" y="365"/>
      <point x="500" y="400"/>
    </contour>
    <contour>
      <point x="455" y="180"/>
      <point x="440" y="205"/>
      <point x="440" y="270" type="curve"/>
      <point x="445" y="385" type="line"/>
      <point x="450" y="425"/>
      <point x="455" y="450"/>
      <point x="490" y="450" type="curve" smooth="yes"/>
      <point x="515" y="450"/>
      <point x="565" y="420"/>
      <point x="565" y="320" type="curve" smooth="yes"/>
      <point x="565" y="230"/>
      <point x="525" y="180"/>
      <point x="490" y="180" type="curve" smooth="yes"/>
    </contour>
    <contour>
      <point x="380" y="440" type="curve" smooth="yes"/>
      <point x="370" y="440"/>
      <point x="365" y="430"/>
      <point x="365" y="415" type="curve" smooth="yes"/>
      <point x="365" y="265" type="line" smooth="yes"/>
      <point x="365" y="250"/>
      <point x="375" y="240"/>
      <point x="390" y="240" type="curve" smooth="yes"/>
      <point x="410" y="240"/>
      <point x="420" y="270"/>
      <point x="420" y="345" type="curve" smooth="yes"/>
      <point x="420" y="395"/>
      <point x="400" y="440"/>
    </contour>
    <contour>
      <point x="390.0" y="190.0" type="curve" smooth="yes"/>
      <point x="354.0" y="190.0"/>
      <point x="325" y="220"/>
      <point x="325" y="265" type="curve"/>
      <point x="325" y="280"/>
      <point x="330" y="305"/>
      <point x="335" y="330" type="curve"/>
      <point x="335" y="380" type="line"/>
      <point x="310" y="460"/>
      <point x="350" y="490"/>
      <point x="385.0" y="490.0" type="curve" smooth="yes"/>
      <point x="420" y="490"/>
      <point x="465.0" y="450.0"/>
      <point x="465.0" y="345.0" type="curve" smooth="yes"/>
      <point x="465.0" y="245.0"/>
      <point x="425.0" y="190.0"/>
    </contour>
  </outline>
</glyph>
<glyph name="squaredsquare" format="1">
  <advance width="1000"/>
  <unicode hex="29C8"/>
  <outline>
    <contour>
      <point x="150" y="-100" type="line"/>
      <point x="150" y="600" type="line"/>
      <point x="850" y="600" type="line"/>
      <point x="850" y="-100" type="line"/>
    </contour>
    <contour>
      <point x="50" y="-200" type="line"/>
      <point x="950" y="-200" type="line"/>
      <point x="950" y="700" type="line"/>
      <point x="50" y="700" type="line"/>
    </contour>
    <contour>
      <point x="100" y="200" type="line"/>
      <point x="900" y="200" type="line"/>
      <point x="900" y="300" type="line"/>
      <point x="100" y="300" type="line"/>
    </contour>
    <contour>
      <point x="550" y="-150" type="line"/>
      <point x="550" y="650" type="line"/>
      <point x="450" y="650" type="line"/>
      <point x="450" y="-150" type="line"/>
    </contour>
  </outline>
</glyph>
<glyph name="dottedsquare" format="1">
  <advance width="1000"/>
  <unicode hex="2B1A"/>
  <outline>
    <contour>
      <point x="150" y="-100" type="line"/>
      <point x="150" y="600" type="line"/>
      <point x="850" y="600" type="line"/>
      <point x="850" y="-100" type="line"/>
    </contour>
    <contour>
      <point x="50" y="-200" type="line"/>
      <point x="950" y="-200" type="line"/>
      <point x="950" y="700" type="line"/>
      <point x="50" y="700" type="line"/>
    </contour>
    <contour>
      <point x="500" y="70" type="curve" smooth="yes"/>
      <point x="385" y="70"/>
      <point x="320" y="130"/>
      <point x="320" y="250" type="curve" smooth="yes"/>
      <point x="320" y="370"/>
      <point x="385" y="430"/>
      <point x="500" y="430" type="curve" smooth="yes"/>
      <point x="620" y="430"/>
      <point x="680" y="370"/>
      <point x="680" y="250" type="curve" smooth="yes"/>
      <point x="680" y="130"/>
      <point x="620" y="70"/>
    </contour>
  </outline>
</glyph>
<glyph name="blacklargesquare" format="1">
  <advance width="1000"/>
  <unicode hex="2B1B"/>
  <outline>
    <contour>
      <point x="50" y="-200" type="line"/>
      <point x="950" y="-200" type="line"/>
      <point x="950" y="700" type="line"/>
      <point x="50" y="700" type="line"/>
    </contour>
  </outline>
</glyph>
<glyph name="AE.small" format="1">
  <advance width="950"/>
  <outline>
    <contour>
      <point x="400" y="0" type="line"/>
      <point x="550" y="0" type="line"/>
      <point x="550" y="500" type="line"/>
      <point x="400" y="500" type="line"/>
    </contour>
    <contour>
      <point x="450" y="0" type="line"/>
      <point x="900" y="0" type="line"/>
      <point x="900" y="150" type="line"/>
      <point x="450" y="150" type="line"/>
    </contour>
    <contour>
      <point x="450" y="350" type="line"/>
      <point x="900" y="350" type="line"/>
      <point x="900" y="500" type="line"/>
      <point x="450" y="500" type="line"/>
    </contour>
    <contour>
      <point x="450" y="200" type="line"/>
      <point x="850" y="200" type="line"/>
      <point x="850" y="300" type="line"/>
      <point x="450" y="300" type="line"/>
    </contour>
    <contour>
      <point x="500" y="50" type="line"/>
      <point x="500" y="200" type="line"/>
      <point x="100" y="200" type="line"/>
      <point x="100" y="50" type="line"/>
    </contour>
    <contour>
      <point x="400" y="500" type="line"/>
      <point x="80" y="435"/>
      <point x="25" y="300"/>
      <point x="25" y="100" type="curve" smooth="yes"/>
      <point x="25" y="0" type="line"/>
      <point x="225" y="0" type="line"/>
      <point x="225" y="100" type="line" smooth="yes"/>
      <point x="225" y="259.09090909090907"/>
      <point x="255.1077949071811" y="315.01754800814575"/>
      <point x="470" y="350" type="curve"/>
    </contour>
  </outline>
</glyph>
<glyph name="A.small" format="1">
  <advance width="600"/>
  <outline>
    <contour>
      <point x="500" y="50" type="line"/>
      <point x="500" y="200" type="line"/>
      <point x="100" y="200" type="line"/>
      <point x="100" y="50" type="line"/>
    </contour>
    <contour>
      <point x="360" y="500" type="curve"/>
      <point x="220" y="375" type="line"/>
      <point x="345" y="295"/>
      <point x="375" y="225"/>
      <point x="375" y="100" type="curve" smooth="yes"/>
      <point x="375" y="0" type="line"/>
      <point x="575" y="0" type="line"/>
      <point x="575" y="100" type="line" smooth="yes"/>
      <point x="575" y="250"/>
      <point x="530" y="395"/>
    </contour>
    <contour>
      <point x="240" y="500" type="line"/>
      <point x="70" y="395"/>
      <point x="25" y="250"/>
      <point x="25" y="100" type="curve" smooth="yes"/>
      <point x="25" y="0" type="line"/>
      <point x="225" y="0" type="line"/>
      <point x="225" y="100" type="line" smooth="yes"/>
      <point x="225" y="225"/>
      <point x="255" y="295"/>
      <point x="380" y="375" type="curve"/>
      <point x="360" y="500" type="line"/>
    </contour>
    <contour>
      <point x="300.0" y="650.0" type="move" name="top"/>
    </contour>
  </outline>
</glyph>
<glyph name="B.small" format="1">
  <advance width="600"/>
  <outline>
    <contour>
      <point x="365" y="500" type="curve" smooth="yes"/>
      <point x="85" y="500" type="line"/>
      <point x="85" y="355" type="line"/>
      <point x="350" y="355" type="line"/>
      <point x="365" y="355"/>
      <point x="375" y="345"/>
      <point x="375" y="330" type="curve"/>
      <point x="575" y="360" type="line"/>
      <point x="575.0" y="450.0"/>
      <point x="501.21621621621625" y="500"/>
    </contour>
    <contour>
      <point x="225" y="0" type="line"/>
      <point x="225" y="500" type="line"/>
      <point x="25" y="500" type="line"/>
      <point x="25" y="0" type="line"/>
    </contour>
    <contour>
      <point x="365" y="0" type="line" smooth="yes"/>
      <point x="501.21621621621625" y="0"/>
      <point x="575.0" y="50.0"/>
      <point x="575" y="140" type="curve"/>
      <point x="375" y="170" type="line"/>
      <point x="375" y="155"/>
      <point x="365" y="145"/>
      <point x="350" y="145" type="curve"/>
      <point x="85" y="145" type="line"/>
      <point x="85" y="0" type="line"/>
    </contour>
    <contour>
      <point x="575" y="140" type="line"/>
      <point x="575.0" y="185.0"/>
      <point x="557.9360339521029" y="227.35465534929904"/>
      <point x="490" y="250" type="curve"/>
      <point x="557.9360339521029" y="272.64534465070096"/>
      <point x="575.0" y="315.0"/>
      <point x="575" y="360" type="curve"/>
      <point x="375" y="330" type="line"/>
      <point x="375.0" y="313.3333333333333"/>
      <point x="366.6666666666667" y="305.0"/>
      <point x="350" y="305" type="curve"/>
      <point x="130" y="305" type="line"/>
      <point x="130" y="300" type="line"/>
      <point x="75" y="300" type="line"/>
      <point x="115" y="250" type="line"/>
      <point x="75" y="200" type="line"/>
      <point x="130" y="200" type="line"/>
      <point x="130" y="195" type="line"/>
      <point x="350" y="195" type="line"/>
      <point x="366.6666666666667" y="195.0"/>
      <point x="375.0" y="186.66666666666666"/>
      <point x="375" y="170" type="curve"/>
    </contour>
  </outline>
</glyph>
<glyph name="D.small" format="1">
  <advance width="600"/>
  <outline>
    <contour>
      <point x="225" y="0" type="line"/>
      <point x="225" y="500" type="line"/>
      <point x="25" y="500" type="line"/>
      <point x="25" y="0" type="line"/>
    </contour>
    <contour>
      <point x="330" y="0" type="line" smooth="yes"/>
      <point x="485.9090909090909" y="0"/>
      <point x="575.0" y="70.0"/>
      <point x="575" y="245" type="curve"/>
      <point x="575" y="250" type="line"/>
      <point x="375" y="250" type="line"/>
      <point x="375" y="240" type="line" smooth="yes"/>
      <point x="375" y="208.88888888888889"/>
      <point x="360.0" y="200.0"/>
      <point x="300" y="200" type="curve"/>
      <point x="125" y="200" type="line"/>
      <point x="145" y="0" type="line"/>
    </contour>
    <contour>
      <point x="330" y="500" type="curve"/>
      <point x="135" y="500" type="line"/>
      <point x="135" y="300" type="line"/>
      <point x="300" y="300" type="line"/>
      <point x="360.0" y="300.0"/>
      <point x="375" y="291.1111111111111"/>
      <point x="375" y="260" type="curve" smooth="yes"/>
      <point x="375" y="250" type="line"/>
      <point x="575" y="250" type="line"/>
      <point x="575" y="255" type="line"/>
      <point x="575.0" y="430.0"/>
      <point x="485.9090909090909" y="500.0"/>
    </contour>
  </outline>
</glyph>
<glyph name="E.small" format="1">
  <advance width="600"/>
  <outline>
    <contour>
      <point x="25" y="0" type="line"/>
      <point x="225" y="0" type="line"/>
      <point x="225" y="500" type="line"/>
      <point x="25" y="500" type="line"/>
    </contour>
    <contour>
      <point x="100" y="0" type="line"/>
      <point x="575" y="0" type="line"/>
      <point x="575" y="165" type="line"/>
      <point x="100" y="165" type="line"/>
    </contour>
    <contour>
      <point x="100" y="335" type="line"/>
      <point x="575" y="335" type="line"/>
      <point x="575" y="500" type="line"/>
      <point x="100" y="500" type="line"/>
    </contour>
    <contour>
      <point x="100" y="200" type="line"/>
      <point x="525" y="200" type="line"/>
      <point x="525" y="300" type="line"/>
      <point x="100" y="300" type="line"/>
    </contour>
    <contour>
      <point x="315.0" y="450.0" type="move" name="top"/>
    </contour>
  </outline>
</glyph>
<glyph name="Eth.small" format="1">
  <advance width="600"/>
  <outline>
    <contour>
      <point x="250" y="200" type="line"/>
      <point x="250" y="300" type="line"/>
      <point x="0" y="300" type="line"/>
      <point x="0" y="200" type="line"/>
    </contour>
    <component base="D.small"/>
  </outline>
</glyph>
<glyph name="F.small" format="1">
  <advance width="600"/>
  <outline>
    <contour>
      <point x="25" y="0" type="line"/>
      <point x="225" y="0" type="line"/>
      <point x="225" y="500" type="line"/>
      <point x="25" y="500" type="line"/>
    </contour>
    <contour>
      <point x="100" y="300" type="line"/>
      <point x="575" y="300" type="line"/>
      <point x="575" y="500" type="line"/>
      <point x="100" y="500" type="line"/>
    </contour>
    <contour>
      <point x="100" y="100" type="line"/>
      <point x="525" y="100" type="line"/>
      <point x="525" y="250" type="line"/>
      <point x="100" y="250" type="line"/>
    </contour>
  </outline>
</glyph>
<glyph name="G.small" format="1">
  <advance width="600"/>
  <outline>
    <contour>
      <point x="300" y="175" type="line"/>
      <point x="600" y="175" type="line"/>
      <point x="600" y="270" type="line"/>
      <point x="300" y="270" type="line"/>
    </contour>
    <contour>
      <point x="565" y="175" type="line"/>
      <point x="375" y="175" type="line"/>
      <point x="375" y="80" type="line"/>
      <point x="385" y="0" type="line"/>
      <point x="575" y="0" type="line"/>
      <point x="575" y="85" type="line"/>
    </contour>
    <contour>
      <point x="240" y="-10" type="curve"/>
      <point x="320.15625" y="-10.0"/>
      <point x="365.04620047419075" y="25.254102608049237"/>
      <point x="375" y="80" type="curve"/>
      <point x="375" y="175" type="line"/>
      <point x="375.0" y="160.0"/>
      <point x="375.0" y="150.0"/>
      <point x="300" y="150" type="curve"/>
      <point x="240.0" y="150.0"/>
      <point x="225" y="169.56521739130434"/>
      <point x="225" y="240" type="curve" smooth="yes"/>
      <point x="225" y="250" type="line"/>
      <point x="25" y="250" type="line"/>
      <point x="25" y="190" type="line"/>
      <point x="25.0" y="60.0"/>
      <point x="87.23684210526315" y="-10.0"/>
    </contour>
    <contour>
      <point x="575" y="315" type="line"/>
      <point x="575" y="460"/>
      <point x="510" y="510"/>
      <point x="300" y="510" type="curve" smooth="yes"/>
      <point x="100" y="510"/>
      <point x="25" y="440"/>
      <point x="25" y="310" type="curve"/>
      <point x="25" y="250" type="line"/>
      <point x="225" y="250" type="line"/>
      <point x="225" y="260" type="line" smooth="yes"/>
      <point x="225" y="310"/>
      <point x="240" y="320"/>
      <point x="300" y="320" type="curve" smooth="yes"/>
      <point x="360" y="320"/>
      <point x="375" y="315"/>
      <point x="375" y="290" type="curve"/>
      <point x="375" y="285" type="line"/>
      <point x="575" y="285" type="line"/>
    </contour>
  </outline>
</glyph>
<glyph name="K.small" format="1">
  <advance width="600"/>
  <outline>
    <contour>
      <point x="25" y="0" type="line"/>
      <point x="225" y="0" type="line"/>
      <point x="225" y="500" type="line"/>
      <point x="25" y="500" type="line"/>
    </contour>
    <contour>
      <point x="130" y="165" type="line"/>
      <point x="295" y="165" type="line"/>
      <point x="295" y="335" type="line"/>
      <point x="130" y="335" type="line"/>
    </contour>
    <contour>
      <point x="405" y="240" type="line"/>
      <point x="525" y="265"/>
      <point x="555" y="335"/>
      <point x="565" y="425" type="curve" smooth="yes"/>
      <point x="575" y="500" type="line"/>
      <point x="370" y="500" type="line"/>
      <point x="360" y="425" type="line" smooth="yes"/>
      <point x="350" y="345"/>
      <point x="345" y="335"/>
      <point x="285" y="335" type="curve"/>
      <point x="295" y="165" type="line"/>
    </contour>
    <contour>
      <point x="295" y="335" type="line"/>
      <point x="285" y="165" type="line"/>
      <point x="345" y="165"/>
      <point x="350" y="155"/>
      <point x="360" y="75" type="curve" smooth="yes"/>
      <point x="370" y="0" type="line"/>
      <point x="575" y="0" type="line"/>
      <point x="565" y="75" type="line" smooth="yes"/>
      <point x="555" y="165"/>
      <point x="525" y="235"/>
      <point x="405" y="260" type="curve"/>
    </contour>
  </outline>
</glyph>
<glyph name="L.small" format="1">
  <advance width="400"/>
  <outline>
    <contour>
      <point x="25" y="500" type="line"/>
      <point x="25" y="0" type="line"/>
      <point x="225" y="0" type="line"/>
      <point x="225" y="500" type="line"/>
    </contour>
    <contour>
      <point x="100" y="200" type="line"/>
      <point x="100" y="0" type="line"/>
      <point x="400" y="0" type="line"/>
      <point x="400" y="200" type="line"/>
    </contour>
  </outline>
</glyph>
<glyph name="Lslash.small" format="1">
  <advance width="400"/>
  <outline>
    <contour>
      <point x="10" y="185" type="line"/>
      <point x="305" y="280" type="line"/>
      <point x="305" y="410" type="line"/>
      <point x="10" y="315" type="line"/>
    </contour>
    <component base="L.small"/>
  </outline>
</glyph>
<glyph name="M.small" format="1">
  <advance width="800"/>
  <outline>
    <contour>
      <point x="25" y="0" type="line"/>
      <point x="225" y="0" type="line"/>
      <point x="225" y="355" type="line"/>
      <point x="195" y="500" type="line"/>
      <point x="25" y="500" type="line"/>
    </contour>
    <contour>
      <point x="90" y="345" type="line"/>
      <point x="265" y="165" type="line" smooth="yes"/>
      <point x="300" y="125"/>
      <point x="300" y="85.0"/>
      <point x="300" y="15" type="curve" smooth="yes"/>
      <point x="300" y="0" type="line"/>
      <point x="500" y="0" type="line"/>
      <point x="500" y="30" type="line" smooth="yes"/>
      <point x="500" y="108.87931034482759"/>
      <point x="458.1774369202965" y="210.50481938767385"/>
      <point x="345" y="335" type="curve" smooth="yes"/>
      <point x="195" y="500" type="line"/>
    </contour>
    <contour>
      <point x="775" y="0" type="line"/>
      <point x="775" y="500" type="line"/>
      <point x="605" y="500" type="line"/>
      <point x="575" y="355" type="line"/>
      <point x="575" y="0" type="line"/>
    </contour>
    <contour>
      <point x="710" y="345" type="line"/>
      <point x="605" y="500" type="line"/>
      <point x="455" y="335" type="line" smooth="yes"/>
      <point x="340" y="210"/>
      <point x="300" y="110"/>
      <point x="300" y="30" type="curve" smooth="yes"/>
      <point x="300" y="0" type="line"/>
      <point x="500" y="0" type="line"/>
      <point x="500" y="15" type="line" smooth="yes"/>
      <point x="500" y="85"/>
      <point x="500" y="125"/>
      <point x="535" y="165" type="curve" smooth="yes"/>
    </contour>
  </outline>
</glyph>
<glyph name="N.small" format="1">
  <advance width="600"/>
  <outline>
    <contour>
      <point x="385" y="0" type="line"/>
      <point x="575" y="0" type="line"/>
      <point x="575" y="500" type="line"/>
      <point x="375" y="500" type="line"/>
      <point x="375" y="365" type="line"/>
      <point x="380" y="250" type="line"/>
      <point x="425" y="255" type="line"/>
      <point x="215" y="500" type="line"/>
      <point x="25" y="500" type="line"/>
      <point x="25" y="0" type="line"/>
      <point x="225" y="0" type="line"/>
      <point x="225" y="135" type="line"/>
      <point x="220" y="250" type="line"/>
      <point x="175" y="245" type="line"/>
    </contour>
    <contour>
      <point x="300.0" y="450.0" type="move" name="top"/>
    </contour>
  </outline>
</glyph>
<glyph name="OE.small" format="1">
  <advance width="950"/>
  <outline>
    <contour>
      <point x="500" y="0" type="line"/>
      <point x="580" y="0" type="line"/>
      <point x="580" y="500" type="line"/>
      <point x="500" y="500" type="line"/>
      <point x="400" y="375" type="line"/>
      <point x="400" y="125" type="line"/>
    </contour>
    <contour>
      <point x="500" y="0" type="line"/>
      <point x="900" y="0" type="line"/>
      <point x="900" y="150" type="line"/>
      <point x="500" y="150" type="line"/>
    </contour>
    <contour>
      <point x="500" y="350" type="line"/>
      <point x="900" y="350" type="line"/>
      <point x="900" y="500" type="line"/>
      <point x="500" y="500" type="line"/>
    </contour>
    <contour>
      <point x="450" y="200" type="line"/>
      <point x="850" y="200" type="line"/>
      <point x="850" y="300" type="line"/>
      <point x="450" y="300" type="line"/>
    </contour>
    <contour>
      <point x="300" y="-10" type="curve"/>
      <point x="455" y="-10"/>
      <point x="515" y="90"/>
      <point x="515" y="235" type="curve"/>
      <point x="515" y="250" type="line"/>
      <point x="380" y="250" type="line"/>
      <point x="380" y="210"/>
      <point x="360" y="180"/>
      <point x="300" y="180" type="curve"/>
      <point x="240" y="180"/>
      <point x="220" y="210"/>
      <point x="220" y="250" type="curve"/>
      <point x="20" y="250" type="line"/>
      <point x="20" y="235" type="line"/>
      <point x="20" y="90"/>
      <point x="100" y="-10"/>
    </contour>
    <contour>
      <point x="300" y="510" type="curve"/>
      <point x="100" y="510"/>
      <point x="20" y="410"/>
      <point x="20" y="265" type="curve"/>
      <point x="20" y="250" type="line"/>
      <point x="220" y="250" type="line"/>
      <point x="220" y="290"/>
      <point x="240" y="320"/>
      <point x="300" y="320" type="curve"/>
      <point x="360" y="320"/>
      <point x="380" y="290"/>
      <point x="380" y="250" type="curve"/>
      <point x="515" y="250" type="line"/>
      <point x="515" y="265" type="line"/>
      <point x="515" y="410"/>
      <point x="455" y="510"/>
    </contour>
    <contour>
      <point x="300.0" y="650.0" type="move" name="top"/>
    </contour>
    <contour>
      <point x="665.0" y="650.0" type="move" name="top"/>
    </contour>
    <contour>
      <point x="665.0" y="450.0" type="move" name="top"/>
    </contour>
    <contour>
      <point x="300.0" y="650.0" type="move" name="top"/>
    </contour>
    <contour>
      <point x="665.0" y="650.0" type="move" name="top"/>
    </contour>
  </outline>
</glyph>
<glyph name="P.small" format="1">
  <advance width="600"/>
  <outline>
    <contour>
      <point x="225" y="500" type="line"/>
      <point x="25" y="500" type="line"/>
      <point x="25" y="0" type="line"/>
      <point x="225" y="0" type="line"/>
    </contour>
    <contour>
      <point x="330" y="55" type="line" smooth="yes"/>
      <point x="485.0" y="55"/>
      <point x="575.0" y="115.12499999999999"/>
      <point x="575" y="240" type="curve"/>
      <point x="575" y="270" type="line"/>
      <point x="375" y="270" type="line"/>
      <point x="375" y="270" type="line"/>
      <point x="375.0" y="246.0"/>
      <point x="360.0" y="240.0"/>
      <point x="300" y="240" type="curve"/>
      <point x="110" y="240" type="line"/>
      <point x="110" y="55" type="line"/>
    </contour>
    <contour>
      <point x="330" y="500" type="curve" smooth="yes"/>
      <point x="110" y="500" type="line"/>
      <point x="110" y="300" type="line"/>
      <point x="300" y="300" type="line"/>
      <point x="360.0" y="300.0"/>
      <point x="375.0" y="294.0"/>
      <point x="375" y="270" type="curve"/>
      <point x="375" y="270" type="line"/>
      <point x="575" y="270" type="line"/>
      <point x="575" y="300" type="line"/>
      <point x="575" y="435"/>
      <point x="485" y="500"/>
    </contour>
  </outline>
</glyph>
<glyph name="Q.small" format="1">
  <advance width="600"/>
  <outline>
    <contour>
      <point x="300" y="-10" type="curve"/>
      <point x="500" y="-10"/>
      <point x="580" y="90"/>
      <point x="580" y="235" type="curve"/>
      <point x="580" y="250" type="line"/>
      <point x="380" y="250" type="line"/>
      <point x="380" y="175"/>
      <point x="360.0" y="160.0"/>
      <point x="300" y="160" type="curve"/>
      <point x="240.0" y="160.0"/>
      <point x="220" y="175"/>
      <point x="220" y="250" type="curve"/>
      <point x="20" y="250" type="line"/>
      <point x="20" y="235" type="line"/>
      <point x="20" y="90"/>
      <point x="100" y="-10"/>
    </contour>
    <contour>
      <point x="300" y="510" type="curve"/>
      <point x="100" y="510"/>
      <point x="20" y="410"/>
      <point x="20" y="265" type="curve"/>
      <point x="20" y="250" type="line"/>
      <point x="220" y="250" type="line"/>
      <point x="220" y="290"/>
      <point x="240" y="320"/>
      <point x="300" y="320" type="curve"/>
      <point x="360" y="320"/>
      <point x="380" y="290"/>
      <point x="380" y="250" type="curve"/>
      <point x="580" y="250" type="line"/>
      <point x="580" y="265" type="line"/>
      <point x="580" y="410"/>
      <point x="500" y="510"/>
    </contour>
    <contour>
      <point x="230" y="5" type="move"/>
      <point x="225" y="-50" type="line"/>
      <point x="375" y="-50" type="line"/>
      <point x="370" y="5" type="line"/>
    </contour>
    <contour>
      <point x="360" y="135" type="move"/>
      <point x="350" y="250" type="line"/>
      <point x="250" y="250" type="line"/>
      <point x="240" y="135" type="line"/>
    </contour>
    <contour>
      <point x="300.0" y="650.0" type="move" name="top"/>
    </contour>
    <contour>
      <point x="300.0" y="650.0" type="move" name="top"/>
    </contour>
    <contour>
      <point x="300.0" y="650.0" type="move" name="top"/>
    </contour>
  </outline>
</glyph>
<glyph name="R.small" format="1">
  <advance width="600"/>
  <outline>
    <contour>
      <point x="225" y="500" type="line"/>
      <point x="25" y="500" type="line"/>
      <point x="25" y="0" type="line"/>
      <point x="225" y="0" type="line"/>
    </contour>
    <contour>
      <point x="330" y="145" type="line"/>
      <point x="485.0" y="145.0"/>
      <point x="575.0" y="178.0"/>
      <point x="575" y="310" type="curve"/>
      <point x="575" y="320" type="line"/>
      <point x="375" y="300" type="line"/>
      <point x="375" y="280"/>
      <point x="360" y="275"/>
      <point x="300" y="275" type="curve"/>
      <point x="110" y="275" type="line"/>
      <point x="110" y="115" type="line"/>
      <point x="310" y="115" type="line"/>
    </contour>
    <contour>
      <point x="330" y="500" type="curve" smooth="yes"/>
      <point x="110" y="500" type="line"/>
      <point x="110" y="325" type="line"/>
      <point x="300" y="325" type="line"/>
      <point x="360" y="325"/>
      <point x="375" y="320"/>
      <point x="375" y="300" type="curve"/>
      <point x="575" y="320" type="line"/>
      <point x="575" y="330" type="line"/>
      <point x="575.0" y="443.33333333333326"/>
      <point x="485.9090909090909" y="500"/>
    </contour>
    <contour>
      <point x="340" y="235" type="curve"/>
      <point x="290" y="115" type="line"/>
      <point x="350.0" y="115.0"/>
      <point x="360.23397556391814" y="110.74518327061415"/>
      <point x="365" y="75" type="curve" smooth="yes"/>
      <point x="375" y="0" type="line"/>
      <point x="575" y="0" type="line"/>
      <point x="565" y="75" type="line" smooth="yes"/>
      <point x="550.1495750720721" y="186.37818695945927"/>
      <point x="485.0" y="235.0"/>
    </contour>
  </outline>
</glyph>
<glyph name="T.small" format="1">
  <advance width="600"/>
  <outline>
    <contour>
      <point x="200" y="0" type="line"/>
      <point x="400" y="0" type="line"/>
      <point x="400" y="500" type="line"/>
      <point x="200" y="500" type="line"/>
    </contour>
    <contour>
      <point x="25" y="300" type="line"/>
      <point x="575" y="300" type="line"/>
      <point x="575" y="500" type="line"/>
      <point x="25" y="500" type="line"/>
    </contour>
  </outline>
</glyph>
<glyph name="Thorn.small" format="1">
  <advance width="600"/>
  <outline>
    <contour>
      <point x="225" y="500" type="line"/>
      <point x="25" y="500" type="line"/>
      <point x="25" y="0" type="line"/>
      <point x="225" y="0" type="line"/>
    </contour>
    <contour>
      <point x="330" y="40" type="line" smooth="yes"/>
      <point x="485.0" y="40"/>
      <point x="575.0" y="106.66666666666669"/>
      <point x="575" y="240" type="curve"/>
      <point x="575" y="250" type="line"/>
      <point x="375" y="250" type="line"/>
      <point x="375.0" y="230.0"/>
      <point x="360.0" y="225.0"/>
      <point x="300" y="225" type="curve"/>
      <point x="110" y="225" type="line"/>
      <point x="110" y="40" type="line"/>
    </contour>
    <contour>
      <point x="330" y="460" type="curve" smooth="yes"/>
      <point x="110" y="460" type="line"/>
      <point x="110" y="275" type="line"/>
      <point x="300" y="275" type="line"/>
      <point x="360.0" y="275.0"/>
      <point x="375.0" y="270.0"/>
      <point x="375" y="250" type="curve"/>
      <point x="575" y="250" type="line"/>
      <point x="575" y="260" type="line"/>
      <point x="575.0" y="393.3333333333333"/>
      <point x="485.0" y="460"/>
    </contour>
  </outline>
</glyph>
<glyph name="Y.small" format="1">
  <advance width="600"/>
  <outline>
    <contour>
      <point x="200" y="0" type="line"/>
      <point x="400" y="0" type="line"/>
      <point x="400" y="230" type="line"/>
      <point x="200" y="230" type="line"/>
    </contour>
    <contour>
      <point x="225" y="110" type="curve"/>
      <point x="415" y="185" type="line"/>
      <point x="271.52800736294944" y="278.9988917277228"/>
      <point x="225" y="333.0769230769231"/>
      <point x="225" y="460" type="curve" smooth="yes"/>
      <point x="225" y="500" type="line"/>
      <point x="25" y="500" type="line"/>
      <point x="25" y="460" type="line" smooth="yes"/>
      <point x="25" y="328.75"/>
      <point x="71.17572221736549" y="204.2793960603244"/>
    </contour>
    <contour>
      <point x="375" y="110" type="line"/>
      <point x="528.8242777826346" y="204.27939606032442"/>
      <point x="575" y="328.75"/>
      <point x="575" y="460" type="curve" smooth="yes"/>
      <point x="575" y="500" type="line"/>
      <point x="375" y="500" type="line"/>
      <point x="375" y="460" type="line" smooth="yes"/>
      <point x="375" y="333.0769230769231"/>
      <point x="328.47199263705056" y="278.9988917277228"/>
      <point x="185" y="185" type="curve"/>
      <point x="225" y="110" type="line"/>
    </contour>
    <contour>
      <point x="300.0" y="450.0" type="move" name="top"/>
    </contour>
  </outline>
</glyph>
<glyph name="Zcaron.small" format="1">
  <advance width="600"/>
  <outline>
    <component base="z"/>
    <component base="caron" xOffset="195" yOffset="-50"/>
    <contour>
      <point x="270.0" y="450.0" type="move" name="top"/>
    </contour>
  </outline>
</glyph>
